  0
SECTION
  2
HEADER
  9
$ACADVER
  1
AC1009
  9
$EXTMIN
 10
0.0
 20
0.0
 30
0.0
  9
$EXTMAX
 10
1000.0
 20
1000.0
 30
0.0
  9
$FILLMODE
 70
 0
  9
$SPLFRAME
 70
 1
  0
ENDSEC
  0
SECTION
  2
TABLES
  0
TABLE
  2
LAYER
 70
1
  0
LAYER
  2
0
 70
     0
 62
     7
  6
CONTINUOUS
  0
ENDTAB
  0
ENDSEC
  0
SECTION
  2
ENTITIES
  0
LINE
  8
0
 62
     0
 10
0
 20
0.342447
 30
0.0
 11
0.155165
 21
0.342447
 31
0.0
  0
LINE
  8
0
 62
     0
 10
0.155165
 20
0.342447
 30
0.0
 11
0.108724
 21
-0
 31
0.0
  0
LINE
  8
0
 62
     0
 10
0.108724
 20
-0
 30
0.0
 11
0.262369
 21
-0
 31
0.0
  0
LINE
  8
0
 62
     0
 10
0.262369
 20
-0
 30
0.0
 11
0.308811
 21
0.342447
 31
0.0
  0
LINE
  8
0
 62
     0
 10
0.308811
 20
0.342447
 30
0.0
 11
0.511936
 21
0.342447
 31
0.0
  0
LINE
  8
0
 62
     0
 10
0.511936
 20
0.342447
 30
0.0
 11
0.465494
 21
-0
 31
0.0
  0
LINE
  8
0
 62
     0
 10
0.465494
 20
-0
 30
0.0
 11
0.61914
 21
-0
 31
0.0
  0
LINE
  8
0
 62
     0
 10
0.61914
 20
-0
 30
0.0
 11
0.665582
 21
0.342447
 31
0.0
  0
LINE
  8
0
 62
     0
 10
0.665582
 20
0.342447
 30
0.0
 11
0.814453
 21
0.342447
 31
0.0
  0
LINE
  8
0
 62
     0
 10
0.814453
 20
0.342447
 30
0.0
 11
0.835286
 21
0.494358
 31
0.0
  0
LINE
  8
0
 62
     0
 10
0.835286
 20
0.494358
 30
0.0
 11
0.686415
 21
0.494358
 31
0.0
  0
LINE
  8
0
 62
     0
 10
0.686415
 20
0.494358
 30
0.0
 11
0.715278
 21
0.695964
 31
0.0
  0
LINE
  8
0
 62
     0
 10
0.715278
 20
0.695964
 30
0.0
 11
0.865668
 21
0.695964
 31
0.0
  0
LINE
  8
0
 62
     0
 10
0.865668
 20
0.695964
 30
0.0
 11
0.886501
 21
0.84809
 31
0.0
  0
LINE
  8
0
 62
     0
 10
0.886501
 20
0.84809
 30
0.0
 11
0.736111
 21
0.84809
 31
0.0
  0
LINE
  8
0
 62
     0
 10
0.736111
 20
0.84809
 30
0.0
 11
0.780817
 21
1.176
 31
0.0
  0
LINE
  8
0
 62
     0
 10
0.780817
 20
1.176
 30
0.0
 11
0.627169
 21
1.176
 31
0.0
  0
LINE
  8
0
 62
     0
 10
0.627169
 20
1.176
 30
0.0
 11
0.582465
 21
0.84809
 31
0.0
  0
LINE
  8
0
 62
     0
 10
0.582465
 20
0.84809
 30
0.0
 11
0.379124
 21
0.84809
 31
0.0
  0
LINE
  8
0
 62
     0
 10
0.379124
 20
0.84809
 30
0.0
 11
0.424044
 21
1.176
 31
0.0
  0
LINE
  8
0
 62
     0
 10
0.424044
 20
1.176
 30
0.0
 11
0.2704
 21
1.176
 31
0.0
  0
LINE
  8
0
 62
     0
 10
0.2704
 20
1.176
 30
0.0
 11
0.225694
 21
0.84809
 31
0.0
  0
LINE
  8
0
 62
     0
 10
0.225694
 20
0.84809
 30
0.0
 11
0.0720486
 21
0.84809
 31
0.0
  0
LINE
  8
0
 62
     0
 10
0.0720486
 20
0.84809
 30
0.0
 11
0.0512153
 21
0.695964
 31
0.0
  0
LINE
  8
0
 62
     0
 10
0.0512153
 20
0.695964
 30
0.0
 11
0.204861
 21
0.695964
 31
0.0
  0
LINE
  8
0
 62
     0
 10
0.204861
 20
0.695964
 30
0.0
 11
0.175999
 21
0.494358
 31
0.0
  0
LINE
  8
0
 62
     0
 10
0.175999
 20
0.494358
 30
0.0
 11
0.0208333
 21
0.494358
 31
0.0
  0
LINE
  8
0
 62
     0
 10
0.0208333
 20
0.494358
 30
0.0
 11
0
 21
0.342447
 31
0.0
  0
LINE
  8
0
 62
     0
 10
0.358507
 20
0.695964
 30
0.0
 11
0.561632
 21
0.695964
 31
0.0
  0
LINE
  8
0
 62
     0
 10
0.561632
 20
0.695964
 30
0.0
 11
0.532769
 21
0.494358
 31
0.0
  0
LINE
  8
0
 62
     0
 10
0.532769
 20
0.494358
 30
0.0
 11
0.329644
 21
0.494358
 31
0.0
  0
LINE
  8
0
 62
     0
 10
0.329644
 20
0.494358
 30
0.0
 11
0.358507
 21
0.695964
 31
0.0
  0
ENDSEC
  0
EOF
