  0
SECTION
  2
HEADER
  9
$ACADVER
  1
AC1009
  9
$EXTMIN
 10
0.0
 20
0.0
 30
0.0
  9
$EXTMAX
 10
1000.0
 20
1000.0
 30
0.0
  9
$FILLMODE
 70
 0
  9
$SPLFRAME
 70
 1
  0
ENDSEC
  0
SECTION
  2
TABLES
  0
TABLE
  2
LAYER
 70
1
  0
LAYER
  2
0
 70
     0
 62
     7
  6
CONTINUOUS
  0
ENDTAB
  0
ENDSEC
  0
SECTION
  2
ENTITIES
  0
LINE
  8
0
 62
     0
 10
0.177517
 20
0.803168
 30
0.0
 11
0.177517
 21
0.884765
 31
0.0
  0
LINE
  8
0
 62
     0
 10
0.177517
 20
0.884765
 30
0.0
 11
0.179742
 21
0.939074
 31
0.0
  0
LINE
  8
0
 62
     0
 10
0.179742
 20
0.939074
 30
0.0
 11
0.188368
 21
0.985081
 31
0.0
  0
LINE
  8
0
 62
     0
 10
0.188368
 20
0.985081
 30
0.0
 11
0.205946
 21
1.01698
 31
0.0
  0
LINE
  8
0
 62
     0
 10
0.205946
 20
1.01698
 30
0.0
 11
0.235243
 21
1.02886
 31
0.0
  0
LINE
  8
0
 62
     0
 10
0.235243
 20
1.02886
 30
0.0
 11
0.265787
 21
1.01535
 31
0.0
  0
LINE
  8
0
 62
     0
 10
0.265787
 20
1.01535
 30
0.0
 11
0.283203
 21
0.980849
 31
0.0
  0
LINE
  8
0
 62
     0
 10
0.283203
 20
0.980849
 30
0.0
 11
0.290961
 21
0.934299
 31
0.0
  0
LINE
  8
0
 62
     0
 10
0.290961
 20
0.934299
 30
0.0
 11
0.292751
 21
0.884765
 31
0.0
  0
LINE
  8
0
 62
     0
 10
0.292751
 20
0.884765
 30
0.0
 11
0.277832
 21
0.771431
 31
0.0
  0
LINE
  8
0
 62
     0
 10
0.277832
 20
0.771431
 30
0.0
 11
0.243599
 21
0.651801
 31
0.0
  0
LINE
  8
0
 62
     0
 10
0.243599
 20
0.651801
 30
0.0
 11
0.19656
 21
0.532497
 31
0.0
  0
LINE
  8
0
 62
     0
 10
0.19656
 20
0.532497
 30
0.0
 11
0.143338
 21
0.420031
 31
0.0
  0
LINE
  8
0
 62
     0
 10
0.143338
 20
0.420031
 30
0.0
 11
0.0904947
 21
0.321072
 31
0.0
  0
LINE
  8
0
 62
     0
 10
0.0904947
 20
0.321072
 30
0.0
 11
0.0445964
 21
0.242242
 31
0.0
  0
LINE
  8
0
 62
     0
 10
0.0445964
 20
0.242242
 30
0.0
 11
0.012207
 21
0.190104
 31
0.0
  0
LINE
  8
0
 62
     0
 10
0.012207
 20
0.190104
 30
0.0
 11
0
 21
0.171224
 31
0.0
  0
LINE
  8
0
 62
     0
 10
0
 20
0.171224
 30
0.0
 11
0
 21
-0
 31
0.0
  0
LINE
  8
0
 62
     0
 10
0
 20
-0
 30
0.0
 11
0.46875
 21
-0
 31
0.0
  0
LINE
  8
0
 62
     0
 10
0.46875
 20
-0
 30
0.0
 11
0.46875
 21
0.171224
 31
0.0
  0
LINE
  8
0
 62
     0
 10
0.46875
 20
0.171224
 30
0.0
 11
0.195313
 21
0.171224
 31
0.0
  0
LINE
  8
0
 62
     0
 10
0.195313
 20
0.171224
 30
0.0
 11
0.23215
 21
0.235732
 31
0.0
  0
LINE
  8
0
 62
     0
 10
0.23215
 20
0.235732
 30
0.0
 11
0.274631
 21
0.314182
 31
0.0
  0
LINE
  8
0
 62
     0
 10
0.274631
 20
0.314182
 30
0.0
 11
0.319444
 21
0.403375
 31
0.0
  0
LINE
  8
0
 62
     0
 10
0.319444
 20
0.403375
 30
0.0
 11
0.363444
 21
0.500054
 31
0.0
  0
LINE
  8
0
 62
     0
 10
0.363444
 20
0.500054
 30
0.0
 11
0.403321
 21
0.600911
 31
0.0
  0
LINE
  8
0
 62
     0
 10
0.403321
 20
0.600911
 30
0.0
 11
0.435818
 21
0.702692
 31
0.0
  0
LINE
  8
0
 62
     0
 10
0.435818
 20
0.702692
 30
0.0
 11
0.457682
 21
0.802192
 31
0.0
  0
LINE
  8
0
 62
     0
 10
0.457682
 20
0.802192
 30
0.0
 11
0.465711
 21
0.89605
 31
0.0
  0
LINE
  8
0
 62
     0
 10
0.465711
 20
0.89605
 30
0.0
 11
0.454428
 21
1.01004
 31
0.0
  0
LINE
  8
0
 62
     0
 10
0.454428
 20
1.01004
 30
0.0
 11
0.41645
 21
1.10308
 31
0.0
  0
LINE
  8
0
 62
     0
 10
0.41645
 20
1.10308
 30
0.0
 11
0.345486
 21
1.1658
 31
0.0
  0
LINE
  8
0
 62
     0
 10
0.345486
 20
1.1658
 30
0.0
 11
0.235243
 21
1.1888
 31
0.0
  0
LINE
  8
0
 62
     0
 10
0.235243
 20
1.1888
 30
0.0
 11
0.119575
 21
1.16357
 31
0.0
  0
LINE
  8
0
 62
     0
 10
0.119575
 20
1.16357
 30
0.0
 11
0.0492079
 21
1.09619
 31
0.0
  0
LINE
  8
0
 62
     0
 10
0.0492079
 20
1.09619
 30
0.0
 11
0.0142144
 21
0.999132
 31
0.0
  0
LINE
  8
0
 62
     0
 10
0.0142144
 20
0.999132
 30
0.0
 11
0.00477431
 21
0.884765
 31
0.0
  0
LINE
  8
0
 62
     0
 10
0.00477431
 20
0.884765
 30
0.0
 11
0.00477431
 21
0.803168
 31
0.0
  0
LINE
  8
0
 62
     0
 10
0.00477431
 20
0.803168
 30
0.0
 11
0.177517
 21
0.803168
 31
0.0
  0
ENDSEC
  0
EOF
