  0
SECTION
  2
HEADER
  9
$ACADVER
  1
AC1009
  9
$EXTMIN
 10
0.0
 20
0.0
 30
0.0
  9
$EXTMAX
 10
1000.0
 20
1000.0
 30
0.0
  9
$FILLMODE
 70
 0
  9
$SPLFRAME
 70
 1
  0
ENDSEC
  0
SECTION
  2
TABLES
  0
TABLE
  2
LAYER
 70
1
  0
LAYER
  2
0
 70
     0
 62
     7
  6
CONTINUOUS
  0
ENDTAB
  0
ENDSEC
  0
SECTION
  2
ENTITIES
  0
LINE
  8
0
 62
     0
 10
0.158365
 20
0.544054
 30
0.0
 11
0.242296
 21
0.5236
 31
0.0
  0
LINE
  8
0
 62
     0
 10
0.242296
 20
0.5236
 30
0.0
 11
0.280382
 21
0.475261
 31
0.0
  0
LINE
  8
0
 62
     0
 10
0.280382
 20
0.475261
 30
0.0
 11
0.290256
 21
0.400499
 31
0.0
  0
LINE
  8
0
 62
     0
 10
0.290256
 20
0.400499
 30
0.0
 11
0.28966
 21
0.300781
 31
0.0
  0
LINE
  8
0
 62
     0
 10
0.28966
 20
0.300781
 30
0.0
 11
0.288792
 21
0.249186
 31
0.0
  0
LINE
  8
0
 62
     0
 10
0.288792
 20
0.249186
 30
0.0
 11
0.282824
 21
0.201118
 31
0.0
  0
LINE
  8
0
 62
     0
 10
0.282824
 20
0.201118
 30
0.0
 11
0.266656
 21
0.165744
 31
0.0
  0
LINE
  8
0
 62
     0
 10
0.266656
 20
0.165744
 30
0.0
 11
0.235189
 21
0.15191
 31
0.0
  0
LINE
  8
0
 62
     0
 10
0.235189
 20
0.15191
 30
0.0
 11
0.207954
 21
0.160915
 31
0.0
  0
LINE
  8
0
 62
     0
 10
0.207954
 20
0.160915
 30
0.0
 11
0.189996
 21
0.192546
 31
0.0
  0
LINE
  8
0
 62
     0
 10
0.189996
 20
0.192546
 30
0.0
 11
0.17985
 21
0.253906
 31
0.0
  0
LINE
  8
0
 62
     0
 10
0.17985
 20
0.253906
 30
0.0
 11
0.175944
 21
0.351997
 31
0.0
  0
LINE
  8
0
 62
     0
 10
0.175944
 20
0.351997
 30
0.0
 11
0.00645617
 21
0.351997
 31
0.0
  0
LINE
  8
0
 62
     0
 10
0.00645617
 20
0.351997
 30
0.0
 11
0.00737847
 21
0.298774
 31
0.0
  0
LINE
  8
0
 62
     0
 10
0.00737847
 20
0.298774
 30
0.0
 11
0.0118273
 21
0.240994
 31
0.0
  0
LINE
  8
0
 62
     0
 10
0.0118273
 20
0.240994
 30
0.0
 11
0.0218642
 21
0.182292
 31
0.0
  0
LINE
  8
0
 62
     0
 10
0.0218642
 20
0.182292
 30
0.0
 11
0.0398221
 21
0.126194
 31
0.0
  0
LINE
  8
0
 62
     0
 10
0.0398221
 20
0.126194
 30
0.0
 11
0.0679253
 21
0.0763889
 31
0.0
  0
LINE
  8
0
 62
     0
 10
0.0679253
 20
0.0763889
 30
0.0
 11
0.108344
 21
0.0363499
 31
0.0
  0
LINE
  8
0
 62
     0
 10
0.108344
 20
0.0363499
 30
0.0
 11
0.163357
 21
0.00971137
 31
0.0
  0
LINE
  8
0
 62
     0
 10
0.163357
 20
0.00971137
 30
0.0
 11
0.235189
 21
-0
 31
0.0
  0
LINE
  8
0
 62
     0
 10
0.235189
 20
-0
 30
0.0
 11
0.306803
 21
0.0122613
 31
0.0
  0
LINE
  8
0
 62
     0
 10
0.306803
 20
0.0122613
 30
0.0
 11
0.361274
 21
0.0447592
 31
0.0
  0
LINE
  8
0
 62
     0
 10
0.361274
 20
0.0447592
 30
0.0
 11
0.400933
 21
0.0912543
 31
0.0
  0
LINE
  8
0
 62
     0
 10
0.400933
 20
0.0912543
 30
0.0
 11
0.428114
 21
0.1454
 31
0.0
  0
LINE
  8
0
 62
     0
 10
0.428114
 20
0.1454
 30
0.0
 11
0.445204
 21
0.201064
 31
0.0
  0
LINE
  8
0
 62
     0
 10
0.445204
 20
0.201064
 30
0.0
 11
0.454482
 21
0.25179
 31
0.0
  0
LINE
  8
0
 62
     0
 10
0.454482
 20
0.25179
 30
0.0
 11
0.458333
 21
0.291396
 31
0.0
  0
LINE
  8
0
 62
     0
 10
0.458333
 20
0.291396
 30
0.0
 11
0.459147
 21
0.313585
 31
0.0
  0
LINE
  8
0
 62
     0
 10
0.459147
 20
0.313585
 30
0.0
 11
0.45535
 21
0.412272
 31
0.0
  0
LINE
  8
0
 62
     0
 10
0.45535
 20
0.412272
 30
0.0
 11
0.44081
 21
0.501628
 31
0.0
  0
LINE
  8
0
 62
     0
 10
0.44081
 20
0.501628
 30
0.0
 11
0.41059
 21
0.577746
 31
0.0
  0
LINE
  8
0
 62
     0
 10
0.41059
 20
0.577746
 30
0.0
 11
0.359972
 21
0.636719
 31
0.0
  0
LINE
  8
0
 62
     0
 10
0.359972
 20
0.636719
 30
0.0
 11
0.361708
 21
0.638456
 31
0.0
  0
LINE
  8
0
 62
     0
 10
0.361708
 20
0.638456
 30
0.0
 11
0.396918
 21
0.684733
 31
0.0
  0
LINE
  8
0
 62
     0
 10
0.396918
 20
0.684733
 30
0.0
 11
0.423014
 21
0.748047
 31
0.0
  0
LINE
  8
0
 62
     0
 10
0.423014
 20
0.748047
 30
0.0
 11
0.439236
 21
0.834201
 31
0.0
  0
LINE
  8
0
 62
     0
 10
0.439236
 20
0.834201
 30
0.0
 11
0.444824
 21
0.948785
 31
0.0
  0
LINE
  8
0
 62
     0
 10
0.444824
 20
0.948785
 30
0.0
 11
0.444011
 21
0.968425
 31
0.0
  0
LINE
  8
0
 62
     0
 10
0.444011
 20
0.968425
 30
0.0
 11
0.440158
 21
1.00114
 31
0.0
  0
LINE
  8
0
 62
     0
 10
0.440158
 20
1.00114
 30
0.0
 11
0.430881
 21
1.04216
 31
0.0
  0
LINE
  8
0
 62
     0
 10
0.430881
 20
1.04216
 30
0.0
 11
0.413792
 21
1.08659
 31
0.0
  0
LINE
  8
0
 62
     0
 10
0.413792
 20
1.08659
 30
0.0
 11
0.38661
 21
1.12967
 31
0.0
  0
LINE
  8
0
 62
     0
 10
0.38661
 20
1.12967
 30
0.0
 11
0.346951
 21
1.1664
 31
0.0
  0
LINE
  8
0
 62
     0
 10
0.346951
 20
1.1664
 30
0.0
 11
0.292481
 21
1.192
 31
0.0
  0
LINE
  8
0
 62
     0
 10
0.292481
 20
1.192
 30
0.0
 11
0.220865
 21
1.20161
 31
0.0
  0
LINE
  8
0
 62
     0
 10
0.220865
 20
1.20161
 30
0.0
 11
0.149306
 21
1.19195
 31
0.0
  0
LINE
  8
0
 62
     0
 10
0.149306
 20
1.19195
 30
0.0
 11
0.0951606
 21
1.16531
 31
0.0
  0
LINE
  8
0
 62
     0
 10
0.0951606
 20
1.16531
 30
0.0
 11
0.0559353
 21
1.12527
 31
0.0
  0
LINE
  8
0
 62
     0
 10
0.0559353
 20
1.12527
 30
0.0
 11
0.0293511
 21
1.07541
 31
0.0
  0
LINE
  8
0
 62
     0
 10
0.0293511
 20
1.07541
 30
0.0
 11
0.0128038
 21
1.01937
 31
0.0
  0
LINE
  8
0
 62
     0
 10
0.0128038
 20
1.01937
 30
0.0
 11
0.00406901
 21
0.960667
 31
0.0
  0
LINE
  8
0
 62
     0
 10
0.00406901
 20
0.960667
 30
0.0
 11
0.000542535
 21
0.902886
 31
0.0
  0
LINE
  8
0
 62
     0
 10
0.000542535
 20
0.902886
 30
0.0
 11
-5.42535e-05
 21
0.84961
 31
0.0
  0
LINE
  8
0
 62
     0
 10
-5.42535e-05
 20
0.84961
 30
0.0
 11
0.16965
 21
0.84961
 31
0.0
  0
LINE
  8
0
 62
     0
 10
0.16965
 20
0.84961
 30
0.0
 11
0.170464
 21
0.9037
 31
0.0
  0
LINE
  8
0
 62
     0
 10
0.170464
 20
0.9037
 30
0.0
 11
0.1722
 21
0.947754
 31
0.0
  0
LINE
  8
0
 62
     0
 10
0.1722
 20
0.947754
 30
0.0
 11
0.175131
 21
0.982585
 31
0.0
  0
LINE
  8
0
 62
     0
 10
0.175131
 20
0.982585
 30
0.0
 11
0.179633
 21
1.00906
 31
0.0
  0
LINE
  8
0
 62
     0
 10
0.179633
 20
1.00906
 30
0.0
 11
0.186035
 21
1.02821
 31
0.0
  0
LINE
  8
0
 62
     0
 10
0.186035
 20
1.02821
 30
0.0
 11
0.194824
 21
1.04074
 31
0.0
  0
LINE
  8
0
 62
     0
 10
0.194824
 20
1.04074
 30
0.0
 11
0.206326
 21
1.04763
 31
0.0
  0
LINE
  8
0
 62
     0
 10
0.206326
 20
1.04763
 30
0.0
 11
0.220865
 21
1.0497
 31
0.0
  0
LINE
  8
0
 62
     0
 10
0.220865
 20
1.0497
 30
0.0
 11
0.252225
 21
1.03543
 31
0.0
  0
LINE
  8
0
 62
     0
 10
0.252225
 20
1.03543
 30
0.0
 11
0.268337
 21
0.998861
 31
0.0
  0
LINE
  8
0
 62
     0
 10
0.268337
 20
0.998861
 30
0.0
 11
0.274251
 21
0.949761
 31
0.0
  0
LINE
  8
0
 62
     0
 10
0.274251
 20
0.949761
 30
0.0
 11
0.275119
 21
0.897569
 31
0.0
  0
LINE
  8
0
 62
     0
 10
0.275119
 20
0.897569
 30
0.0
 11
0.275336
 21
0.846246
 31
0.0
  0
LINE
  8
0
 62
     0
 10
0.275336
 20
0.846246
 30
0.0
 11
0.274849
 21
0.803276
 31
0.0
  0
LINE
  8
0
 62
     0
 10
0.274849
 20
0.803276
 30
0.0
 11
0.271539
 21
0.768067
 31
0.0
  0
LINE
  8
0
 62
     0
 10
0.271539
 20
0.768067
 30
0.0
 11
0.26351
 21
0.740017
 31
0.0
  0
LINE
  8
0
 62
     0
 10
0.26351
 20
0.740017
 30
0.0
 11
0.248697
 21
0.718642
 31
0.0
  0
LINE
  8
0
 62
     0
 10
0.248697
 20
0.718642
 30
0.0
 11
0.225206
 21
0.703179
 31
0.0
  0
LINE
  8
0
 62
     0
 10
0.225206
 20
0.703179
 30
0.0
 11
0.190972
 21
0.693197
 31
0.0
  0
LINE
  8
0
 62
     0
 10
0.190972
 20
0.693197
 30
0.0
 11
0.144043
 21
0.687933
 31
0.0
  0
LINE
  8
0
 62
     0
 10
0.144043
 20
0.687933
 30
0.0
 11
0.144043
 21
0.544054
 31
0.0
  0
LINE
  8
0
 62
     0
 10
0.144043
 20
0.544054
 30
0.0
 11
0.158365
 21
0.544054
 31
0.0
  0
ENDSEC
  0
EOF
