  0
SECTION
  2
HEADER
  9
$ACADVER
  1
AC1009
  9
$EXTMIN
 10
0.0
 20
0.0
 30
0.0
  9
$EXTMAX
 10
1000.0
 20
1000.0
 30
0.0
  9
$FILLMODE
 70
 0
  9
$SPLFRAME
 70
 1
  0
ENDSEC
  0
SECTION
  2
TABLES
  0
TABLE
  2
LAYER
 70
1
  0
LAYER
  2
0
 70
     0
 62
     7
  6
CONTINUOUS
  0
ENDTAB
  0
ENDSEC
  0
SECTION
  2
ENTITIES
  0
LINE
  8
0
 62
     0
 10
0.172851
 20
0.308811
 30
0.0
 11
0.172851
 21
0.355251
 31
0.0
  0
LINE
  8
0
 62
     0
 10
0.172851
 20
0.355251
 30
0.0
 11
-0.000108507
 21
0.355251
 31
0.0
  0
LINE
  8
0
 62
     0
 10
-0.000108507
 20
0.355251
 30
0.0
 11
0.000922308
 21
0.294976
 31
0.0
  0
LINE
  8
0
 62
     0
 10
0.000922308
 20
0.294976
 30
0.0
 11
0.00542535
 21
0.233561
 31
0.0
  0
LINE
  8
0
 62
     0
 10
0.00542535
 20
0.233561
 30
0.0
 11
0.015625
 21
0.173936
 31
0.0
  0
LINE
  8
0
 62
     0
 10
0.015625
 20
0.173936
 30
0.0
 11
0.0335286
 21
0.118815
 31
0.0
  0
LINE
  8
0
 62
     0
 10
0.0335286
 20
0.118815
 30
0.0
 11
0.0613607
 21
0.0710721
 31
0.0
  0
LINE
  8
0
 62
     0
 10
0.0613607
 20
0.0710721
 30
0.0
 11
0.101237
 21
0.0334744
 31
0.0
  0
LINE
  8
0
 62
     0
 10
0.101237
 20
0.0334744
 30
0.0
 11
0.155219
 21
0.00884332
 31
0.0
  0
LINE
  8
0
 62
     0
 10
0.155219
 20
0.00884332
 30
0.0
 11
0.225586
 21
-0
 31
0.0
  0
LINE
  8
0
 62
     0
 10
0.225586
 20
-0
 30
0.0
 11
0.295899
 21
0.00878906
 31
0.0
  0
LINE
  8
0
 62
     0
 10
0.295899
 20
0.00878906
 30
0.0
 11
0.349881
 21
0.0327149
 31
0.0
  0
LINE
  8
0
 62
     0
 10
0.349881
 20
0.0327149
 30
0.0
 11
0.389757
 21
0.0685221
 31
0.0
  0
LINE
  8
0
 62
     0
 10
0.389757
 20
0.0685221
 30
0.0
 11
0.417589
 21
0.112793
 31
0.0
  0
LINE
  8
0
 62
     0
 10
0.417589
 20
0.112793
 30
0.0
 11
0.435493
 21
0.162218
 31
0.0
  0
LINE
  8
0
 62
     0
 10
0.435493
 20
0.162218
 30
0.0
 11
0.445692
 21
0.213325
 31
0.0
  0
LINE
  8
0
 62
     0
 10
0.445692
 20
0.213325
 30
0.0
 11
0.450196
 21
0.262858
 31
0.0
  0
LINE
  8
0
 62
     0
 10
0.450196
 20
0.262858
 30
0.0
 11
0.451281
 21
0.307292
 31
0.0
  0
LINE
  8
0
 62
     0
 10
0.451281
 20
0.307292
 30
0.0
 11
0.451281
 21
0.569661
 31
0.0
  0
LINE
  8
0
 62
     0
 10
0.451281
 20
0.569661
 30
0.0
 11
0.450304
 21
0.591146
 31
0.0
  0
LINE
  8
0
 62
     0
 10
0.450304
 20
0.591146
 30
0.0
 11
0.446235
 21
0.623915
 31
0.0
  0
LINE
  8
0
 62
     0
 10
0.446235
 20
0.623915
 30
0.0
 11
0.437283
 21
0.663519
 31
0.0
  0
LINE
  8
0
 62
     0
 10
0.437283
 20
0.663519
 30
0.0
 11
0.421821
 21
0.705729
 31
0.0
  0
LINE
  8
0
 62
     0
 10
0.421821
 20
0.705729
 30
0.0
 11
0.397949
 21
0.746094
 31
0.0
  0
LINE
  8
0
 62
     0
 10
0.397949
 20
0.746094
 30
0.0
 11
0.364094
 21
0.780328
 31
0.0
  0
LINE
  8
0
 62
     0
 10
0.364094
 20
0.780328
 30
0.0
 11
0.318414
 21
0.80409
 31
0.0
  0
LINE
  8
0
 62
     0
 10
0.318414
 20
0.80409
 30
0.0
 11
0.259224
 21
0.812933
 31
0.0
  0
LINE
  8
0
 62
     0
 10
0.259224
 20
0.812933
 30
0.0
 11
0.224772
 21
0.807943
 31
0.0
  0
LINE
  8
0
 62
     0
 10
0.224772
 20
0.807943
 30
0.0
 11
0.192762
 21
0.794
 31
0.0
  0
LINE
  8
0
 62
     0
 10
0.192762
 20
0.794
 30
0.0
 11
0.169217
 21
0.779514
 31
0.0
  0
LINE
  8
0
 62
     0
 10
0.169217
 20
0.779514
 30
0.0
 11
0.160047
 21
0.772786
 31
0.0
  0
LINE
  8
0
 62
     0
 10
0.160047
 20
0.772786
 30
0.0
 11
0.160047
 21
1.01758
 31
0.0
  0
LINE
  8
0
 62
     0
 10
0.160047
 20
1.01758
 30
0.0
 11
0.428711
 21
1.01758
 31
0.0
  0
LINE
  8
0
 62
     0
 10
0.428711
 20
1.01758
 30
0.0
 11
0.428711
 21
1.1888
 31
0.0
  0
LINE
  8
0
 62
     0
 10
0.428711
 20
1.1888
 30
0.0
 11
0.0111762
 21
1.1888
 31
0.0
  0
LINE
  8
0
 62
     0
 10
0.0111762
 20
1.1888
 30
0.0
 11
0.0111762
 21
0.569661
 31
0.0
  0
LINE
  8
0
 62
     0
 10
0.0111762
 20
0.569661
 30
0.0
 11
0.156793
 21
0.569661
 31
0.0
  0
LINE
  8
0
 62
     0
 10
0.156793
 20
0.569661
 30
0.0
 11
0.161892
 21
0.594618
 31
0.0
  0
LINE
  8
0
 62
     0
 10
0.161892
 20
0.594618
 30
0.0
 11
0.175999
 21
0.623047
 31
0.0
  0
LINE
  8
0
 62
     0
 10
0.175999
 20
0.623047
 30
0.0
 11
0.197319
 21
0.646376
 31
0.0
  0
LINE
  8
0
 62
     0
 10
0.197319
 20
0.646376
 30
0.0
 11
0.224067
 21
0.656033
 31
0.0
  0
LINE
  8
0
 62
     0
 10
0.224067
 20
0.656033
 30
0.0
 11
0.247993
 21
0.649306
 31
0.0
  0
LINE
  8
0
 62
     0
 10
0.247993
 20
0.649306
 30
0.0
 11
0.264919
 21
0.63086
 31
0.0
  0
LINE
  8
0
 62
     0
 10
0.264919
 20
0.63086
 30
0.0
 11
0.274957
 21
0.603407
 31
0.0
  0
LINE
  8
0
 62
     0
 10
0.274957
 20
0.603407
 30
0.0
 11
0.278321
 21
0.569661
 31
0.0
  0
LINE
  8
0
 62
     0
 10
0.278321
 20
0.569661
 30
0.0
 11
0.278321
 21
0.307292
 31
0.0
  0
LINE
  8
0
 62
     0
 10
0.278321
 20
0.307292
 30
0.0
 11
0.275228
 21
0.232801
 31
0.0
  0
LINE
  8
0
 62
     0
 10
0.275228
 20
0.232801
 30
0.0
 11
0.265787
 21
0.184407
 31
0.0
  0
LINE
  8
0
 62
     0
 10
0.265787
 20
0.184407
 30
0.0
 11
0.249349
 21
0.158257
 31
0.0
  0
LINE
  8
0
 62
     0
 10
0.249349
 20
0.158257
 30
0.0
 11
0.225586
 21
0.15039
 31
0.0
  0
LINE
  8
0
 62
     0
 10
0.225586
 20
0.15039
 30
0.0
 11
0.200467
 21
0.158311
 31
0.0
  0
LINE
  8
0
 62
     0
 10
0.200467
 20
0.158311
 30
0.0
 11
0.184244
 21
0.184625
 31
0.0
  0
LINE
  8
0
 62
     0
 10
0.184244
 20
0.184625
 30
0.0
 11
0.175456
 21
0.233453
 31
0.0
  0
LINE
  8
0
 62
     0
 10
0.175456
 20
0.233453
 30
0.0
 11
0.172851
 21
0.308811
 31
0.0
  0
ENDSEC
  0
EOF
