  0
SECTION
  2
HEADER
  9
$ACADVER
  1
AC1009
  9
$EXTMIN
 10
0.0
 20
0.0
 30
0.0
  9
$EXTMAX
 10
1000.0
 20
1000.0
 30
0.0
  9
$FILLMODE
 70
 0
  9
$SPLFRAME
 70
 1
  0
ENDSEC
  0
SECTION
  2
TABLES
  0
TABLE
  2
LAYER
 70
1
  0
LAYER
  2
0
 70
     0
 62
     7
  6
CONTINUOUS
  0
ENDTAB
  0
ENDSEC
  0
SECTION
  2
ENTITIES
  0
LINE
  8
0
 62
     0
 10
0.451172
 20
0.494358
 30
0.0
 11
0.450196
 21
0.523926
 31
0.0
  0
LINE
  8
0
 62
     0
 10
0.450196
 20
0.523926
 30
0.0
 11
0.446126
 21
0.560872
 31
0.0
  0
LINE
  8
0
 62
     0
 10
0.446126
 20
0.560872
 30
0.0
 11
0.437229
 21
0.601779
 31
0.0
  0
LINE
  8
0
 62
     0
 10
0.437229
 20
0.601779
 30
0.0
 11
0.421767
 21
0.643067
 31
0.0
  0
LINE
  8
0
 62
     0
 10
0.421767
 20
0.643067
 30
0.0
 11
0.397949
 21
0.681261
 31
0.0
  0
LINE
  8
0
 62
     0
 10
0.397949
 20
0.681261
 30
0.0
 11
0.364094
 21
0.712944
 31
0.0
  0
LINE
  8
0
 62
     0
 10
0.364094
 20
0.712944
 30
0.0
 11
0.31836
 21
0.734483
 31
0.0
  0
LINE
  8
0
 62
     0
 10
0.31836
 20
0.734483
 30
0.0
 11
0.259114
 21
0.742404
 31
0.0
  0
LINE
  8
0
 62
     0
 10
0.259114
 20
0.742404
 30
0.0
 11
0.215332
 21
0.734592
 31
0.0
  0
LINE
  8
0
 62
     0
 10
0.215332
 20
0.734592
 30
0.0
 11
0.172743
 21
0.713542
 31
0.0
  0
LINE
  8
0
 62
     0
 10
0.172743
 20
0.713542
 30
0.0
 11
0.172743
 21
0.923178
 31
0.0
  0
LINE
  8
0
 62
     0
 10
0.172743
 20
0.923178
 30
0.0
 11
0.174914
 21
0.981011
 31
0.0
  0
LINE
  8
0
 62
     0
 10
0.174914
 20
0.981011
 30
0.0
 11
0.182943
 21
1.02083
 31
0.0
  0
LINE
  8
0
 62
     0
 10
0.182943
 20
1.02083
 30
0.0
 11
0.19911
 21
1.04384
 31
0.0
  0
LINE
  8
0
 62
     0
 10
0.19911
 20
1.04384
 30
0.0
 11
0.225694
 21
1.05122
 31
0.0
  0
LINE
  8
0
 62
     0
 10
0.225694
 20
1.05122
 30
0.0
 11
0.242133
 21
1.0491
 31
0.0
  0
LINE
  8
0
 62
     0
 10
0.242133
 20
1.0491
 30
0.0
 11
0.254775
 21
1.04199
 31
0.0
  0
LINE
  8
0
 62
     0
 10
0.254775
 20
1.04199
 30
0.0
 11
0.264106
 21
1.02924
 31
0.0
  0
LINE
  8
0
 62
     0
 10
0.264106
 20
1.02924
 30
0.0
 11
0.270617
 21
1.00982
 31
0.0
  0
LINE
  8
0
 62
     0
 10
0.270617
 20
1.00982
 30
0.0
 11
0.274739
 21
0.983018
 31
0.0
  0
LINE
  8
0
 62
     0
 10
0.274739
 20
0.983018
 30
0.0
 11
0.277126
 21
0.947971
 31
0.0
  0
LINE
  8
0
 62
     0
 10
0.277126
 20
0.947971
 30
0.0
 11
0.278157
 21
0.903808
 31
0.0
  0
LINE
  8
0
 62
     0
 10
0.278157
 20
0.903808
 30
0.0
 11
0.278429
 21
0.84961
 31
0.0
  0
LINE
  8
0
 62
     0
 10
0.278429
 20
0.84961
 30
0.0
 11
0.451172
 21
0.84961
 31
0.0
  0
LINE
  8
0
 62
     0
 10
0.451172
 20
0.84961
 30
0.0
 11
0.451172
 21
0.923178
 31
0.0
  0
LINE
  8
0
 62
     0
 10
0.451172
 20
0.923178
 30
0.0
 11
0.450304
 21
0.959093
 31
0.0
  0
LINE
  8
0
 62
     0
 10
0.450304
 20
0.959093
 30
0.0
 11
0.446289
 21
1.00184
 31
0.0
  0
LINE
  8
0
 62
     0
 10
0.446289
 20
1.00184
 30
0.0
 11
0.43674
 21
1.04791
 31
0.0
  0
LINE
  8
0
 62
     0
 10
0.43674
 20
1.04791
 30
0.0
 11
0.419379
 21
1.09364
 31
0.0
  0
LINE
  8
0
 62
     0
 10
0.419379
 20
1.09364
 30
0.0
 11
0.391928
 21
1.13552
 31
0.0
  0
LINE
  8
0
 62
     0
 10
0.391928
 20
1.13552
 30
0.0
 11
0.351997
 21
1.16987
 31
0.0
  0
LINE
  8
0
 62
     0
 10
0.351997
 20
1.16987
 30
0.0
 11
0.297364
 21
1.19309
 31
0.0
  0
LINE
  8
0
 62
     0
 10
0.297364
 20
1.19309
 30
0.0
 11
0.225694
 21
1.20161
 31
0.0
  0
LINE
  8
0
 62
     0
 10
0.225694
 20
1.20161
 30
0.0
 11
0.153917
 21
1.19309
 31
0.0
  0
LINE
  8
0
 62
     0
 10
0.153917
 20
1.19309
 30
0.0
 11
0.0992296
 21
1.16987
 31
0.0
  0
LINE
  8
0
 62
     0
 10
0.0992296
 20
1.16987
 30
0.0
 11
0.0592447
 21
1.13552
 31
0.0
  0
LINE
  8
0
 62
     0
 10
0.0592447
 20
1.13552
 30
0.0
 11
0.0317925
 21
1.09364
 31
0.0
  0
LINE
  8
0
 62
     0
 10
0.0317925
 20
1.09364
 30
0.0
 11
0.0143772
 21
1.04791
 31
0.0
  0
LINE
  8
0
 62
     0
 10
0.0143772
 20
1.04791
 30
0.0
 11
0.00482856
 21
1.00184
 31
0.0
  0
LINE
  8
0
 62
     0
 10
0.00482856
 20
1.00184
 30
0.0
 11
0.000813803
 21
0.959093
 31
0.0
  0
LINE
  8
0
 62
     0
 10
0.000813803
 20
0.959093
 30
0.0
 11
0
 21
0.923178
 31
0.0
  0
LINE
  8
0
 62
     0
 10
0
 20
0.923178
 30
0.0
 11
0
 21
0.25434
 31
0.0
  0
LINE
  8
0
 62
     0
 10
0
 20
0.25434
 30
0.0
 11
0.000976563
 21
0.227376
 31
0.0
  0
LINE
  8
0
 62
     0
 10
0.000976563
 20
0.227376
 30
0.0
 11
0.00553386
 21
0.191026
 31
0.0
  0
LINE
  8
0
 62
     0
 10
0.00553386
 20
0.191026
 30
0.0
 11
0.015625
 21
0.149306
 31
0.0
  0
LINE
  8
0
 62
     0
 10
0.015625
 20
0.149306
 30
0.0
 11
0.0335829
 21
0.106174
 31
0.0
  0
LINE
  8
0
 62
     0
 10
0.0335829
 20
0.106174
 30
0.0
 11
0.0613607
 21
0.0657553
 31
0.0
  0
LINE
  8
0
 62
     0
 10
0.0613607
 20
0.0657553
 30
0.0
 11
0.101237
 21
0.0319011
 31
0.0
  0
LINE
  8
0
 62
     0
 10
0.101237
 20
0.0319011
 30
0.0
 11
0.155274
 21
0.00868056
 31
0.0
  0
LINE
  8
0
 62
     0
 10
0.155274
 20
0.00868056
 30
0.0
 11
0.225694
 21
-0
 31
0.0
  0
LINE
  8
0
 62
     0
 10
0.225694
 20
-0
 30
0.0
 11
0.296007
 21
0.00868056
 31
0.0
  0
LINE
  8
0
 62
     0
 10
0.296007
 20
0.00868056
 30
0.0
 11
0.349989
 21
0.0319011
 31
0.0
  0
LINE
  8
0
 62
     0
 10
0.349989
 20
0.0319011
 30
0.0
 11
0.389811
 21
0.0657553
 31
0.0
  0
LINE
  8
0
 62
     0
 10
0.389811
 20
0.0657553
 30
0.0
 11
0.417589
 21
0.106174
 31
0.0
  0
LINE
  8
0
 62
     0
 10
0.417589
 20
0.106174
 30
0.0
 11
0.435493
 21
0.149306
 31
0.0
  0
LINE
  8
0
 62
     0
 10
0.435493
 20
0.149306
 30
0.0
 11
0.445583
 21
0.191026
 31
0.0
  0
LINE
  8
0
 62
     0
 10
0.445583
 20
0.191026
 30
0.0
 11
0.450142
 21
0.227376
 31
0.0
  0
LINE
  8
0
 62
     0
 10
0.450142
 20
0.227376
 30
0.0
 11
0.451172
 21
0.25434
 31
0.0
  0
LINE
  8
0
 62
     0
 10
0.451172
 20
0.25434
 30
0.0
 11
0.451172
 21
0.494358
 31
0.0
  0
LINE
  8
0
 62
     0
 10
0.172743
 20
0.203125
 30
0.0
 11
0.172743
 21
0.560112
 31
0.0
  0
LINE
  8
0
 62
     0
 10
0.172743
 20
0.560112
 30
0.0
 11
0.17654
 21
0.574328
 31
0.0
  0
LINE
  8
0
 62
     0
 10
0.17654
 20
0.574328
 30
0.0
 11
0.186035
 21
0.590061
 31
0.0
  0
LINE
  8
0
 62
     0
 10
0.186035
 20
0.590061
 30
0.0
 11
0.202094
 21
0.60281
 31
0.0
  0
LINE
  8
0
 62
     0
 10
0.202094
 20
0.60281
 30
0.0
 11
0.225694
 21
0.608072
 31
0.0
  0
LINE
  8
0
 62
     0
 10
0.225694
 20
0.608072
 30
0.0
 11
0.249403
 21
0.601887
 31
0.0
  0
LINE
  8
0
 62
     0
 10
0.249403
 20
0.601887
 30
0.0
 11
0.265787
 21
0.587076
 31
0.0
  0
LINE
  8
0
 62
     0
 10
0.265787
 20
0.587076
 30
0.0
 11
0.275336
 21
0.569553
 31
0.0
  0
LINE
  8
0
 62
     0
 10
0.275336
 20
0.569553
 30
0.0
 11
0.278429
 21
0.555122
 31
0.0
  0
LINE
  8
0
 62
     0
 10
0.278429
 20
0.555122
 30
0.0
 11
0.278429
 21
0.203125
 31
0.0
  0
LINE
  8
0
 62
     0
 10
0.278429
 20
0.203125
 30
0.0
 11
0.275336
 21
0.188857
 31
0.0
  0
LINE
  8
0
 62
     0
 10
0.275336
 20
0.188857
 30
0.0
 11
0.265787
 21
0.171386
 31
0.0
  0
LINE
  8
0
 62
     0
 10
0.265787
 20
0.171386
 30
0.0
 11
0.249403
 21
0.156629
 31
0.0
  0
LINE
  8
0
 62
     0
 10
0.249403
 20
0.156629
 30
0.0
 11
0.225694
 21
0.15039
 31
0.0
  0
LINE
  8
0
 62
     0
 10
0.225694
 20
0.15039
 30
0.0
 11
0.200467
 21
0.156629
 31
0.0
  0
LINE
  8
0
 62
     0
 10
0.200467
 20
0.156629
 30
0.0
 11
0.184136
 21
0.171386
 31
0.0
  0
LINE
  8
0
 62
     0
 10
0.184136
 20
0.171386
 30
0.0
 11
0.175347
 21
0.188857
 31
0.0
  0
LINE
  8
0
 62
     0
 10
0.175347
 20
0.188857
 30
0.0
 11
0.172743
 21
0.203125
 31
0.0
  0
ENDSEC
  0
EOF
