  0
SECTION
  2
HEADER
  9
$ACADVER
  1
AC1009
  9
$EXTMIN
 10
0.0
 20
0.0
 30
0.0
  9
$EXTMAX
 10
1000.0
 20
1000.0
 30
0.0
  9
$FILLMODE
 70
 0
  9
$SPLFRAME
 70
 1
  0
ENDSEC
  0
SECTION
  2
TABLES
  0
TABLE
  2
LAYER
 70
1
  0
LAYER
  2
0
 70
     0
 62
     7
  6
CONTINUOUS
  0
ENDTAB
  0
ENDSEC
  0
SECTION
  2
ENTITIES
  0
LINE
  8
0
 62
     0
 10
0.460775
 20
0.401693
 30
0.0
 11
0.438151
 21
0.529081
 31
0.0
  0
LINE
  8
0
 62
     0
 10
0.438151
 20
0.529081
 30
0.0
 11
0.371149
 21
0.633681
 31
0.0
  0
LINE
  8
0
 62
     0
 10
0.371149
 20
0.633681
 30
0.0
 11
0.405979
 21
0.67844
 31
0.0
  0
LINE
  8
0
 62
     0
 10
0.405979
 20
0.67844
 30
0.0
 11
0.431044
 21
0.731392
 31
0.0
  0
LINE
  8
0
 62
     0
 10
0.431044
 20
0.731392
 30
0.0
 11
0.446126
 21
0.789551
 31
0.0
  0
LINE
  8
0
 62
     0
 10
0.446126
 20
0.789551
 30
0.0
 11
0.451226
 21
0.84961
 31
0.0
  0
LINE
  8
0
 62
     0
 10
0.451226
 20
0.84961
 30
0.0
 11
0.451226
 21
0.948785
 31
0.0
  0
LINE
  8
0
 62
     0
 10
0.451226
 20
0.948785
 30
0.0
 11
0.450575
 21
0.968425
 31
0.0
  0
LINE
  8
0
 62
     0
 10
0.450575
 20
0.968425
 30
0.0
 11
0.447103
 21
1.00114
 31
0.0
  0
LINE
  8
0
 62
     0
 10
0.447103
 20
1.00114
 30
0.0
 11
0.438314
 21
1.04216
 31
0.0
  0
LINE
  8
0
 62
     0
 10
0.438314
 20
1.04216
 30
0.0
 11
0.421821
 21
1.08659
 31
0.0
  0
LINE
  8
0
 62
     0
 10
0.421821
 20
1.08659
 30
0.0
 11
0.395182
 21
1.12967
 31
0.0
  0
LINE
  8
0
 62
     0
 10
0.395182
 20
1.12967
 30
0.0
 11
0.356011
 21
1.1664
 31
0.0
  0
LINE
  8
0
 62
     0
 10
0.356011
 20
1.1664
 30
0.0
 11
0.301812
 21
1.192
 31
0.0
  0
LINE
  8
0
 62
     0
 10
0.301812
 20
1.192
 30
0.0
 11
0.230306
 21
1.20161
 31
0.0
  0
LINE
  8
0
 62
     0
 10
0.230306
 20
1.20161
 30
0.0
 11
0.1588
 21
1.192
 31
0.0
  0
LINE
  8
0
 62
     0
 10
0.1588
 20
1.192
 30
0.0
 11
0.104709
 21
1.1664
 31
0.0
  0
LINE
  8
0
 62
     0
 10
0.104709
 20
1.1664
 30
0.0
 11
0.0655382
 21
1.12967
 31
0.0
  0
LINE
  8
0
 62
     0
 10
0.0655382
 20
1.12967
 30
0.0
 11
0.038954
 21
1.08659
 31
0.0
  0
LINE
  8
0
 62
     0
 10
0.038954
 20
1.08659
 30
0.0
 11
0.022461
 21
1.04216
 31
0.0
  0
LINE
  8
0
 62
     0
 10
0.022461
 20
1.04216
 30
0.0
 11
0.0136719
 21
1.00114
 31
0.0
  0
LINE
  8
0
 62
     0
 10
0.0136719
 20
1.00114
 30
0.0
 11
0.0101997
 21
0.968425
 31
0.0
  0
LINE
  8
0
 62
     0
 10
0.0101997
 20
0.968425
 30
0.0
 11
0.00960286
 21
0.948785
 31
0.0
  0
LINE
  8
0
 62
     0
 10
0.00960286
 20
0.948785
 30
0.0
 11
0.00960286
 21
0.84961
 31
0.0
  0
LINE
  8
0
 62
     0
 10
0.00960286
 20
0.84961
 30
0.0
 11
0.0146485
 21
0.789551
 31
0.0
  0
LINE
  8
0
 62
     0
 10
0.0146485
 20
0.789551
 30
0.0
 11
0.0297851
 21
0.731392
 31
0.0
  0
LINE
  8
0
 62
     0
 10
0.0297851
 20
0.731392
 30
0.0
 11
0.054796
 21
0.67844
 31
0.0
  0
LINE
  8
0
 62
     0
 10
0.054796
 20
0.67844
 30
0.0
 11
0.089681
 21
0.633681
 31
0.0
  0
LINE
  8
0
 62
     0
 10
0.089681
 20
0.633681
 30
0.0
 11
0.0226237
 21
0.529081
 31
0.0
  0
LINE
  8
0
 62
     0
 10
0.0226237
 20
0.529081
 30
0.0
 11
5.42535e-05
 21
0.401693
 31
0.0
  0
LINE
  8
0
 62
     0
 10
5.42535e-05
 20
0.401693
 30
0.0
 11
5.42535e-05
 21
0.264106
 31
0.0
  0
LINE
  8
0
 62
     0
 10
5.42535e-05
 20
0.264106
 30
0.0
 11
0.000651042
 21
0.243544
 31
0.0
  0
LINE
  8
0
 62
     0
 10
0.000651042
 20
0.243544
 30
0.0
 11
0.00428603
 21
0.20931
 31
0.0
  0
LINE
  8
0
 62
     0
 10
0.00428603
 20
0.20931
 30
0.0
 11
0.0134549
 21
0.16645
 31
0.0
  0
LINE
  8
0
 62
     0
 10
0.0134549
 20
0.16645
 30
0.0
 11
0.0305989
 21
0.120009
 31
0.0
  0
LINE
  8
0
 62
     0
 10
0.0305989
 20
0.120009
 30
0.0
 11
0.0583225
 21
0.0751411
 31
0.0
  0
LINE
  8
0
 62
     0
 10
0.0583225
 20
0.0751411
 30
0.0
 11
0.0991753
 21
0.0367839
 31
0.0
  0
LINE
  8
0
 62
     0
 10
0.0991753
 20
0.0367839
 30
0.0
 11
0.155653
 21
0.0100369
 31
0.0
  0
LINE
  8
0
 62
     0
 10
0.155653
 20
0.0100369
 30
0.0
 11
0.230306
 21
-0
 31
0.0
  0
LINE
  8
0
 62
     0
 10
0.230306
 20
-0
 30
0.0
 11
0.304958
 21
0.0100369
 31
0.0
  0
LINE
  8
0
 62
     0
 10
0.304958
 20
0.0100369
 30
0.0
 11
0.36149
 21
0.0367839
 31
0.0
  0
LINE
  8
0
 62
     0
 10
0.36149
 20
0.0367839
 30
0.0
 11
0.402399
 21
0.0751411
 31
0.0
  0
LINE
  8
0
 62
     0
 10
0.402399
 20
0.0751411
 30
0.0
 11
0.430176
 21
0.120009
 31
0.0
  0
LINE
  8
0
 62
     0
 10
0.430176
 20
0.120009
 30
0.0
 11
0.447319
 21
0.16645
 31
0.0
  0
LINE
  8
0
 62
     0
 10
0.447319
 20
0.16645
 30
0.0
 11
0.456489
 21
0.20931
 31
0.0
  0
LINE
  8
0
 62
     0
 10
0.456489
 20
0.20931
 30
0.0
 11
0.460124
 21
0.243544
 31
0.0
  0
LINE
  8
0
 62
     0
 10
0.460124
 20
0.243544
 30
0.0
 11
0.460775
 21
0.264106
 31
0.0
  0
LINE
  8
0
 62
     0
 10
0.460775
 20
0.264106
 30
0.0
 11
0.460775
 21
0.401693
 31
0.0
  0
LINE
  8
0
 62
     0
 10
0.292806
 20
0.3329
 30
0.0
 11
0.291342
 21
0.259711
 31
0.0
  0
LINE
  8
0
 62
     0
 10
0.291342
 20
0.259711
 30
0.0
 11
0.283746
 21
0.204807
 31
0.0
  0
LINE
  8
0
 62
     0
 10
0.283746
 20
0.204807
 30
0.0
 11
0.265028
 21
0.17041
 31
0.0
  0
LINE
  8
0
 62
     0
 10
0.265028
 20
0.17041
 30
0.0
 11
0.230306
 21
0.158419
 31
0.0
  0
LINE
  8
0
 62
     0
 10
0.230306
 20
0.158419
 30
0.0
 11
0.199869
 21
0.167914
 31
0.0
  0
LINE
  8
0
 62
     0
 10
0.199869
 20
0.167914
 30
0.0
 11
0.181153
 21
0.198242
 31
0.0
  0
LINE
  8
0
 62
     0
 10
0.181153
 20
0.198242
 30
0.0
 11
0.171386
 21
0.252279
 31
0.0
  0
LINE
  8
0
 62
     0
 10
0.171386
 20
0.252279
 30
0.0
 11
0.168024
 21
0.3329
 31
0.0
  0
LINE
  8
0
 62
     0
 10
0.168024
 20
0.3329
 30
0.0
 11
0.169433
 21
0.42475
 31
0.0
  0
LINE
  8
0
 62
     0
 10
0.169433
 20
0.42475
 30
0.0
 11
0.177029
 21
0.489583
 31
0.0
  0
LINE
  8
0
 62
     0
 10
0.177029
 20
0.489583
 30
0.0
 11
0.195638
 21
0.528103
 31
0.0
  0
LINE
  8
0
 62
     0
 10
0.195638
 20
0.528103
 30
0.0
 11
0.230306
 21
0.540799
 31
0.0
  0
LINE
  8
0
 62
     0
 10
0.230306
 20
0.540799
 30
0.0
 11
0.265028
 21
0.528103
 31
0.0
  0
LINE
  8
0
 62
     0
 10
0.265028
 20
0.528103
 30
0.0
 11
0.283746
 21
0.489583
 31
0.0
  0
LINE
  8
0
 62
     0
 10
0.283746
 20
0.489583
 30
0.0
 11
0.291342
 21
0.42475
 31
0.0
  0
LINE
  8
0
 62
     0
 10
0.291342
 20
0.42475
 30
0.0
 11
0.292806
 21
0.3329
 31
0.0
  0
LINE
  8
0
 62
     0
 10
0.281521
 20
0.888021
 30
0.0
 11
0.279785
 21
0.808322
 31
0.0
  0
LINE
  8
0
 62
     0
 10
0.279785
 20
0.808322
 30
0.0
 11
0.272732
 21
0.753039
 31
0.0
  0
LINE
  8
0
 62
     0
 10
0.272732
 20
0.753039
 30
0.0
 11
0.257215
 21
0.720919
 31
0.0
  0
LINE
  8
0
 62
     0
 10
0.257215
 20
0.720919
 30
0.0
 11
0.230306
 21
0.710503
 31
0.0
  0
LINE
  8
0
 62
     0
 10
0.230306
 20
0.710503
 30
0.0
 11
0.203396
 21
0.720919
 31
0.0
  0
LINE
  8
0
 62
     0
 10
0.203396
 20
0.720919
 30
0.0
 11
0.187933
 21
0.753039
 31
0.0
  0
LINE
  8
0
 62
     0
 10
0.187933
 20
0.753039
 30
0.0
 11
0.180772
 21
0.808322
 31
0.0
  0
LINE
  8
0
 62
     0
 10
0.180772
 20
0.808322
 30
0.0
 11
0.17909
 21
0.888021
 31
0.0
  0
LINE
  8
0
 62
     0
 10
0.17909
 20
0.888021
 30
0.0
 11
0.1824
 21
0.964572
 31
0.0
  0
LINE
  8
0
 62
     0
 10
0.1824
 20
0.964572
 30
0.0
 11
0.190918
 21
1.01443
 31
0.0
  0
LINE
  8
0
 62
     0
 10
0.190918
 20
1.01443
 30
0.0
 11
0.206326
 21
1.04156
 31
0.0
  0
LINE
  8
0
 62
     0
 10
0.206326
 20
1.04156
 30
0.0
 11
0.230306
 21
1.0497
 31
0.0
  0
LINE
  8
0
 62
     0
 10
0.230306
 20
1.0497
 30
0.0
 11
0.257215
 21
1.03955
 31
0.0
  0
LINE
  8
0
 62
     0
 10
0.257215
 20
1.03955
 30
0.0
 11
0.272732
 21
1.00906
 31
0.0
  0
LINE
  8
0
 62
     0
 10
0.272732
 20
1.00906
 30
0.0
 11
0.279785
 21
0.95855
 31
0.0
  0
LINE
  8
0
 62
     0
 10
0.279785
 20
0.95855
 30
0.0
 11
0.281521
 21
0.888021
 31
0.0
  0
ENDSEC
  0
EOF
