  0
SECTION
  2
HEADER
  9
$ACADVER
  1
AC1009
  9
$EXTMIN
 10
0.0
 20
0.0
 30
0.0
  9
$EXTMAX
 10
1000.0
 20
1000.0
 30
0.0
  9
$FILLMODE
 70
 0
  9
$SPLFRAME
 70
 1
  0
ENDSEC
  0
SECTION
  2
TABLES
  0
TABLE
  2
LAYER
 70
1
  0
LAYER
  2
0
 70
     0
 62
     7
  6
CONTINUOUS
  0
ENDTAB
  0
ENDSEC
  0
SECTION
  2
ENTITIES
  0
LINE
  8
0
 62
     0
 10
-0.000108507
 20
0.718317
 30
0.0
 11
0.000813803
 21
0.688857
 31
0.0
  0
LINE
  8
0
 62
     0
 10
0.000813803
 20
0.688857
 30
0.0
 11
0.00493707
 21
0.651964
 31
0.0
  0
LINE
  8
0
 62
     0
 10
0.00493707
 20
0.651964
 30
0.0
 11
0.0138346
 21
0.611111
 31
0.0
  0
LINE
  8
0
 62
     0
 10
0.0138346
 20
0.611111
 30
0.0
 11
0.0293511
 21
0.569824
 31
0.0
  0
LINE
  8
0
 62
     0
 10
0.0293511
 20
0.569824
 30
0.0
 11
0.0531683
 21
0.531629
 31
0.0
  0
LINE
  8
0
 62
     0
 10
0.0531683
 20
0.531629
 30
0.0
 11
0.0870225
 21
0.5
 31
0.0
  0
LINE
  8
0
 62
     0
 10
0.0870225
 20
0.5
 30
0.0
 11
0.132704
 21
0.478461
 31
0.0
  0
LINE
  8
0
 62
     0
 10
0.132704
 20
0.478461
 30
0.0
 11
0.191949
 21
0.470486
 31
0.0
  0
LINE
  8
0
 62
     0
 10
0.191949
 20
0.470486
 30
0.0
 11
0.235786
 21
0.478244
 31
0.0
  0
LINE
  8
0
 62
     0
 10
0.235786
 20
0.478244
 30
0.0
 11
0.278321
 21
0.499132
 31
0.0
  0
LINE
  8
0
 62
     0
 10
0.278321
 20
0.499132
 30
0.0
 11
0.278321
 21
0.278429
 31
0.0
  0
LINE
  8
0
 62
     0
 10
0.278321
 20
0.278429
 30
0.0
 11
0.27615
 21
0.220649
 31
0.0
  0
LINE
  8
0
 62
     0
 10
0.27615
 20
0.220649
 30
0.0
 11
0.268121
 21
0.180826
 31
0.0
  0
LINE
  8
0
 62
     0
 10
0.268121
 20
0.180826
 30
0.0
 11
0.252007
 21
0.157824
 31
0.0
  0
LINE
  8
0
 62
     0
 10
0.252007
 20
0.157824
 30
0.0
 11
0.225586
 21
0.15039
 31
0.0
  0
LINE
  8
0
 62
     0
 10
0.225586
 20
0.15039
 30
0.0
 11
0.209039
 21
0.152561
 31
0.0
  0
LINE
  8
0
 62
     0
 10
0.209039
 20
0.152561
 30
0.0
 11
0.196343
 21
0.159614
 31
0.0
  0
LINE
  8
0
 62
     0
 10
0.196343
 20
0.159614
 30
0.0
 11
0.187011
 21
0.172418
 31
0.0
  0
LINE
  8
0
 62
     0
 10
0.187011
 20
0.172418
 30
0.0
 11
0.180556
 21
0.191786
 31
0.0
  0
LINE
  8
0
 62
     0
 10
0.180556
 20
0.191786
 30
0.0
 11
0.176432
 21
0.218642
 31
0.0
  0
LINE
  8
0
 62
     0
 10
0.176432
 20
0.218642
 30
0.0
 11
0.1741
 21
0.253689
 31
0.0
  0
LINE
  8
0
 62
     0
 10
0.1741
 20
0.253689
 30
0.0
 11
0.173068
 21
0.297851
 31
0.0
  0
LINE
  8
0
 62
     0
 10
0.173068
 20
0.297851
 30
0.0
 11
0.172851
 21
0.351997
 31
0.0
  0
LINE
  8
0
 62
     0
 10
0.172851
 20
0.351997
 30
0.0
 11
-0.000108507
 21
0.351997
 31
0.0
  0
LINE
  8
0
 62
     0
 10
-0.000108507
 20
0.351997
 30
0.0
 11
-0.000108507
 21
0.278429
 31
0.0
  0
LINE
  8
0
 62
     0
 10
-0.000108507
 20
0.278429
 30
0.0
 11
0.000705294
 21
0.242622
 31
0.0
  0
LINE
  8
0
 62
     0
 10
0.000705294
 20
0.242622
 30
0.0
 11
0.00477431
 21
0.199869
 31
0.0
  0
LINE
  8
0
 62
     0
 10
0.00477431
 20
0.199869
 30
0.0
 11
0.0143229
 21
0.153808
 31
0.0
  0
LINE
  8
0
 62
     0
 10
0.0143229
 20
0.153808
 30
0.0
 11
0.0317383
 21
0.108073
 31
0.0
  0
LINE
  8
0
 62
     0
 10
0.0317383
 20
0.108073
 30
0.0
 11
0.0592447
 21
0.0661892
 31
0.0
  0
LINE
  8
0
 62
     0
 10
0.0592447
 20
0.0661892
 30
0.0
 11
0.0991753
 21
0.0318468
 31
0.0
  0
LINE
  8
0
 62
     0
 10
0.0991753
 20
0.0318468
 30
0.0
 11
0.153863
 21
0.00857206
 31
0.0
  0
LINE
  8
0
 62
     0
 10
0.153863
 20
0.00857206
 30
0.0
 11
0.225586
 21
-0
 31
0.0
  0
LINE
  8
0
 62
     0
 10
0.225586
 20
-0
 30
0.0
 11
0.297254
 21
0.00857206
 31
0.0
  0
LINE
  8
0
 62
     0
 10
0.297254
 20
0.00857206
 30
0.0
 11
0.351942
 21
0.0318468
 31
0.0
  0
LINE
  8
0
 62
     0
 10
0.351942
 20
0.0318468
 30
0.0
 11
0.391872
 21
0.0661892
 31
0.0
  0
LINE
  8
0
 62
     0
 10
0.391872
 20
0.0661892
 30
0.0
 11
0.419379
 21
0.108073
 31
0.0
  0
LINE
  8
0
 62
     0
 10
0.419379
 20
0.108073
 30
0.0
 11
0.436794
 21
0.153808
 31
0.0
  0
LINE
  8
0
 62
     0
 10
0.436794
 20
0.153808
 30
0.0
 11
0.446343
 21
0.199869
 31
0.0
  0
LINE
  8
0
 62
     0
 10
0.446343
 20
0.199869
 30
0.0
 11
0.450412
 21
0.242622
 31
0.0
  0
LINE
  8
0
 62
     0
 10
0.450412
 20
0.242622
 30
0.0
 11
0.451281
 21
0.278429
 31
0.0
  0
LINE
  8
0
 62
     0
 10
0.451281
 20
0.278429
 30
0.0
 11
0.451281
 21
0.947265
 31
0.0
  0
LINE
  8
0
 62
     0
 10
0.451281
 20
0.947265
 30
0.0
 11
0.450196
 21
0.974283
 31
0.0
  0
LINE
  8
0
 62
     0
 10
0.450196
 20
0.974283
 30
0.0
 11
0.445692
 21
1.01063
 31
0.0
  0
LINE
  8
0
 62
     0
 10
0.445692
 20
1.01063
 30
0.0
 11
0.435493
 21
1.05235
 31
0.0
  0
LINE
  8
0
 62
     0
 10
0.435493
 20
1.05235
 30
0.0
 11
0.417589
 21
1.09543
 31
0.0
  0
LINE
  8
0
 62
     0
 10
0.417589
 20
1.09543
 30
0.0
 11
0.389757
 21
1.13591
 31
0.0
  0
LINE
  8
0
 62
     0
 10
0.389757
 20
1.13591
 30
0.0
 11
0.349881
 21
1.16976
 31
0.0
  0
LINE
  8
0
 62
     0
 10
0.349881
 20
1.16976
 30
0.0
 11
0.295899
 21
1.19298
 31
0.0
  0
LINE
  8
0
 62
     0
 10
0.295899
 20
1.19298
 30
0.0
 11
0.225586
 21
1.20161
 31
0.0
  0
LINE
  8
0
 62
     0
 10
0.225586
 20
1.20161
 30
0.0
 11
0.155219
 21
1.19298
 31
0.0
  0
LINE
  8
0
 62
     0
 10
0.155219
 20
1.19298
 30
0.0
 11
0.101237
 21
1.16976
 31
0.0
  0
LINE
  8
0
 62
     0
 10
0.101237
 20
1.16976
 30
0.0
 11
0.0613607
 21
1.13591
 31
0.0
  0
LINE
  8
0
 62
     0
 10
0.0613607
 20
1.13591
 30
0.0
 11
0.0335286
 21
1.09543
 31
0.0
  0
LINE
  8
0
 62
     0
 10
0.0335286
 20
1.09543
 30
0.0
 11
0.015625
 21
1.05235
 31
0.0
  0
LINE
  8
0
 62
     0
 10
0.015625
 20
1.05235
 30
0.0
 11
0.00542535
 21
1.01063
 31
0.0
  0
LINE
  8
0
 62
     0
 10
0.00542535
 20
1.01063
 30
0.0
 11
0.000922308
 21
0.974283
 31
0.0
  0
LINE
  8
0
 62
     0
 10
0.000922308
 20
0.974283
 30
0.0
 11
-0.000108507
 21
0.947265
 31
0.0
  0
LINE
  8
0
 62
     0
 10
-0.000108507
 20
0.947265
 30
0.0
 11
-0.000108507
 21
0.718317
 31
0.0
  0
LINE
  8
0
 62
     0
 10
0.278321
 20
0.652778
 30
0.0
 11
0.274576
 21
0.63851
 31
0.0
  0
LINE
  8
0
 62
     0
 10
0.274576
 20
0.63851
 30
0.0
 11
0.265192
 21
0.622775
 31
0.0
  0
LINE
  8
0
 62
     0
 10
0.265192
 20
0.622775
 30
0.0
 11
0.249132
 21
0.610081
 31
0.0
  0
LINE
  8
0
 62
     0
 10
0.249132
 20
0.610081
 30
0.0
 11
0.225586
 21
0.604818
 31
0.0
  0
LINE
  8
0
 62
     0
 10
0.225586
 20
0.604818
 30
0.0
 11
0.201768
 21
0.611057
 31
0.0
  0
LINE
  8
0
 62
     0
 10
0.201768
 20
0.611057
 30
0.0
 11
0.185385
 21
0.625814
 31
0.0
  0
LINE
  8
0
 62
     0
 10
0.185385
 20
0.625814
 30
0.0
 11
0.17589
 21
0.643283
 31
0.0
  0
LINE
  8
0
 62
     0
 10
0.17589
 20
0.643283
 30
0.0
 11
0.172851
 21
0.657553
 31
0.0
  0
LINE
  8
0
 62
     0
 10
0.172851
 20
0.657553
 30
0.0
 11
0.172851
 21
0.998481
 31
0.0
  0
LINE
  8
0
 62
     0
 10
0.172851
 20
0.998481
 30
0.0
 11
0.17589
 21
1.0128
 31
0.0
  0
LINE
  8
0
 62
     0
 10
0.17589
 20
1.0128
 30
0.0
 11
0.185385
 21
1.03022
 31
0.0
  0
LINE
  8
0
 62
     0
 10
0.185385
 20
1.03022
 30
0.0
 11
0.201768
 21
1.04503
 31
0.0
  0
LINE
  8
0
 62
     0
 10
0.201768
 20
1.04503
 30
0.0
 11
0.225586
 21
1.05122
 31
0.0
  0
LINE
  8
0
 62
     0
 10
0.225586
 20
1.05122
 30
0.0
 11
0.250651
 21
1.04503
 31
0.0
  0
LINE
  8
0
 62
     0
 10
0.250651
 20
1.04503
 30
0.0
 11
0.266928
 21
1.03022
 31
0.0
  0
LINE
  8
0
 62
     0
 10
0.266928
 20
1.03022
 30
0.0
 11
0.275663
 21
1.0128
 31
0.0
  0
LINE
  8
0
 62
     0
 10
0.275663
 20
1.0128
 30
0.0
 11
0.278321
 21
0.998481
 31
0.0
  0
LINE
  8
0
 62
     0
 10
0.278321
 20
0.998481
 30
0.0
 11
0.278321
 21
0.652778
 31
0.0
  0
ENDSEC
  0
EOF
