  0
SECTION
  2
HEADER
  9
$ACADVER
  1
AC1009
  9
$EXTMIN
 10
0.0
 20
0.0
 30
0.0
  9
$EXTMAX
 10
1000.0
 20
1000.0
 30
0.0
  9
$FILLMODE
 70
 0
  9
$SPLFRAME
 70
 1
  0
ENDSEC
  0
SECTION
  2
TABLES
  0
TABLE
  2
LAYER
 70
1
  0
LAYER
  2
0
 70
     0
 62
     7
  6
CONTINUOUS
  0
ENDTAB
  0
ENDSEC
  0
SECTION
  2
ENTITIES
  0
LINE
  8
0
 62
     0
 10
0.585503
 20
0.944011
 30
0.0
 11
0.582519
 21
0.97716
 31
0.0
  0
LINE
  8
0
 62
     0
 10
0.582519
 20
0.97716
 30
0.0
 11
0.572808
 21
1.01671
 31
0.0
  0
LINE
  8
0
 62
     0
 10
0.572808
 20
1.01671
 30
0.0
 11
0.55485
 21
1.0593
 31
0.0
  0
LINE
  8
0
 62
     0
 10
0.55485
 20
1.0593
 30
0.0
 11
0.527344
 21
1.10162
 31
0.0
  0
LINE
  8
0
 62
     0
 10
0.527344
 20
1.10162
 30
0.0
 11
0.488715
 21
1.14041
 31
0.0
  0
LINE
  8
0
 62
     0
 10
0.488715
 20
1.14041
 30
0.0
 11
0.437717
 21
1.1722
 31
0.0
  0
LINE
  8
0
 62
     0
 10
0.437717
 20
1.1722
 30
0.0
 11
0.372831
 21
1.19374
 31
0.0
  0
LINE
  8
0
 62
     0
 10
0.372831
 20
1.19374
 30
0.0
 11
0.292751
 21
1.20161
 31
0.0
  0
LINE
  8
0
 62
     0
 10
0.292751
 20
1.20161
 30
0.0
 11
0.212619
 21
1.19374
 31
0.0
  0
LINE
  8
0
 62
     0
 10
0.212619
 20
1.19374
 30
0.0
 11
0.147732
 21
1.1722
 31
0.0
  0
LINE
  8
0
 62
     0
 10
0.147732
 20
1.1722
 30
0.0
 11
0.0967339
 21
1.14041
 31
0.0
  0
LINE
  8
0
 62
     0
 10
0.0967339
 20
1.14041
 30
0.0
 11
0.0581597
 21
1.10162
 31
0.0
  0
LINE
  8
0
 62
     0
 10
0.0581597
 20
1.10162
 30
0.0
 11
0.0305989
 21
1.0593
 31
0.0
  0
LINE
  8
0
 62
     0
 10
0.0305989
 20
1.0593
 30
0.0
 11
0.0126411
 21
1.01671
 31
0.0
  0
LINE
  8
0
 62
     0
 10
0.0126411
 20
1.01671
 30
0.0
 11
0.00292969
 21
0.97716
 31
0.0
  0
LINE
  8
0
 62
     0
 10
0.00292969
 20
0.97716
 30
0.0
 11
0
 21
0.944011
 31
0.0
  0
LINE
  8
0
 62
     0
 10
0
 20
0.944011
 30
0.0
 11
0
 21
0.249567
 31
0.0
  0
LINE
  8
0
 62
     0
 10
0
 20
0.249567
 30
0.0
 11
0.00292969
 21
0.217774
 31
0.0
  0
LINE
  8
0
 62
     0
 10
0.00292969
 20
0.217774
 30
0.0
 11
0.0126411
 21
0.179579
 31
0.0
  0
LINE
  8
0
 62
     0
 10
0.0126411
 20
0.179579
 30
0.0
 11
0.0305989
 21
0.138292
 31
0.0
  0
LINE
  8
0
 62
     0
 10
0.0305989
 20
0.138292
 30
0.0
 11
0.0581597
 21
0.0972222
 31
0.0
  0
LINE
  8
0
 62
     0
 10
0.0581597
 20
0.0972222
 30
0.0
 11
0.0967339
 21
0.0595703
 31
0.0
  0
LINE
  8
0
 62
     0
 10
0.0967339
 20
0.0595703
 30
0.0
 11
0.147732
 21
0.0287001
 31
0.0
  0
LINE
  8
0
 62
     0
 10
0.147732
 20
0.0287001
 30
0.0
 11
0.212619
 21
0.00775825
 31
0.0
  0
LINE
  8
0
 62
     0
 10
0.212619
 20
0.00775825
 30
0.0
 11
0.292751
 21
-0
 31
0.0
  0
LINE
  8
0
 62
     0
 10
0.292751
 20
-0
 30
0.0
 11
0.382433
 21
0.00944011
 31
0.0
  0
LINE
  8
0
 62
     0
 10
0.382433
 20
0.00944011
 30
0.0
 11
0.451768
 21
0.034451
 31
0.0
  0
LINE
  8
0
 62
     0
 10
0.451768
 20
0.034451
 30
0.0
 11
0.504015
 21
0.0702582
 31
0.0
  0
LINE
  8
0
 62
     0
 10
0.504015
 20
0.0702582
 30
0.0
 11
0.542318
 21
0.111979
 31
0.0
  0
LINE
  8
0
 62
     0
 10
0.542318
 20
0.111979
 30
0.0
 11
0.424044
 21
0.179253
 31
0.0
  0
LINE
  8
0
 62
     0
 10
0.424044
 20
0.179253
 30
0.0
 11
0.402399
 21
0.157986
 31
0.0
  0
LINE
  8
0
 62
     0
 10
0.402399
 20
0.157986
 30
0.0
 11
0.374567
 21
0.142361
 31
0.0
  0
LINE
  8
0
 62
     0
 10
0.374567
 20
0.142361
 30
0.0
 11
0.33865
 21
0.132813
 31
0.0
  0
LINE
  8
0
 62
     0
 10
0.33865
 20
0.132813
 30
0.0
 11
0.292751
 21
0.129557
 31
0.0
  0
LINE
  8
0
 62
     0
 10
0.292751
 20
0.129557
 30
0.0
 11
0.251899
 21
0.133192
 31
0.0
  0
LINE
  8
0
 62
     0
 10
0.251899
 20
0.133192
 30
0.0
 11
0.218858
 21
0.142958
 31
0.0
  0
LINE
  8
0
 62
     0
 10
0.218858
 20
0.142958
 30
0.0
 11
0.192925
 21
0.157443
 31
0.0
  0
LINE
  8
0
 62
     0
 10
0.192925
 20
0.157443
 30
0.0
 11
0.173394
 21
0.175185
 31
0.0
  0
LINE
  8
0
 62
     0
 10
0.173394
 20
0.175185
 30
0.0
 11
0.159451
 21
0.194715
 31
0.0
  0
LINE
  8
0
 62
     0
 10
0.159451
 20
0.194715
 30
0.0
 11
0.150444
 21
0.214626
 31
0.0
  0
LINE
  8
0
 62
     0
 10
0.150444
 20
0.214626
 30
0.0
 11
0.145563
 21
0.233399
 31
0.0
  0
LINE
  8
0
 62
     0
 10
0.145563
 20
0.233399
 30
0.0
 11
0.144097
 21
0.249567
 31
0.0
  0
LINE
  8
0
 62
     0
 10
0.144097
 20
0.249567
 30
0.0
 11
0.144097
 21
0.944011
 31
0.0
  0
LINE
  8
0
 62
     0
 10
0.144097
 20
0.944011
 30
0.0
 11
0.145563
 21
0.959418
 31
0.0
  0
LINE
  8
0
 62
     0
 10
0.145563
 20
0.959418
 30
0.0
 11
0.150444
 21
0.978136
 31
0.0
  0
LINE
  8
0
 62
     0
 10
0.150444
 20
0.978136
 30
0.0
 11
0.159451
 21
0.998481
 31
0.0
  0
LINE
  8
0
 62
     0
 10
0.159451
 20
0.998481
 30
0.0
 11
0.173394
 21
1.01883
 31
0.0
  0
LINE
  8
0
 62
     0
 10
0.173394
 20
1.01883
 30
0.0
 11
0.192925
 21
1.03754
 31
0.0
  0
LINE
  8
0
 62
     0
 10
0.192925
 20
1.03754
 30
0.0
 11
0.218858
 21
1.05301
 31
0.0
  0
LINE
  8
0
 62
     0
 10
0.218858
 20
1.05301
 30
0.0
 11
0.251899
 21
1.06342
 31
0.0
  0
LINE
  8
0
 62
     0
 10
0.251899
 20
1.06342
 30
0.0
 11
0.292751
 21
1.06728
 31
0.0
  0
LINE
  8
0
 62
     0
 10
0.292751
 20
1.06728
 30
0.0
 11
0.33355
 21
1.06342
 31
0.0
  0
LINE
  8
0
 62
     0
 10
0.33355
 20
1.06342
 30
0.0
 11
0.36659
 21
1.05301
 31
0.0
  0
LINE
  8
0
 62
     0
 10
0.36659
 20
1.05301
 30
0.0
 11
0.392578
 21
1.03754
 31
0.0
  0
LINE
  8
0
 62
     0
 10
0.392578
 20
1.03754
 30
0.0
 11
0.412164
 21
1.01883
 31
0.0
  0
LINE
  8
0
 62
     0
 10
0.412164
 20
1.01883
 30
0.0
 11
0.426161
 21
0.998481
 31
0.0
  0
LINE
  8
0
 62
     0
 10
0.426161
 20
0.998481
 30
0.0
 11
0.435221
 21
0.978136
 31
0.0
  0
LINE
  8
0
 62
     0
 10
0.435221
 20
0.978136
 30
0.0
 11
0.440104
 21
0.959418
 31
0.0
  0
LINE
  8
0
 62
     0
 10
0.440104
 20
0.959418
 30
0.0
 11
0.441624
 21
0.944011
 31
0.0
  0
LINE
  8
0
 62
     0
 10
0.441624
 20
0.944011
 30
0.0
 11
0.441624
 21
0.908854
 31
0.0
  0
LINE
  8
0
 62
     0
 10
0.441624
 20
0.908854
 30
0.0
 11
0.436632
 21
0.9171
 31
0.0
  0
LINE
  8
0
 62
     0
 10
0.436632
 20
0.9171
 30
0.0
 11
0.421007
 21
0.935221
 31
0.0
  0
LINE
  8
0
 62
     0
 10
0.421007
 20
0.935221
 30
0.0
 11
0.393608
 21
0.953396
 31
0.0
  0
LINE
  8
0
 62
     0
 10
0.393608
 20
0.953396
 30
0.0
 11
0.353515
 21
0.961589
 31
0.0
  0
LINE
  8
0
 62
     0
 10
0.353515
 20
0.961589
 30
0.0
 11
0.300076
 21
0.95101
 31
0.0
  0
LINE
  8
0
 62
     0
 10
0.300076
 20
0.95101
 30
0.0
 11
0.265028
 21
0.9222
 31
0.0
  0
LINE
  8
0
 62
     0
 10
0.265028
 20
0.9222
 30
0.0
 11
0.245822
 21
0.879937
 31
0.0
  0
LINE
  8
0
 62
     0
 10
0.245822
 20
0.879937
 30
0.0
 11
0.240017
 21
0.828776
 31
0.0
  0
LINE
  8
0
 62
     0
 10
0.240017
 20
0.828776
 30
0.0
 11
0.240017
 21
0.449653
 31
0.0
  0
LINE
  8
0
 62
     0
 10
0.240017
 20
0.449653
 30
0.0
 11
0.245822
 21
0.397624
 31
0.0
  0
LINE
  8
0
 62
     0
 10
0.245822
 20
0.397624
 30
0.0
 11
0.265028
 21
0.354818
 31
0.0
  0
LINE
  8
0
 62
     0
 10
0.265028
 20
0.354818
 30
0.0
 11
0.300076
 21
0.325792
 31
0.0
  0
LINE
  8
0
 62
     0
 10
0.300076
 20
0.325792
 30
0.0
 11
0.353515
 21
0.315104
 31
0.0
  0
LINE
  8
0
 62
     0
 10
0.353515
 20
0.315104
 30
0.0
 11
0.393608
 21
0.323406
 31
0.0
  0
LINE
  8
0
 62
     0
 10
0.393608
 20
0.323406
 30
0.0
 11
0.421007
 21
0.341581
 31
0.0
  0
LINE
  8
0
 62
     0
 10
0.421007
 20
0.341581
 30
0.0
 11
0.436632
 21
0.359808
 31
0.0
  0
LINE
  8
0
 62
     0
 10
0.436632
 20
0.359808
 30
0.0
 11
0.441624
 21
0.368056
 31
0.0
  0
LINE
  8
0
 62
     0
 10
0.441624
 20
0.368056
 30
0.0
 11
0.457682
 21
0.324869
 31
0.0
  0
LINE
  8
0
 62
     0
 10
0.457682
 20
0.324869
 30
0.0
 11
0.585503
 21
0.324869
 31
0.0
  0
LINE
  8
0
 62
     0
 10
0.585503
 20
0.324869
 30
0.0
 11
0.585503
 21
0.944011
 31
0.0
  0
LINE
  8
0
 62
     0
 10
0.441624
 20
0.460721
 30
0.0
 11
0.430772
 21
0.429253
 31
0.0
  0
LINE
  8
0
 62
     0
 10
0.430772
 20
0.429253
 30
0.0
 11
0.403211
 21
0.419271
 31
0.0
  0
LINE
  8
0
 62
     0
 10
0.403211
 20
0.419271
 30
0.0
 11
0.375706
 21
0.429253
 31
0.0
  0
LINE
  8
0
 62
     0
 10
0.375706
 20
0.429253
 30
0.0
 11
0.366319
 21
0.460721
 31
0.0
  0
LINE
  8
0
 62
     0
 10
0.366319
 20
0.460721
 30
0.0
 11
0.366319
 21
0.815972
 31
0.0
  0
LINE
  8
0
 62
     0
 10
0.366319
 20
0.815972
 30
0.0
 11
0.375706
 21
0.847656
 31
0.0
  0
LINE
  8
0
 62
     0
 10
0.375706
 20
0.847656
 30
0.0
 11
0.403211
 21
0.857639
 31
0.0
  0
LINE
  8
0
 62
     0
 10
0.403211
 20
0.857639
 30
0.0
 11
0.430772
 21
0.846408
 31
0.0
  0
LINE
  8
0
 62
     0
 10
0.430772
 20
0.846408
 30
0.0
 11
0.441624
 21
0.815972
 31
0.0
  0
LINE
  8
0
 62
     0
 10
0.441624
 20
0.815972
 30
0.0
 11
0.441624
 21
0.460721
 31
0.0
  0
ENDSEC
  0
EOF
