  0
SECTION
  2
HEADER
  9
$ACADVER
  1
AC1009
  9
$EXTMIN
 10
0.0
 20
0.0
 30
0.0
  9
$EXTMAX
 10
1000.0
 20
1000.0
 30
0.0
  9
$FILLMODE
 70
 0
  9
$SPLFRAME
 70
 1
  0
ENDSEC
  0
SECTION
  2
TABLES
  0
TABLE
  2
LAYER
 70
1
  0
LAYER
  2
0
 70
     0
 62
     7
  6
CONTINUOUS
  0
ENDTAB
  0
ENDSEC
  0
SECTION
  2
ENTITIES
  0
LINE
  8
0
 62
     0
 10
0.158419
 20
0.239963
 30
0.0
 11
0.164876
 21
0.30089
 31
0.0
  0
LINE
  8
0
 62
     0
 10
0.164876
 20
0.30089
 30
0.0
 11
0.185004
 21
0.356228
 31
0.0
  0
LINE
  8
0
 62
     0
 10
0.185004
 20
0.356228
 30
0.0
 11
0.219835
 21
0.402235
 31
0.0
  0
LINE
  8
0
 62
     0
 10
0.219835
 20
0.402235
 30
0.0
 11
0.2704
 21
0.435058
 31
0.0
  0
LINE
  8
0
 62
     0
 10
0.2704
 20
0.435058
 30
0.0
 11
0.2704
 21
0.2111
 31
0.0
  0
LINE
  8
0
 62
     0
 10
0.2704
 20
0.2111
 30
0.0
 11
0.265028
 21
0.19081
 31
0.0
  0
LINE
  8
0
 62
     0
 10
0.265028
 20
0.19081
 30
0.0
 11
0.250597
 21
0.174044
 31
0.0
  0
LINE
  8
0
 62
     0
 10
0.250597
 20
0.174044
 30
0.0
 11
0.229167
 21
0.162597
 31
0.0
  0
LINE
  8
0
 62
     0
 10
0.229167
 20
0.162597
 30
0.0
 11
0.203125
 21
0.158365
 31
0.0
  0
LINE
  8
0
 62
     0
 10
0.203125
 20
0.158365
 30
0.0
 11
0.179253
 21
0.168186
 31
0.0
  0
LINE
  8
0
 62
     0
 10
0.179253
 20
0.168186
 30
0.0
 11
0.165799
 21
0.191351
 31
0.0
  0
LINE
  8
0
 62
     0
 10
0.165799
 20
0.191351
 30
0.0
 11
0.159776
 21
0.218425
 31
0.0
  0
LINE
  8
0
 62
     0
 10
0.159776
 20
0.218425
 30
0.0
 11
0.158419
 21
0.239963
 31
0.0
  0
LINE
  8
0
 62
     0
 10
0
 20
0.215929
 30
0.0
 11
0.00374349
 21
0.153863
 31
0.0
  0
LINE
  8
0
 62
     0
 10
0.00374349
 20
0.153863
 30
0.0
 11
0.0141601
 21
0.104546
 31
0.0
  0
LINE
  8
0
 62
     0
 10
0.0141601
 20
0.104546
 30
0.0
 11
0.0295682
 21
0.0667318
 31
0.0
  0
LINE
  8
0
 62
     0
 10
0.0295682
 20
0.0667318
 30
0.0
 11
0.0485568
 21
0.038954
 31
0.0
  0
LINE
  8
0
 62
     0
 10
0.0485568
 20
0.038954
 30
0.0
 11
0.0695529
 21
0.0198025
 31
0.0
  0
LINE
  8
0
 62
     0
 10
0.0695529
 20
0.0198025
 30
0.0
 11
0.0910915
 21
0.00786675
 31
0.0
  0
LINE
  8
0
 62
     0
 10
0.0910915
 20
0.00786675
 30
0.0
 11
0.111545
 21
0.00168186
 31
0.0
  0
LINE
  8
0
 62
     0
 10
0.111545
 20
0.00168186
 30
0.0
 11
0.129557
 21
-5.42535e-05
 31
0.0
  0
LINE
  8
0
 62
     0
 10
0.129557
 20
-5.42535e-05
 30
0.0
 11
0.175185
 21
0.00868056
 31
0.0
  0
LINE
  8
0
 62
     0
 10
0.175185
 20
0.00868056
 30
0.0
 11
0.212944
 21
0.030165
 31
0.0
  0
LINE
  8
0
 62
     0
 10
0.212944
 20
0.030165
 30
0.0
 11
0.241374
 21
0.057346
 31
0.0
  0
LINE
  8
0
 62
     0
 10
0.241374
 20
0.057346
 30
0.0
 11
0.259114
 21
0.0831164
 31
0.0
  0
LINE
  8
0
 62
     0
 10
0.259114
 20
0.0831164
 30
0.0
 11
0.2704
 21
0.0831164
 31
0.0
  0
LINE
  8
0
 62
     0
 10
0.2704
 20
0.0831164
 30
0.0
 11
0.270617
 21
0.0703668
 31
0.0
  0
LINE
  8
0
 62
     0
 10
0.270617
 20
0.0703668
 30
0.0
 11
0.27219
 21
0.0504015
 31
0.0
  0
LINE
  8
0
 62
     0
 10
0.27219
 20
0.0504015
 30
0.0
 11
0.276421
 21
0.0292426
 31
0.0
  0
LINE
  8
0
 62
     0
 10
0.276421
 20
0.0292426
 30
0.0
 11
0.284722
 21
0.0128038
 31
0.0
  0
LINE
  8
0
 62
     0
 10
0.284722
 20
0.0128038
 30
0.0
 11
0.285211
 21
0.0128038
 31
0.0
  0
LINE
  8
0
 62
     0
 10
0.285211
 20
0.0128038
 30
0.0
 11
0.287869
 21
0.0128038
 31
0.0
  0
LINE
  8
0
 62
     0
 10
0.287869
 20
0.0128038
 30
0.0
 11
0.294325
 21
0.0128038
 31
0.0
  0
LINE
  8
0
 62
     0
 10
0.294325
 20
0.0128038
 30
0.0
 11
0.306315
 21
0.0128038
 31
0.0
  0
LINE
  8
0
 62
     0
 10
0.306315
 20
0.0128038
 30
0.0
 11
0.325467
 21
0.0128038
 31
0.0
  0
LINE
  8
0
 62
     0
 10
0.325467
 20
0.0128038
 30
0.0
 11
0.353569
 21
0.0128038
 31
0.0
  0
LINE
  8
0
 62
     0
 10
0.353569
 20
0.0128038
 30
0.0
 11
0.392199
 21
0.0128038
 31
0.0
  0
LINE
  8
0
 62
     0
 10
0.392199
 20
0.0128038
 30
0.0
 11
0.443142
 21
0.0128038
 31
0.0
  0
LINE
  8
0
 62
     0
 10
0.443142
 20
0.0128038
 30
0.0
 11
0.438747
 21
0.0417751
 31
0.0
  0
LINE
  8
0
 62
     0
 10
0.438747
 20
0.0417751
 30
0.0
 11
0.435221
 21
0.0737847
 31
0.0
  0
LINE
  8
0
 62
     0
 10
0.435221
 20
0.0737847
 30
0.0
 11
0.432889
 21
0.113336
 31
0.0
  0
LINE
  8
0
 62
     0
 10
0.432889
 20
0.113336
 30
0.0
 11
0.432075
 21
0.164714
 31
0.0
  0
LINE
  8
0
 62
     0
 10
0.432075
 20
0.164714
 30
0.0
 11
0.432075
 21
0.22309
 31
0.0
  0
LINE
  8
0
 62
     0
 10
0.432075
 20
0.22309
 30
0.0
 11
0.432075
 21
0.29796
 31
0.0
  0
LINE
  8
0
 62
     0
 10
0.432075
 20
0.29796
 30
0.0
 11
0.432075
 21
0.372233
 31
0.0
  0
LINE
  8
0
 62
     0
 10
0.432075
 20
0.372233
 30
0.0
 11
0.432075
 21
0.428765
 31
0.0
  0
LINE
  8
0
 62
     0
 10
0.432075
 20
0.428765
 30
0.0
 11
0.432075
 21
0.702419
 31
0.0
  0
LINE
  8
0
 62
     0
 10
0.432075
 20
0.702419
 30
0.0
 11
0.427897
 21
0.743544
 31
0.0
  0
LINE
  8
0
 62
     0
 10
0.427897
 20
0.743544
 30
0.0
 11
0.416124
 21
0.781304
 31
0.0
  0
LINE
  8
0
 62
     0
 10
0.416124
 20
0.781304
 30
0.0
 11
0.397569
 21
0.815104
 31
0.0
  0
LINE
  8
0
 62
     0
 10
0.397569
 20
0.815104
 30
0.0
 11
0.37321
 21
0.844183
 31
0.0
  0
LINE
  8
0
 62
     0
 10
0.37321
 20
0.844183
 30
0.0
 11
0.343858
 21
0.868001
 31
0.0
  0
LINE
  8
0
 62
     0
 10
0.343858
 20
0.868001
 30
0.0
 11
0.310493
 21
0.885796
 31
0.0
  0
LINE
  8
0
 62
     0
 10
0.310493
 20
0.885796
 30
0.0
 11
0.273981
 21
0.896972
 31
0.0
  0
LINE
  8
0
 62
     0
 10
0.273981
 20
0.896972
 30
0.0
 11
0.235243
 21
0.900825
 31
0.0
  0
LINE
  8
0
 62
     0
 10
0.235243
 20
0.900825
 30
0.0
 11
0.149197
 21
0.882324
 31
0.0
  0
LINE
  8
0
 62
     0
 10
0.149197
 20
0.882324
 30
0.0
 11
0.0801867
 21
0.832031
 31
0.0
  0
LINE
  8
0
 62
     0
 10
0.0801867
 20
0.832031
 30
0.0
 11
0.0342339
 21
0.757758
 31
0.0
  0
LINE
  8
0
 62
     0
 10
0.0342339
 20
0.757758
 30
0.0
 11
0.0175781
 21
0.667318
 31
0.0
  0
LINE
  8
0
 62
     0
 10
0.0175781
 20
0.667318
 30
0.0
 11
0.0175781
 21
0.646431
 31
0.0
  0
LINE
  8
0
 62
     0
 10
0.0175781
 20
0.646431
 30
0.0
 11
0.0175781
 21
0.630425
 31
0.0
  0
LINE
  8
0
 62
     0
 10
0.0175781
 20
0.630425
 30
0.0
 11
0.179253
 21
0.630425
 31
0.0
  0
LINE
  8
0
 62
     0
 10
0.179253
 20
0.630425
 30
0.0
 11
0.179471
 21
0.671658
 31
0.0
  0
LINE
  8
0
 62
     0
 10
0.179471
 20
0.671658
 30
0.0
 11
0.182617
 21
0.713867
 31
0.0
  0
LINE
  8
0
 62
     0
 10
0.182617
 20
0.713867
 30
0.0
 11
0.195638
 21
0.746744
 31
0.0
  0
LINE
  8
0
 62
     0
 10
0.195638
 20
0.746744
 30
0.0
 11
0.225694
 21
0.759983
 31
0.0
  0
LINE
  8
0
 62
     0
 10
0.225694
 20
0.759983
 30
0.0
 11
0.251519
 21
0.752007
 31
0.0
  0
LINE
  8
0
 62
     0
 10
0.251519
 20
0.752007
 30
0.0
 11
0.264811
 21
0.732042
 31
0.0
  0
LINE
  8
0
 62
     0
 10
0.264811
 20
0.732042
 30
0.0
 11
0.269694
 21
0.706108
 31
0.0
  0
LINE
  8
0
 62
     0
 10
0.269694
 20
0.706108
 30
0.0
 11
0.2704
 21
0.680122
 31
0.0
  0
LINE
  8
0
 62
     0
 10
0.2704
 20
0.680122
 30
0.0
 11
0.2704
 21
0.644043
 31
0.0
  0
LINE
  8
0
 62
     0
 10
0.2704
 20
0.644043
 30
0.0
 11
0.2704
 21
0.612793
 31
0.0
  0
LINE
  8
0
 62
     0
 10
0.2704
 20
0.612793
 30
0.0
 11
0.2704
 21
0.583985
 31
0.0
  0
LINE
  8
0
 62
     0
 10
0.2704
 20
0.583985
 30
0.0
 11
0.254124
 21
0.565158
 31
0.0
  0
LINE
  8
0
 62
     0
 10
0.254124
 20
0.565158
 30
0.0
 11
0.221354
 21
0.545844
 31
0.0
  0
LINE
  8
0
 62
     0
 10
0.221354
 20
0.545844
 30
0.0
 11
0.177735
 21
0.522407
 31
0.0
  0
LINE
  8
0
 62
     0
 10
0.177735
 20
0.522407
 30
0.0
 11
0.129178
 21
0.491211
 31
0.0
  0
LINE
  8
0
 62
     0
 10
0.129178
 20
0.491211
 30
0.0
 11
0.0812717
 21
0.448568
 31
0.0
  0
LINE
  8
0
 62
     0
 10
0.0812717
 20
0.448568
 30
0.0
 11
0.0399849
 21
0.390896
 31
0.0
  0
LINE
  8
0
 62
     0
 10
0.0399849
 20
0.390896
 30
0.0
 11
0.0109592
 21
0.314615
 31
0.0
  0
LINE
  8
0
 62
     0
 10
0.0109592
 20
0.314615
 30
0.0
 11
0
 21
0.215929
 31
0.0
  0
ENDSEC
  0
EOF
