  0
SECTION
  2
HEADER
  9
$ACADVER
  1
AC1009
  9
$EXTMIN
 10
0.0
 20
0.0
 30
0.0
  9
$EXTMAX
 10
1000.0
 20
1000.0
 30
0.0
  9
$FILLMODE
 70
 0
  9
$SPLFRAME
 70
 1
  0
ENDSEC
  0
SECTION
  2
TABLES
  0
TABLE
  2
LAYER
 70
1
  0
LAYER
  2
0
 70
     0
 62
     7
  6
CONTINUOUS
  0
ENDTAB
  0
ENDSEC
  0
SECTION
  2
ENTITIES
  0
LINE
  8
0
 62
     0
 10
0
 20
0.259114
 30
0.0
 11
0.0176324
 21
0.159993
 31
0.0
  0
LINE
  8
0
 62
     0
 10
0.0176324
 20
0.159993
 30
0.0
 11
0.066786
 21
0.0774197
 31
0.0
  0
LINE
  8
0
 62
     0
 10
0.066786
 20
0.0774197
 30
0.0
 11
0.14171
 21
0.0209418
 31
0.0
  0
LINE
  8
0
 62
     0
 10
0.14171
 20
0.0209418
 30
0.0
 11
0.236762
 21
-0
 31
0.0
  0
LINE
  8
0
 62
     0
 10
0.236762
 20
-0
 30
0.0
 11
0.289822
 21
0.0078125
 31
0.0
  0
LINE
  8
0
 62
     0
 10
0.289822
 20
0.0078125
 30
0.0
 11
0.340603
 21
0.0297851
 31
0.0
  0
LINE
  8
0
 62
     0
 10
0.340603
 20
0.0297851
 30
0.0
 11
0.388672
 21
0.0641276
 31
0.0
  0
LINE
  8
0
 62
     0
 10
0.388672
 20
0.0641276
 30
0.0
 11
0.433594
 21
0.108724
 31
0.0
  0
LINE
  8
0
 62
     0
 10
0.433594
 20
0.108724
 30
0.0
 11
0.48649
 21
0.0600586
 31
0.0
  0
LINE
  8
0
 62
     0
 10
0.48649
 20
0.0600586
 30
0.0
 11
0.535536
 21
0.0262044
 31
0.0
  0
LINE
  8
0
 62
     0
 10
0.535536
 20
0.0262044
 30
0.0
 11
0.574382
 21
0.00645617
 31
0.0
  0
LINE
  8
0
 62
     0
 10
0.574382
 20
0.00645617
 30
0.0
 11
0.596789
 21
-0
 31
0.0
  0
LINE
  8
0
 62
     0
 10
0.596789
 20
-0
 30
0.0
 11
0.596789
 21
0.184028
 31
0.0
  0
LINE
  8
0
 62
     0
 10
0.596789
 20
0.184028
 30
0.0
 11
0.586208
 21
0.18929
 31
0.0
  0
LINE
  8
0
 62
     0
 10
0.586208
 20
0.18929
 30
0.0
 11
0.569769
 21
0.200467
 31
0.0
  0
LINE
  8
0
 62
     0
 10
0.569769
 20
0.200467
 30
0.0
 11
0.548828
 21
0.218317
 31
0.0
  0
LINE
  8
0
 62
     0
 10
0.548828
 20
0.218317
 30
0.0
 11
0.524739
 21
0.243272
 31
0.0
  0
LINE
  8
0
 62
     0
 10
0.524739
 20
0.243272
 30
0.0
 11
0.557835
 21
0.32346
 31
0.0
  0
LINE
  8
0
 62
     0
 10
0.557835
 20
0.32346
 30
0.0
 11
0.579372
 21
0.404839
 31
0.0
  0
LINE
  8
0
 62
     0
 10
0.579372
 20
0.404839
 30
0.0
 11
0.591581
 21
0.475424
 31
0.0
  0
LINE
  8
0
 62
     0
 10
0.591581
 20
0.475424
 30
0.0
 11
0.596789
 21
0.523221
 31
0.0
  0
LINE
  8
0
 62
     0
 10
0.596789
 20
0.523221
 30
0.0
 11
0.459201
 21
0.548828
 31
0.0
  0
LINE
  8
0
 62
     0
 10
0.459201
 20
0.548828
 30
0.0
 11
0.454969
 21
0.519965
 31
0.0
  0
LINE
  8
0
 62
     0
 10
0.454969
 20
0.519965
 30
0.0
 11
0.447319
 21
0.478461
 31
0.0
  0
LINE
  8
0
 62
     0
 10
0.447319
 20
0.478461
 30
0.0
 11
0.436361
 21
0.430989
 31
0.0
  0
LINE
  8
0
 62
     0
 10
0.436361
 20
0.430989
 30
0.0
 11
0.422308
 21
0.384114
 31
0.0
  0
LINE
  8
0
 62
     0
 10
0.422308
 20
0.384114
 30
0.0
 11
0.373264
 21
0.468207
 31
0.0
  0
LINE
  8
0
 62
     0
 10
0.373264
 20
0.468207
 30
0.0
 11
0.307292
 21
0.606336
 31
0.0
  0
LINE
  8
0
 62
     0
 10
0.307292
 20
0.606336
 30
0.0
 11
0.370714
 21
0.696343
 31
0.0
  0
LINE
  8
0
 62
     0
 10
0.370714
 20
0.696343
 30
0.0
 11
0.421442
 21
0.783257
 31
0.0
  0
LINE
  8
0
 62
     0
 10
0.421442
 20
0.783257
 30
0.0
 11
0.455024
 21
0.866536
 31
0.0
  0
LINE
  8
0
 62
     0
 10
0.455024
 20
0.866536
 30
0.0
 11
0.467231
 21
0.945529
 31
0.0
  0
LINE
  8
0
 62
     0
 10
0.467231
 20
0.945529
 30
0.0
 11
0.467231
 21
0.956543
 31
0.0
  0
LINE
  8
0
 62
     0
 10
0.467231
 20
0.956543
 30
0.0
 11
0.465549
 21
0.985568
 31
0.0
  0
LINE
  8
0
 62
     0
 10
0.465549
 20
0.985568
 30
0.0
 11
0.459256
 21
1.02658
 31
0.0
  0
LINE
  8
0
 62
     0
 10
0.459256
 20
1.02658
 30
0.0
 11
0.445583
 21
1.07357
 31
0.0
  0
LINE
  8
0
 62
     0
 10
0.445583
 20
1.07357
 30
0.0
 11
0.421658
 21
1.12061
 31
0.0
  0
LINE
  8
0
 62
     0
 10
0.421658
 20
1.12061
 30
0.0
 11
0.384819
 21
1.16162
 31
0.0
  0
LINE
  8
0
 62
     0
 10
0.384819
 20
1.16162
 30
0.0
 11
0.33214
 21
1.19065
 31
0.0
  0
LINE
  8
0
 62
     0
 10
0.33214
 20
1.19065
 30
0.0
 11
0.26085
 21
1.20161
 31
0.0
  0
LINE
  8
0
 62
     0
 10
0.26085
 20
1.20161
 30
0.0
 11
0.189236
 21
1.19065
 31
0.0
  0
LINE
  8
0
 62
     0
 10
0.189236
 20
1.19065
 30
0.0
 11
0.136013
 21
1.16162
 31
0.0
  0
LINE
  8
0
 62
     0
 10
0.136013
 20
1.16162
 30
0.0
 11
0.0983615
 21
1.12061
 31
0.0
  0
LINE
  8
0
 62
     0
 10
0.0983615
 20
1.12061
 30
0.0
 11
0.0736219
 21
1.07357
 31
0.0
  0
LINE
  8
0
 62
     0
 10
0.0736219
 20
1.07357
 30
0.0
 11
0.0590821
 21
1.02658
 31
0.0
  0
LINE
  8
0
 62
     0
 10
0.0590821
 20
1.02658
 30
0.0
 11
0.052029
 21
0.985568
 31
0.0
  0
LINE
  8
0
 62
     0
 10
0.052029
 20
0.985568
 30
0.0
 11
0.0498047
 21
0.956543
 31
0.0
  0
LINE
  8
0
 62
     0
 10
0.0498047
 20
0.956543
 30
0.0
 11
0.0496961
 21
0.945529
 31
0.0
  0
LINE
  8
0
 62
     0
 10
0.0496961
 20
0.945529
 30
0.0
 11
0.0708008
 21
0.769857
 31
0.0
  0
LINE
  8
0
 62
     0
 10
0.0708008
 20
0.769857
 30
0.0
 11
0.132813
 21
0.600043
 31
0.0
  0
LINE
  8
0
 62
     0
 10
0.132813
 20
0.600043
 30
0.0
 11
0.0843642
 21
0.523654
 31
0.0
  0
LINE
  8
0
 62
     0
 10
0.0843642
 20
0.523654
 30
0.0
 11
0.0418294
 21
0.442219
 31
0.0
  0
LINE
  8
0
 62
     0
 10
0.0418294
 20
0.442219
 30
0.0
 11
0.0115017
 21
0.354492
 31
0.0
  0
LINE
  8
0
 62
     0
 10
0.0115017
 20
0.354492
 30
0.0
 11
0
 21
0.259114
 31
0.0
  0
LINE
  8
0
 62
     0
 10
0.342447
 20
0.217665
 30
0.0
 11
0.320856
 21
0.190972
 31
0.0
  0
LINE
  8
0
 62
     0
 10
0.320856
 20
0.190972
 30
0.0
 11
0.298394
 21
0.16965
 31
0.0
  0
LINE
  8
0
 62
     0
 10
0.298394
 20
0.16965
 30
0.0
 11
0.273546
 21
0.155544
 31
0.0
  0
LINE
  8
0
 62
     0
 10
0.273546
 20
0.155544
 30
0.0
 11
0.244792
 21
0.15039
 31
0.0
  0
LINE
  8
0
 62
     0
 10
0.244792
 20
0.15039
 30
0.0
 11
0.213867
 21
0.159233
 31
0.0
  0
LINE
  8
0
 62
     0
 10
0.213867
 20
0.159233
 30
0.0
 11
0.189399
 21
0.183649
 31
0.0
  0
LINE
  8
0
 62
     0
 10
0.189399
 20
0.183649
 30
0.0
 11
0.173014
 21
0.220649
 31
0.0
  0
LINE
  8
0
 62
     0
 10
0.173014
 20
0.220649
 30
0.0
 11
0.16645
 21
0.267144
 31
0.0
  0
LINE
  8
0
 62
     0
 10
0.16645
 20
0.267144
 30
0.0
 11
0.171929
 21
0.343371
 31
0.0
  0
LINE
  8
0
 62
     0
 10
0.171929
 20
0.343371
 30
0.0
 11
0.185764
 21
0.400174
 31
0.0
  0
LINE
  8
0
 62
     0
 10
0.185764
 20
0.400174
 30
0.0
 11
0.199869
 21
0.43571
 31
0.0
  0
LINE
  8
0
 62
     0
 10
0.199869
 20
0.43571
 30
0.0
 11
0.206381
 21
0.447917
 31
0.0
  0
LINE
  8
0
 62
     0
 10
0.206381
 20
0.447917
 30
0.0
 11
0.276856
 21
0.323785
 31
0.0
  0
LINE
  8
0
 62
     0
 10
0.276856
 20
0.323785
 30
0.0
 11
0.342447
 21
0.217665
 31
0.0
  0
LINE
  8
0
 62
     0
 10
0.321614
 20
0.950521
 30
0.0
 11
0.314725
 21
0.902399
 31
0.0
  0
LINE
  8
0
 62
     0
 10
0.314725
 20
0.902399
 30
0.0
 11
0.296821
 21
0.851454
 31
0.0
  0
LINE
  8
0
 62
     0
 10
0.296821
 20
0.851454
 30
0.0
 11
0.271701
 21
0.80089
 31
0.0
  0
LINE
  8
0
 62
     0
 10
0.271701
 20
0.80089
 30
0.0
 11
0.243272
 21
0.753689
 31
0.0
  0
LINE
  8
0
 62
     0
 10
0.243272
 20
0.753689
 30
0.0
 11
0.210829
 21
0.8514
 31
0.0
  0
LINE
  8
0
 62
     0
 10
0.210829
 20
0.8514
 30
0.0
 11
0.200086
 21
0.945529
 31
0.0
  0
LINE
  8
0
 62
     0
 10
0.200086
 20
0.945529
 30
0.0
 11
0.199924
 21
0.950629
 31
0.0
  0
LINE
  8
0
 62
     0
 10
0.199924
 20
0.950629
 30
0.0
 11
0.200086
 21
0.964085
 31
0.0
  0
LINE
  8
0
 62
     0
 10
0.200086
 20
0.964085
 30
0.0
 11
0.201551
 21
0.983072
 31
0.0
  0
LINE
  8
0
 62
     0
 10
0.201551
 20
0.983072
 30
0.0
 11
0.20524
 21
1.00478
 31
0.0
  0
LINE
  8
0
 62
     0
 10
0.20524
 20
1.00478
 30
0.0
 11
0.212022
 21
1.02653
 31
0.0
  0
LINE
  8
0
 62
     0
 10
0.212022
 20
1.02653
 30
0.0
 11
0.222928
 21
1.04552
 31
0.0
  0
LINE
  8
0
 62
     0
 10
0.222928
 20
1.04552
 30
0.0
 11
0.238878
 21
1.05897
 31
0.0
  0
LINE
  8
0
 62
     0
 10
0.238878
 20
1.05897
 30
0.0
 11
0.26085
 21
1.06402
 31
0.0
  0
LINE
  8
0
 62
     0
 10
0.26085
 20
1.06402
 30
0.0
 11
0.282661
 21
1.05919
 31
0.0
  0
LINE
  8
0
 62
     0
 10
0.282661
 20
1.05919
 30
0.0
 11
0.298611
 21
1.04633
 31
0.0
  0
LINE
  8
0
 62
     0
 10
0.298611
 20
1.04633
 30
0.0
 11
0.309517
 21
1.02816
 31
0.0
  0
LINE
  8
0
 62
     0
 10
0.309517
 20
1.02816
 30
0.0
 11
0.316351
 21
1.00727
 31
0.0
  0
LINE
  8
0
 62
     0
 10
0.316351
 20
1.00727
 30
0.0
 11
0.320042
 21
0.986436
 31
0.0
  0
LINE
  8
0
 62
     0
 10
0.320042
 20
0.986436
 30
0.0
 11
0.321506
 21
0.968261
 31
0.0
  0
LINE
  8
0
 62
     0
 10
0.321506
 20
0.968261
 30
0.0
 11
0.321724
 21
0.955404
 31
0.0
  0
LINE
  8
0
 62
     0
 10
0.321724
 20
0.955404
 30
0.0
 11
0.321614
 21
0.950521
 31
0.0
  0
ENDSEC
  0
EOF
