  0
SECTION
  2
HEADER
  9
$ACADVER
  1
AC1009
  9
$EXTMIN
 10
0.0
 20
0.0
 30
0.0
  9
$EXTMAX
 10
1000.0
 20
1000.0
 30
0.0
  9
$FILLMODE
 70
 0
  9
$SPLFRAME
 70
 1
  0
ENDSEC
  0
SECTION
  2
TABLES
  0
TABLE
  2
LAYER
 70
1
  0
LAYER
  2
0
 70
     0
 62
     7
  6
CONTINUOUS
  0
ENDTAB
  0
ENDSEC
  0
SECTION
  2
ENTITIES
  0
LINE
  8
0
 62
     0
 10
0
 20
0.0128038
 30
0.0
 11
0.161675
 21
0.0128038
 31
0.0
  0
LINE
  8
0
 62
     0
 10
0.161675
 20
0.0128038
 30
0.0
 11
0.161675
 21
0.0703125
 31
0.0
  0
LINE
  8
0
 62
     0
 10
0.161675
 20
0.0703125
 30
0.0
 11
0.17334
 21
0.0593533
 31
0.0
  0
LINE
  8
0
 62
     0
 10
0.17334
 20
0.0593533
 30
0.0
 11
0.20345
 21
0.0351563
 31
0.0
  0
LINE
  8
0
 62
     0
 10
0.20345
 20
0.0351563
 30
0.0
 11
0.244575
 21
0.0110135
 31
0.0
  0
LINE
  8
0
 62
     0
 10
0.244575
 20
0.0110135
 30
0.0
 11
0.289497
 21
-0
 31
0.0
  0
LINE
  8
0
 62
     0
 10
0.289497
 20
-0
 30
0.0
 11
0.32015
 21
0.00444878
 31
0.0
  0
LINE
  8
0
 62
     0
 10
0.32015
 20
0.00444878
 30
0.0
 11
0.346192
 21
0.0166558
 31
0.0
  0
LINE
  8
0
 62
     0
 10
0.346192
 20
0.0166558
 30
0.0
 11
0.367731
 21
0.0352106
 31
0.0
  0
LINE
  8
0
 62
     0
 10
0.367731
 20
0.0352106
 30
0.0
 11
0.385038
 21
0.0585938
 31
0.0
  0
LINE
  8
0
 62
     0
 10
0.385038
 20
0.0585938
 30
0.0
 11
0.398167
 21
0.085395
 31
0.0
  0
LINE
  8
0
 62
     0
 10
0.398167
 20
0.085395
 30
0.0
 11
0.407335
 21
0.114095
 31
0.0
  0
LINE
  8
0
 62
     0
 10
0.407335
 20
0.114095
 30
0.0
 11
0.412706
 21
0.143229
 31
0.0
  0
LINE
  8
0
 62
     0
 10
0.412706
 20
0.143229
 30
0.0
 11
0.414497
 21
0.171224
 31
0.0
  0
LINE
  8
0
 62
     0
 10
0.414497
 20
0.171224
 30
0.0
 11
0.414497
 21
0.7296
 31
0.0
  0
LINE
  8
0
 62
     0
 10
0.414497
 20
0.7296
 30
0.0
 11
0.412706
 21
0.75765
 31
0.0
  0
LINE
  8
0
 62
     0
 10
0.412706
 20
0.75765
 30
0.0
 11
0.407335
 21
0.786783
 31
0.0
  0
LINE
  8
0
 62
     0
 10
0.407335
 20
0.786783
 30
0.0
 11
0.398167
 21
0.815483
 31
0.0
  0
LINE
  8
0
 62
     0
 10
0.398167
 20
0.815483
 30
0.0
 11
0.385038
 21
0.842231
 31
0.0
  0
LINE
  8
0
 62
     0
 10
0.385038
 20
0.842231
 30
0.0
 11
0.367731
 21
0.865668
 31
0.0
  0
LINE
  8
0
 62
     0
 10
0.367731
 20
0.865668
 30
0.0
 11
0.346192
 21
0.884224
 31
0.0
  0
LINE
  8
0
 62
     0
 10
0.346192
 20
0.884224
 30
0.0
 11
0.32015
 21
0.896431
 31
0.0
  0
LINE
  8
0
 62
     0
 10
0.32015
 20
0.896431
 30
0.0
 11
0.289497
 21
0.900825
 31
0.0
  0
LINE
  8
0
 62
     0
 10
0.289497
 20
0.900825
 30
0.0
 11
0.244575
 21
0.889865
 31
0.0
  0
LINE
  8
0
 62
     0
 10
0.244575
 20
0.889865
 30
0.0
 11
0.20345
 21
0.865668
 31
0.0
  0
LINE
  8
0
 62
     0
 10
0.20345
 20
0.865668
 30
0.0
 11
0.17334
 21
0.841525
 31
0.0
  0
LINE
  8
0
 62
     0
 10
0.17334
 20
0.841525
 30
0.0
 11
0.161675
 21
0.830513
 31
0.0
  0
LINE
  8
0
 62
     0
 10
0.161675
 20
0.830513
 30
0.0
 11
0.161675
 21
1.1888
 31
0.0
  0
LINE
  8
0
 62
     0
 10
0.161675
 20
1.1888
 30
0.0
 11
0
 21
1.1888
 31
0.0
  0
LINE
  8
0
 62
     0
 10
0
 20
1.1888
 30
0.0
 11
0
 21
0.0128038
 31
0.0
  0
LINE
  8
0
 62
     0
 10
0.161675
 20
0.204861
 30
0.0
 11
0.161675
 21
0.461806
 31
0.0
  0
LINE
  8
0
 62
     0
 10
0.161675
 20
0.461806
 30
0.0
 11
0.161675
 21
0.695964
 31
0.0
  0
LINE
  8
0
 62
     0
 10
0.161675
 20
0.695964
 30
0.0
 11
0.165744
 21
0.715061
 31
0.0
  0
LINE
  8
0
 62
     0
 10
0.165744
 20
0.715061
 30
0.0
 11
0.176594
 21
0.732042
 31
0.0
  0
LINE
  8
0
 62
     0
 10
0.176594
 20
0.732042
 30
0.0
 11
0.191949
 21
0.744249
 31
0.0
  0
LINE
  8
0
 62
     0
 10
0.191949
 20
0.744249
 30
0.0
 11
0.209636
 21
0.748915
 31
0.0
  0
LINE
  8
0
 62
     0
 10
0.209636
 20
0.748915
 30
0.0
 11
0.226454
 21
0.744954
 31
0.0
  0
LINE
  8
0
 62
     0
 10
0.226454
 20
0.744954
 30
0.0
 11
0.240181
 21
0.733832
 31
0.0
  0
LINE
  8
0
 62
     0
 10
0.240181
 20
0.733832
 30
0.0
 11
0.249403
 21
0.717068
 31
0.0
  0
LINE
  8
0
 62
     0
 10
0.249403
 20
0.717068
 30
0.0
 11
0.252821
 21
0.695964
 31
0.0
  0
LINE
  8
0
 62
     0
 10
0.252821
 20
0.695964
 30
0.0
 11
0.252821
 21
0.204861
 31
0.0
  0
LINE
  8
0
 62
     0
 10
0.252821
 20
0.204861
 30
0.0
 11
0.249403
 21
0.183811
 31
0.0
  0
LINE
  8
0
 62
     0
 10
0.249403
 20
0.183811
 30
0.0
 11
0.240181
 21
0.166992
 31
0.0
  0
LINE
  8
0
 62
     0
 10
0.240181
 20
0.166992
 30
0.0
 11
0.226454
 21
0.155925
 31
0.0
  0
LINE
  8
0
 62
     0
 10
0.226454
 20
0.155925
 30
0.0
 11
0.209636
 21
0.15191
 31
0.0
  0
LINE
  8
0
 62
     0
 10
0.209636
 20
0.15191
 30
0.0
 11
0.192708
 21
0.155925
 31
0.0
  0
LINE
  8
0
 62
     0
 10
0.192708
 20
0.155925
 30
0.0
 11
0.177246
 21
0.166992
 31
0.0
  0
LINE
  8
0
 62
     0
 10
0.177246
 20
0.166992
 30
0.0
 11
0.166015
 21
0.183811
 31
0.0
  0
LINE
  8
0
 62
     0
 10
0.166015
 20
0.183811
 30
0.0
 11
0.161675
 21
0.204861
 31
0.0
  0
ENDSEC
  0
EOF
