  0
SECTION
  2
HEADER
  9
$ACADVER
  1
AC1009
  9
$EXTMIN
 10
0.0
 20
0.0
 30
0.0
  9
$EXTMAX
 10
1000.0
 20
1000.0
 30
0.0
  9
$FILLMODE
 70
 0
  9
$SPLFRAME
 70
 1
  0
ENDSEC
  0
SECTION
  2
TABLES
  0
TABLE
  2
LAYER
 70
1
  0
LAYER
  2
0
 70
     0
 62
     7
  6
CONTINUOUS
  0
ENDTAB
  0
ENDSEC
  0
SECTION
  2
ENTITIES
  0
LINE
  8
0
 62
     0
 10
0.21289
 20
-0
 30
0.0
 11
0.341689
 21
0.0310872
 31
0.0
  0
LINE
  8
0
 62
     0
 10
0.341689
 20
0.0310872
 30
0.0
 11
0.423828
 21
0.104601
 31
0.0
  0
LINE
  8
0
 62
     0
 10
0.423828
 20
0.104601
 30
0.0
 11
0.467285
 21
0.209093
 31
0.0
  0
LINE
  8
0
 62
     0
 10
0.467285
 20
0.209093
 30
0.0
 11
0.480035
 21
0.3329
 31
0.0
  0
LINE
  8
0
 62
     0
 10
0.480035
 20
0.3329
 30
0.0
 11
0.474826
 21
0.412326
 31
0.0
  0
LINE
  8
0
 62
     0
 10
0.474826
 20
0.412326
 30
0.0
 11
0.461262
 21
0.476454
 31
0.0
  0
LINE
  8
0
 62
     0
 10
0.461262
 20
0.476454
 30
0.0
 11
0.442057
 21
0.526639
 31
0.0
  0
LINE
  8
0
 62
     0
 10
0.442057
 20
0.526639
 30
0.0
 11
0.420031
 21
0.564453
 31
0.0
  0
LINE
  8
0
 62
     0
 10
0.420031
 20
0.564453
 30
0.0
 11
0.397949
 21
0.591362
 31
0.0
  0
LINE
  8
0
 62
     0
 10
0.397949
 20
0.591362
 30
0.0
 11
0.378743
 21
0.608724
 31
0.0
  0
LINE
  8
0
 62
     0
 10
0.378743
 20
0.608724
 30
0.0
 11
0.365181
 21
0.61811
 31
0.0
  0
LINE
  8
0
 62
     0
 10
0.365181
 20
0.61811
 30
0.0
 11
0.360026
 21
0.620876
 31
0.0
  0
LINE
  8
0
 62
     0
 10
0.360026
 20
0.620876
 30
0.0
 11
0.411838
 21
0.67399
 31
0.0
  0
LINE
  8
0
 62
     0
 10
0.411838
 20
0.67399
 30
0.0
 11
0.444769
 21
0.728678
 31
0.0
  0
LINE
  8
0
 62
     0
 10
0.444769
 20
0.728678
 30
0.0
 11
0.462131
 21
0.790256
 31
0.0
  0
LINE
  8
0
 62
     0
 10
0.462131
 20
0.790256
 30
0.0
 11
0.467231
 21
0.863932
 31
0.0
  0
LINE
  8
0
 62
     0
 10
0.467231
 20
0.863932
 30
0.0
 11
0.44694
 21
1.01134
 31
0.0
  0
LINE
  8
0
 62
     0
 10
0.44694
 20
1.01134
 30
0.0
 11
0.386936
 21
1.10764
 31
0.0
  0
LINE
  8
0
 62
     0
 10
0.386936
 20
1.10764
 30
0.0
 11
0.288194
 21
1.16016
 31
0.0
  0
LINE
  8
0
 62
     0
 10
0.288194
 20
1.16016
 30
0.0
 11
0.15191
 21
1.176
 31
0.0
  0
LINE
  8
0
 62
     0
 10
0.15191
 20
1.176
 30
0.0
 11
0.100477
 21
1.176
 31
0.0
  0
LINE
  8
0
 62
     0
 10
0.100477
 20
1.176
 30
0.0
 11
0.0513781
 21
1.176
 31
0.0
  0
LINE
  8
0
 62
     0
 10
0.0513781
 20
1.176
 30
0.0
 11
0.0144857
 21
1.176
 31
0.0
  0
LINE
  8
0
 62
     0
 10
0.0144857
 20
1.176
 30
0.0
 11
0
 21
1.176
 31
0.0
  0
LINE
  8
0
 62
     0
 10
0
 20
1.176
 30
0.0
 11
0
 21
-0
 31
0.0
  0
LINE
  8
0
 62
     0
 10
0
 20
-0
 30
0.0
 11
0.21289
 21
-0
 31
0.0
  0
LINE
  8
0
 62
     0
 10
0.300781
 20
0.351997
 30
0.0
 11
0.29655
 21
0.288683
 31
0.0
  0
LINE
  8
0
 62
     0
 10
0.29655
 20
0.288683
 30
0.0
 11
0.285265
 21
0.242133
 31
0.0
  0
LINE
  8
0
 62
     0
 10
0.285265
 20
0.242133
 30
0.0
 11
0.268718
 21
0.209744
 31
0.0
  0
LINE
  8
0
 62
     0
 10
0.268718
 20
0.209744
 30
0.0
 11
0.248807
 21
0.189019
 31
0.0
  0
LINE
  8
0
 62
     0
 10
0.248807
 20
0.189019
 30
0.0
 11
0.227322
 21
0.177408
 31
0.0
  0
LINE
  8
0
 62
     0
 10
0.227322
 20
0.177408
 30
0.0
 11
0.206272
 21
0.172254
 31
0.0
  0
LINE
  8
0
 62
     0
 10
0.206272
 20
0.172254
 30
0.0
 11
0.187446
 21
0.171061
 31
0.0
  0
LINE
  8
0
 62
     0
 10
0.187446
 20
0.171061
 30
0.0
 11
0.172743
 21
0.171224
 31
0.0
  0
LINE
  8
0
 62
     0
 10
0.172743
 20
0.171224
 30
0.0
 11
0.172743
 21
0.532769
 31
0.0
  0
LINE
  8
0
 62
     0
 10
0.172743
 20
0.532769
 30
0.0
 11
0.187446
 21
0.532986
 31
0.0
  0
LINE
  8
0
 62
     0
 10
0.187446
 20
0.532986
 30
0.0
 11
0.206272
 21
0.531793
 31
0.0
  0
LINE
  8
0
 62
     0
 10
0.206272
 20
0.531793
 30
0.0
 11
0.227322
 21
0.526639
 31
0.0
  0
LINE
  8
0
 62
     0
 10
0.227322
 20
0.526639
 30
0.0
 11
0.248807
 21
0.514974
 31
0.0
  0
LINE
  8
0
 62
     0
 10
0.248807
 20
0.514974
 30
0.0
 11
0.268718
 21
0.494303
 31
0.0
  0
LINE
  8
0
 62
     0
 10
0.268718
 20
0.494303
 30
0.0
 11
0.285265
 21
0.461914
 31
0.0
  0
LINE
  8
0
 62
     0
 10
0.285265
 20
0.461914
 30
0.0
 11
0.29655
 21
0.415364
 31
0.0
  0
LINE
  8
0
 62
     0
 10
0.29655
 20
0.415364
 30
0.0
 11
0.300781
 21
0.351997
 31
0.0
  0
LINE
  8
0
 62
     0
 10
0.300781
 20
0.84809
 30
0.0
 11
0.29655
 21
0.794976
 31
0.0
  0
LINE
  8
0
 62
     0
 10
0.29655
 20
0.794976
 30
0.0
 11
0.285265
 21
0.755371
 31
0.0
  0
LINE
  8
0
 62
     0
 10
0.285265
 20
0.755371
 30
0.0
 11
0.268718
 21
0.727431
 31
0.0
  0
LINE
  8
0
 62
     0
 10
0.268718
 20
0.727431
 30
0.0
 11
0.248807
 21
0.709039
 31
0.0
  0
LINE
  8
0
 62
     0
 10
0.248807
 20
0.709039
 30
0.0
 11
0.227322
 21
0.698242
 31
0.0
  0
LINE
  8
0
 62
     0
 10
0.227322
 20
0.698242
 30
0.0
 11
0.206272
 21
0.692979
 31
0.0
  0
LINE
  8
0
 62
     0
 10
0.206272
 20
0.692979
 30
0.0
 11
0.187446
 21
0.691351
 31
0.0
  0
LINE
  8
0
 62
     0
 10
0.187446
 20
0.691351
 30
0.0
 11
0.172743
 21
0.691189
 31
0.0
  0
LINE
  8
0
 62
     0
 10
0.172743
 20
0.691189
 30
0.0
 11
0.172743
 21
1.00478
 31
0.0
  0
LINE
  8
0
 62
     0
 10
0.172743
 20
1.00478
 30
0.0
 11
0.187446
 21
1.00467
 31
0.0
  0
LINE
  8
0
 62
     0
 10
0.187446
 20
1.00467
 30
0.0
 11
0.206272
 21
1.00304
 31
0.0
  0
LINE
  8
0
 62
     0
 10
0.206272
 20
1.00304
 30
0.0
 11
0.227322
 21
0.997775
 31
0.0
  0
LINE
  8
0
 62
     0
 10
0.227322
 20
0.997775
 30
0.0
 11
0.248807
 21
0.986979
 31
0.0
  0
LINE
  8
0
 62
     0
 10
0.248807
 20
0.986979
 30
0.0
 11
0.268718
 21
0.968642
 31
0.0
  0
LINE
  8
0
 62
     0
 10
0.268718
 20
0.968642
 30
0.0
 11
0.285265
 21
0.940701
 31
0.0
  0
LINE
  8
0
 62
     0
 10
0.285265
 20
0.940701
 30
0.0
 11
0.29655
 21
0.901204
 31
0.0
  0
LINE
  8
0
 62
     0
 10
0.29655
 20
0.901204
 30
0.0
 11
0.300781
 21
0.84809
 31
0.0
  0
ENDSEC
  0
EOF
