  0
SECTION
  2
HEADER
  9
$ACADVER
  1
AC1009
  9
$EXTMIN
 10
0.0
 20
0.0
 30
0.0
  9
$EXTMAX
 10
1000.0
 20
1000.0
 30
0.0
  9
$FILLMODE
 70
 0
  9
$SPLFRAME
 70
 1
  0
ENDSEC
  0
SECTION
  2
TABLES
  0
TABLE
  2
LAYER
 70
1
  0
LAYER
  2
0
 70
     0
 62
     7
  6
CONTINUOUS
  0
ENDTAB
  0
ENDSEC
  0
SECTION
  2
ENTITIES
  0
LINE
  8
0
 62
     0
 10
0.161675
 20
0.686415
 30
0.0
 11
0.162543
 21
0.710883
 31
0.0
  0
LINE
  8
0
 62
     0
 10
0.162543
 20
0.710883
 30
0.0
 11
0.167806
 21
0.733561
 31
0.0
  0
LINE
  8
0
 62
     0
 10
0.167806
 20
0.733561
 30
0.0
 11
0.181153
 21
0.750271
 31
0.0
  0
LINE
  8
0
 62
     0
 10
0.181153
 20
0.750271
 30
0.0
 11
0.206381
 21
0.756728
 31
0.0
  0
LINE
  8
0
 62
     0
 10
0.206381
 20
0.756728
 30
0.0
 11
0.229167
 21
0.753201
 31
0.0
  0
LINE
  8
0
 62
     0
 10
0.229167
 20
0.753201
 30
0.0
 11
0.243435
 21
0.741374
 31
0.0
  0
LINE
  8
0
 62
     0
 10
0.243435
 20
0.741374
 30
0.0
 11
0.250706
 21
0.719672
 31
0.0
  0
LINE
  8
0
 62
     0
 10
0.250706
 20
0.719672
 30
0.0
 11
0.252821
 21
0.686415
 31
0.0
  0
LINE
  8
0
 62
     0
 10
0.252821
 20
0.686415
 30
0.0
 11
0.252821
 21
0.580729
 31
0.0
  0
LINE
  8
0
 62
     0
 10
0.252821
 20
0.580729
 30
0.0
 11
0.414497
 21
0.580729
 31
0.0
  0
LINE
  8
0
 62
     0
 10
0.414497
 20
0.580729
 30
0.0
 11
0.414497
 21
0.649522
 31
0.0
  0
LINE
  8
0
 62
     0
 10
0.414497
 20
0.649522
 30
0.0
 11
0.401096
 21
0.771213
 31
0.0
  0
LINE
  8
0
 62
     0
 10
0.401096
 20
0.771213
 30
0.0
 11
0.361436
 21
0.848415
 31
0.0
  0
LINE
  8
0
 62
     0
 10
0.361436
 20
0.848415
 30
0.0
 11
0.296278
 21
0.889051
 31
0.0
  0
LINE
  8
0
 62
     0
 10
0.296278
 20
0.889051
 30
0.0
 11
0.206381
 21
0.900825
 31
0.0
  0
LINE
  8
0
 62
     0
 10
0.206381
 20
0.900825
 30
0.0
 11
0.124837
 21
0.887804
 31
0.0
  0
LINE
  8
0
 62
     0
 10
0.124837
 20
0.887804
 30
0.0
 11
0.0594075
 21
0.844401
 31
0.0
  0
LINE
  8
0
 62
     0
 10
0.0594075
 20
0.844401
 30
0.0
 11
0.0157878
 21
0.764486
 31
0.0
  0
LINE
  8
0
 62
     0
 10
0.0157878
 20
0.764486
 30
0.0
 11
0
 21
0.641656
 31
0.0
  0
LINE
  8
0
 62
     0
 10
0
 20
0.641656
 30
0.0
 11
0
 21
0.25906
 31
0.0
  0
LINE
  8
0
 62
     0
 10
0
 20
0.25906
 30
0.0
 11
0.0157878
 21
0.136339
 31
0.0
  0
LINE
  8
0
 62
     0
 10
0.0157878
 20
0.136339
 30
0.0
 11
0.0594075
 21
0.0563693
 31
0.0
  0
LINE
  8
0
 62
     0
 10
0.0594075
 20
0.0563693
 30
0.0
 11
0.124837
 21
0.0130208
 31
0.0
  0
LINE
  8
0
 62
     0
 10
0.124837
 20
0.0130208
 30
0.0
 11
0.206381
 21
-5.42535e-05
 31
0.0
  0
LINE
  8
0
 62
     0
 10
0.206381
 20
-5.42535e-05
 30
0.0
 11
0.296278
 21
0.011773
 31
0.0
  0
LINE
  8
0
 62
     0
 10
0.296278
 20
0.011773
 30
0.0
 11
0.361436
 21
0.0524089
 31
0.0
  0
LINE
  8
0
 62
     0
 10
0.361436
 20
0.0524089
 30
0.0
 11
0.401096
 21
0.129612
 31
0.0
  0
LINE
  8
0
 62
     0
 10
0.401096
 20
0.129612
 30
0.0
 11
0.414497
 21
0.251303
 31
0.0
  0
LINE
  8
0
 62
     0
 10
0.414497
 20
0.251303
 30
0.0
 11
0.414497
 21
0.335938
 31
0.0
  0
LINE
  8
0
 62
     0
 10
0.414497
 20
0.335938
 30
0.0
 11
0.252821
 21
0.335938
 31
0.0
  0
LINE
  8
0
 62
     0
 10
0.252821
 20
0.335938
 30
0.0
 11
0.252821
 21
0.21441
 31
0.0
  0
LINE
  8
0
 62
     0
 10
0.252821
 20
0.21441
 30
0.0
 11
0.250706
 21
0.181207
 31
0.0
  0
LINE
  8
0
 62
     0
 10
0.250706
 20
0.181207
 30
0.0
 11
0.243435
 21
0.159451
 31
0.0
  0
LINE
  8
0
 62
     0
 10
0.243435
 20
0.159451
 30
0.0
 11
0.229167
 21
0.147624
 31
0.0
  0
LINE
  8
0
 62
     0
 10
0.229167
 20
0.147624
 30
0.0
 11
0.206381
 21
0.144043
 31
0.0
  0
LINE
  8
0
 62
     0
 10
0.206381
 20
0.144043
 30
0.0
 11
0.181153
 21
0.150553
 31
0.0
  0
LINE
  8
0
 62
     0
 10
0.181153
 20
0.150553
 30
0.0
 11
0.167806
 21
0.167264
 31
0.0
  0
LINE
  8
0
 62
     0
 10
0.167806
 20
0.167264
 30
0.0
 11
0.162543
 21
0.189996
 31
0.0
  0
LINE
  8
0
 62
     0
 10
0.162543
 20
0.189996
 30
0.0
 11
0.161675
 21
0.21441
 31
0.0
  0
LINE
  8
0
 62
     0
 10
0.161675
 20
0.21441
 30
0.0
 11
0.161675
 21
0.686415
 31
0.0
  0
ENDSEC
  0
EOF
