  0
SECTION
  2
HEADER
  9
$ACADVER
  1
AC1009
  9
$EXTMIN
 10
0.0
 20
0.0
 30
0.0
  9
$EXTMAX
 10
1000.0
 20
1000.0
 30
0.0
  9
$FILLMODE
 70
 0
  9
$SPLFRAME
 70
 1
  0
ENDSEC
  0
SECTION
  2
TABLES
  0
TABLE
  2
LAYER
 70
1
  0
LAYER
  2
0
 70
     0
 62
     7
  6
CONTINUOUS
  0
ENDTAB
  0
ENDSEC
  0
SECTION
  2
ENTITIES
  0
LINE
  8
0
 62
     0
 10
-0.000108507
 20
1.40804
 30
0.0
 11
0.00851779
 21
1.39546
 31
0.0
  0
LINE
  8
0
 62
     0
 10
0.00851779
 20
1.39546
 30
0.0
 11
0.0313585
 21
1.35889
 31
0.0
  0
LINE
  8
0
 62
     0
 10
0.0313585
 20
1.35889
 30
0.0
 11
0.0636393
 21
1.30008
 31
0.0
  0
LINE
  8
0
 62
     0
 10
0.0636393
 20
1.30008
 30
0.0
 11
0.100694
 21
1.22081
 31
0.0
  0
LINE
  8
0
 62
     0
 10
0.100694
 20
1.22081
 30
0.0
 11
0.137695
 21
1.12299
 31
0.0
  0
LINE
  8
0
 62
     0
 10
0.137695
 20
1.12299
 30
0.0
 11
0.169976
 21
1.00841
 31
0.0
  0
LINE
  8
0
 62
     0
 10
0.169976
 20
1.00841
 30
0.0
 11
0.192817
 21
0.878743
 31
0.0
  0
LINE
  8
0
 62
     0
 10
0.192817
 20
0.878743
 30
0.0
 11
0.201497
 21
0.735894
 31
0.0
  0
LINE
  8
0
 62
     0
 10
0.201497
 20
0.735894
 30
0.0
 11
0.192817
 21
0.593207
 31
0.0
  0
LINE
  8
0
 62
     0
 10
0.192817
 20
0.593207
 30
0.0
 11
0.169976
 21
0.463813
 31
0.0
  0
LINE
  8
0
 62
     0
 10
0.169976
 20
0.463813
 30
0.0
 11
0.137695
 21
0.349501
 31
0.0
  0
LINE
  8
0
 62
     0
 10
0.137695
 20
0.349501
 30
0.0
 11
0.100694
 21
0.251953
 31
0.0
  0
LINE
  8
0
 62
     0
 10
0.100694
 20
0.251953
 30
0.0
 11
0.0636393
 21
0.173068
 31
0.0
  0
LINE
  8
0
 62
     0
 10
0.0636393
 20
0.173068
 30
0.0
 11
0.0313585
 21
0.114529
 31
0.0
  0
LINE
  8
0
 62
     0
 10
0.0313585
 20
0.114529
 30
0.0
 11
0.00851779
 21
0.078125
 31
0.0
  0
LINE
  8
0
 62
     0
 10
0.00851779
 20
0.078125
 30
0.0
 11
-0.000108507
 21
0.0655382
 31
0.0
  0
LINE
  8
0
 62
     0
 10
-0.000108507
 20
0.0655382
 30
0.0
 11
0.126411
 21
5.42535e-05
 31
0.0
  0
LINE
  8
0
 62
     0
 10
0.126411
 20
5.42535e-05
 30
0.0
 11
0.13623
 21
0.0152994
 31
0.0
  0
LINE
  8
0
 62
     0
 10
0.13623
 20
0.0152994
 30
0.0
 11
0.16211
 21
0.0588108
 31
0.0
  0
LINE
  8
0
 62
     0
 10
0.16211
 20
0.0588108
 30
0.0
 11
0.198731
 21
0.127441
 31
0.0
  0
LINE
  8
0
 62
     0
 10
0.198731
 20
0.127441
 30
0.0
 11
0.240776
 21
0.21799
 31
0.0
  0
LINE
  8
0
 62
     0
 10
0.240776
 20
0.21799
 30
0.0
 11
0.282769
 21
0.327311
 31
0.0
  0
LINE
  8
0
 62
     0
 10
0.282769
 20
0.327311
 30
0.0
 11
0.31939
 21
0.452203
 31
0.0
  0
LINE
  8
0
 62
     0
 10
0.31939
 20
0.452203
 30
0.0
 11
0.345269
 21
0.589464
 31
0.0
  0
LINE
  8
0
 62
     0
 10
0.345269
 20
0.589464
 30
0.0
 11
0.355143
 21
0.735894
 31
0.0
  0
LINE
  8
0
 62
     0
 10
0.355143
 20
0.735894
 30
0.0
 11
0.345269
 21
0.882488
 31
0.0
  0
LINE
  8
0
 62
     0
 10
0.345269
 20
0.882488
 30
0.0
 11
0.31939
 21
1.02002
 31
0.0
  0
LINE
  8
0
 62
     0
 10
0.31939
 20
1.02002
 30
0.0
 11
0.282769
 21
1.14518
 31
0.0
  0
LINE
  8
0
 62
     0
 10
0.282769
 20
1.14518
 30
0.0
 11
0.240776
 21
1.25478
 31
0.0
  0
LINE
  8
0
 62
     0
 10
0.240776
 20
1.25478
 30
0.0
 11
0.198731
 21
1.34565
 31
0.0
  0
LINE
  8
0
 62
     0
 10
0.198731
 20
1.34565
 30
0.0
 11
0.16211
 21
1.41456
 31
0.0
  0
LINE
  8
0
 62
     0
 10
0.16211
 20
1.41456
 30
0.0
 11
0.13623
 21
1.45828
 31
0.0
  0
LINE
  8
0
 62
     0
 10
0.13623
 20
1.45828
 30
0.0
 11
0.126411
 21
1.47353
 31
0.0
  0
LINE
  8
0
 62
     0
 10
0.126411
 20
1.47353
 30
0.0
 11
-0.000108507
 21
1.40804
 31
0.0
  0
ENDSEC
  0
EOF
