  0
SECTION
  2
HEADER
  9
$ACADVER
  1
AC1009
  9
$EXTMIN
 10
0.0
 20
0.0
 30
0.0
  9
$EXTMAX
 10
1000.0
 20
1000.0
 30
0.0
  9
$FILLMODE
 70
 0
  9
$SPLFRAME
 70
 1
  0
ENDSEC
  0
SECTION
  2
TABLES
  0
TABLE
  2
LAYER
 70
1
  0
LAYER
  2
0
 70
     0
 62
     7
  6
CONTINUOUS
  0
ENDTAB
  0
ENDSEC
  0
SECTION
  2
ENTITIES
  0
LINE
  8
0
 62
     0
 10
0.414387
 20
1.1888
 30
0.0
 11
0.252712
 21
1.1888
 31
0.0
  0
LINE
  8
0
 62
     0
 10
0.252712
 20
1.1888
 30
0.0
 11
0.252712
 21
0.830513
 31
0.0
  0
LINE
  8
0
 62
     0
 10
0.252712
 20
0.830513
 30
0.0
 11
0.240994
 21
0.841525
 31
0.0
  0
LINE
  8
0
 62
     0
 10
0.240994
 20
0.841525
 30
0.0
 11
0.210938
 21
0.865668
 31
0.0
  0
LINE
  8
0
 62
     0
 10
0.210938
 20
0.865668
 30
0.0
 11
0.16976
 21
0.889865
 31
0.0
  0
LINE
  8
0
 62
     0
 10
0.16976
 20
0.889865
 30
0.0
 11
0.124892
 21
0.900825
 31
0.0
  0
LINE
  8
0
 62
     0
 10
0.124892
 20
0.900825
 30
0.0
 11
0.094184
 21
0.896431
 31
0.0
  0
LINE
  8
0
 62
     0
 10
0.094184
 20
0.896431
 30
0.0
 11
0.0681424
 21
0.884224
 31
0.0
  0
LINE
  8
0
 62
     0
 10
0.0681424
 20
0.884224
 30
0.0
 11
0.0466037
 21
0.865668
 31
0.0
  0
LINE
  8
0
 62
     0
 10
0.0466037
 20
0.865668
 30
0.0
 11
0.0293511
 21
0.842231
 31
0.0
  0
LINE
  8
0
 62
     0
 10
0.0293511
 20
0.842231
 30
0.0
 11
0.0161675
 21
0.815483
 31
0.0
  0
LINE
  8
0
 62
     0
 10
0.0161675
 20
0.815483
 30
0.0
 11
0.00699869
 21
0.786783
 31
0.0
  0
LINE
  8
0
 62
     0
 10
0.00699869
 20
0.786783
 30
0.0
 11
0.00162761
 21
0.75765
 31
0.0
  0
LINE
  8
0
 62
     0
 10
0.00162761
 20
0.75765
 30
0.0
 11
-0.000108507
 21
0.7296
 31
0.0
  0
LINE
  8
0
 62
     0
 10
-0.000108507
 20
0.7296
 30
0.0
 11
-0.000108507
 21
0.171224
 31
0.0
  0
LINE
  8
0
 62
     0
 10
-0.000108507
 20
0.171224
 30
0.0
 11
0.00162761
 21
0.143229
 31
0.0
  0
LINE
  8
0
 62
     0
 10
0.00162761
 20
0.143229
 30
0.0
 11
0.00699869
 21
0.114095
 31
0.0
  0
LINE
  8
0
 62
     0
 10
0.00699869
 20
0.114095
 30
0.0
 11
0.0161675
 21
0.085395
 31
0.0
  0
LINE
  8
0
 62
     0
 10
0.0161675
 20
0.085395
 30
0.0
 11
0.0293511
 21
0.0585938
 31
0.0
  0
LINE
  8
0
 62
     0
 10
0.0293511
 20
0.0585938
 30
0.0
 11
0.0466037
 21
0.0352106
 31
0.0
  0
LINE
  8
0
 62
     0
 10
0.0466037
 20
0.0352106
 30
0.0
 11
0.0681424
 21
0.0166558
 31
0.0
  0
LINE
  8
0
 62
     0
 10
0.0681424
 20
0.0166558
 30
0.0
 11
0.094184
 21
0.00444878
 31
0.0
  0
LINE
  8
0
 62
     0
 10
0.094184
 20
0.00444878
 30
0.0
 11
0.124892
 21
-0
 31
0.0
  0
LINE
  8
0
 62
     0
 10
0.124892
 20
-0
 30
0.0
 11
0.16976
 21
0.0110135
 31
0.0
  0
LINE
  8
0
 62
     0
 10
0.16976
 20
0.0110135
 30
0.0
 11
0.210938
 21
0.0351563
 31
0.0
  0
LINE
  8
0
 62
     0
 10
0.210938
 20
0.0351563
 30
0.0
 11
0.240994
 21
0.0593533
 31
0.0
  0
LINE
  8
0
 62
     0
 10
0.240994
 20
0.0593533
 30
0.0
 11
0.252712
 21
0.0703125
 31
0.0
  0
LINE
  8
0
 62
     0
 10
0.252712
 20
0.0703125
 30
0.0
 11
0.252712
 21
0.0128038
 31
0.0
  0
LINE
  8
0
 62
     0
 10
0.252712
 20
0.0128038
 30
0.0
 11
0.414387
 21
0.0128038
 31
0.0
  0
LINE
  8
0
 62
     0
 10
0.414387
 20
0.0128038
 30
0.0
 11
0.414387
 21
1.1888
 31
0.0
  0
LINE
  8
0
 62
     0
 10
0.252712
 20
0.204861
 30
0.0
 11
0.248318
 21
0.183811
 31
0.0
  0
LINE
  8
0
 62
     0
 10
0.248318
 20
0.183811
 30
0.0
 11
0.237087
 21
0.166992
 31
0.0
  0
LINE
  8
0
 62
     0
 10
0.237087
 20
0.166992
 30
0.0
 11
0.221625
 21
0.155925
 31
0.0
  0
LINE
  8
0
 62
     0
 10
0.221625
 20
0.155925
 30
0.0
 11
0.204753
 21
0.15191
 31
0.0
  0
LINE
  8
0
 62
     0
 10
0.204753
 20
0.15191
 30
0.0
 11
0.187933
 21
0.155925
 31
0.0
  0
LINE
  8
0
 62
     0
 10
0.187933
 20
0.155925
 30
0.0
 11
0.174208
 21
0.166992
 31
0.0
  0
LINE
  8
0
 62
     0
 10
0.174208
 20
0.166992
 30
0.0
 11
0.164931
 21
0.183811
 31
0.0
  0
LINE
  8
0
 62
     0
 10
0.164931
 20
0.183811
 30
0.0
 11
0.161567
 21
0.204861
 31
0.0
  0
LINE
  8
0
 62
     0
 10
0.161567
 20
0.204861
 30
0.0
 11
0.161567
 21
0.695964
 31
0.0
  0
LINE
  8
0
 62
     0
 10
0.161567
 20
0.695964
 30
0.0
 11
0.164931
 21
0.717068
 31
0.0
  0
LINE
  8
0
 62
     0
 10
0.164931
 20
0.717068
 30
0.0
 11
0.174208
 21
0.733832
 31
0.0
  0
LINE
  8
0
 62
     0
 10
0.174208
 20
0.733832
 30
0.0
 11
0.187933
 21
0.744954
 31
0.0
  0
LINE
  8
0
 62
     0
 10
0.187933
 20
0.744954
 30
0.0
 11
0.204753
 21
0.748915
 31
0.0
  0
LINE
  8
0
 62
     0
 10
0.204753
 20
0.748915
 30
0.0
 11
0.222385
 21
0.744249
 31
0.0
  0
LINE
  8
0
 62
     0
 10
0.222385
 20
0.744249
 30
0.0
 11
0.237739
 21
0.732042
 31
0.0
  0
LINE
  8
0
 62
     0
 10
0.237739
 20
0.732042
 30
0.0
 11
0.248589
 21
0.715061
 31
0.0
  0
LINE
  8
0
 62
     0
 10
0.248589
 20
0.715061
 30
0.0
 11
0.252712
 21
0.695964
 31
0.0
  0
LINE
  8
0
 62
     0
 10
0.252712
 20
0.695964
 30
0.0
 11
0.252712
 21
0.461806
 31
0.0
  0
LINE
  8
0
 62
     0
 10
0.252712
 20
0.461806
 30
0.0
 11
0.252712
 21
0.204861
 31
0.0
  0
ENDSEC
  0
EOF
