  0
SECTION
  2
HEADER
  9
$ACADVER
  1
AC1009
  9
$EXTMIN
 10
0.0
 20
0.0
 30
0.0
  9
$EXTMAX
 10
1000.0
 20
1000.0
 30
0.0
  9
$FILLMODE
 70
 0
  9
$SPLFRAME
 70
 1
  0
ENDSEC
  0
SECTION
  2
TABLES
  0
TABLE
  2
LAYER
 70
1
  0
LAYER
  2
0
 70
     0
 62
     7
  6
CONTINUOUS
  0
ENDTAB
  0
ENDSEC
  0
SECTION
  2
ENTITIES
  0
LINE
  8
0
 62
     0
 10
0.480035
 20
0.587239
 30
0.0
 11
0.478353
 21
0.744792
 31
0.0
  0
LINE
  8
0
 62
     0
 10
0.478353
 20
0.744792
 30
0.0
 11
0.471246
 21
0.873426
 31
0.0
  0
LINE
  8
0
 62
     0
 10
0.471246
 20
0.873426
 30
0.0
 11
0.455513
 21
0.97564
 31
0.0
  0
LINE
  8
0
 62
     0
 10
0.455513
 20
0.97564
 30
0.0
 11
0.428006
 21
1.05382
 31
0.0
  0
LINE
  8
0
 62
     0
 10
0.428006
 20
1.05382
 30
0.0
 11
0.385471
 21
1.11057
 31
0.0
  0
LINE
  8
0
 62
     0
 10
0.385471
 20
1.11057
 30
0.0
 11
0.324761
 21
1.14817
 31
0.0
  0
LINE
  8
0
 62
     0
 10
0.324761
 20
1.14817
 30
0.0
 11
0.242676
 21
1.16916
 31
0.0
  0
LINE
  8
0
 62
     0
 10
0.242676
 20
1.16916
 30
0.0
 11
0.136068
 21
1.176
 31
0.0
  0
LINE
  8
0
 62
     0
 10
0.136068
 20
1.176
 30
0.0
 11
0
 21
1.176
 31
0.0
  0
LINE
  8
0
 62
     0
 10
0
 20
1.176
 30
0.0
 11
0
 21
-0
 31
0.0
  0
LINE
  8
0
 62
     0
 10
0
 20
-0
 30
0.0
 11
0.136068
 21
-0
 31
0.0
  0
LINE
  8
0
 62
     0
 10
0.136068
 20
-0
 30
0.0
 11
0.242676
 21
0.00683594
 31
0.0
  0
LINE
  8
0
 62
     0
 10
0.242676
 20
0.00683594
 30
0.0
 11
0.324761
 21
0.0278321
 31
0.0
  0
LINE
  8
0
 62
     0
 10
0.324761
 20
0.0278321
 30
0.0
 11
0.385471
 21
0.0654297
 31
0.0
  0
LINE
  8
0
 62
     0
 10
0.385471
 20
0.0654297
 30
0.0
 11
0.428006
 21
0.122016
 31
0.0
  0
LINE
  8
0
 62
     0
 10
0.428006
 20
0.122016
 30
0.0
 11
0.455513
 21
0.200086
 31
0.0
  0
LINE
  8
0
 62
     0
 10
0.455513
 20
0.200086
 30
0.0
 11
0.471246
 21
0.301975
 31
0.0
  0
LINE
  8
0
 62
     0
 10
0.471246
 20
0.301975
 30
0.0
 11
0.478353
 21
0.430231
 31
0.0
  0
LINE
  8
0
 62
     0
 10
0.478353
 20
0.430231
 30
0.0
 11
0.480035
 21
0.587239
 31
0.0
  0
LINE
  8
0
 62
     0
 10
0.172743
 20
1.00326
 30
0.0
 11
0.213217
 21
1.00125
 31
0.0
  0
LINE
  8
0
 62
     0
 10
0.213217
 20
1.00125
 30
0.0
 11
0.244303
 21
0.992512
 31
0.0
  0
LINE
  8
0
 62
     0
 10
0.244303
 20
0.992512
 30
0.0
 11
0.267144
 21
0.973415
 31
0.0
  0
LINE
  8
0
 62
     0
 10
0.267144
 20
0.973415
 30
0.0
 11
0.282986
 21
0.94005
 31
0.0
  0
LINE
  8
0
 62
     0
 10
0.282986
 20
0.94005
 30
0.0
 11
0.293024
 21
0.888726
 31
0.0
  0
LINE
  8
0
 62
     0
 10
0.293024
 20
0.888726
 30
0.0
 11
0.298503
 21
0.815593
 31
0.0
  0
LINE
  8
0
 62
     0
 10
0.298503
 20
0.815593
 30
0.0
 11
0.300672
 21
0.716906
 31
0.0
  0
LINE
  8
0
 62
     0
 10
0.300672
 20
0.716906
 30
0.0
 11
0.300781
 21
0.588758
 31
0.0
  0
LINE
  8
0
 62
     0
 10
0.300781
 20
0.588758
 30
0.0
 11
0.300672
 21
0.460178
 31
0.0
  0
LINE
  8
0
 62
     0
 10
0.300672
 20
0.460178
 30
0.0
 11
0.298503
 21
0.361111
 31
0.0
  0
LINE
  8
0
 62
     0
 10
0.298503
 20
0.361111
 30
0.0
 11
0.293024
 21
0.287706
 31
0.0
  0
LINE
  8
0
 62
     0
 10
0.293024
 20
0.287706
 30
0.0
 11
0.282986
 21
0.236165
 31
0.0
  0
LINE
  8
0
 62
     0
 10
0.282986
 20
0.236165
 30
0.0
 11
0.267144
 21
0.202746
 31
0.0
  0
LINE
  8
0
 62
     0
 10
0.267144
 20
0.202746
 30
0.0
 11
0.244303
 21
0.183539
 31
0.0
  0
LINE
  8
0
 62
     0
 10
0.244303
 20
0.183539
 30
0.0
 11
0.213217
 21
0.174804
 31
0.0
  0
LINE
  8
0
 62
     0
 10
0.213217
 20
0.174804
 30
0.0
 11
0.172743
 21
0.172743
 31
0.0
  0
LINE
  8
0
 62
     0
 10
0.172743
 20
0.172743
 30
0.0
 11
0.172743
 21
1.00326
 31
0.0
  0
ENDSEC
  0
EOF
