  0
SECTION
  2
HEADER
  9
$ACADVER
  1
AC1009
  9
$EXTMIN
 10
0.0
 20
0.0
 30
0.0
  9
$EXTMAX
 10
1000.0
 20
1000.0
 30
0.0
  9
$FILLMODE
 70
 0
  9
$SPLFRAME
 70
 1
  0
ENDSEC
  0
SECTION
  2
TABLES
  0
TABLE
  2
LAYER
 70
1
  0
LAYER
  2
0
 70
     0
 62
     7
  6
CONTINUOUS
  0
ENDTAB
  0
ENDSEC
  0
SECTION
  2
ENTITIES
  0
LINE
  8
0
 62
     0
 10
0.19515
 20
1.44011
 30
0.0
 11
0.19515
 21
1.33767
 31
0.0
  0
LINE
  8
0
 62
     0
 10
0.19515
 20
1.33767
 30
0.0
 11
0.114421
 21
1.2991
 31
0.0
  0
LINE
  8
0
 62
     0
 10
0.114421
 20
1.2991
 30
0.0
 11
0.0631511
 21
1.23524
 31
0.0
  0
LINE
  8
0
 62
     0
 10
0.0631511
 20
1.23524
 30
0.0
 11
0.0358072
 21
1.15582
 31
0.0
  0
LINE
  8
0
 62
     0
 10
0.0358072
 20
1.15582
 30
0.0
 11
0.027181
 21
1.07031
 31
0.0
  0
LINE
  8
0
 62
     0
 10
0.027181
 20
1.07031
 30
0.0
 11
0.0425347
 21
0.973036
 31
0.0
  0
LINE
  8
0
 62
     0
 10
0.0425347
 20
0.973036
 30
0.0
 11
0.08176
 21
0.880968
 31
0.0
  0
LINE
  8
0
 62
     0
 10
0.08176
 20
0.880968
 30
0.0
 11
0.13444
 21
0.795247
 31
0.0
  0
LINE
  8
0
 62
     0
 10
0.13444
 20
0.795247
 30
0.0
 11
0.190375
 21
0.716797
 31
0.0
  0
LINE
  8
0
 62
     0
 10
0.190375
 20
0.716797
 30
0.0
 11
0.234104
 21
0.656467
 31
0.0
  0
LINE
  8
0
 62
     0
 10
0.234104
 20
0.656467
 30
0.0
 11
0.277181
 21
0.591743
 31
0.0
  0
LINE
  8
0
 62
     0
 10
0.277181
 20
0.591743
 30
0.0
 11
0.310058
 21
0.52436
 31
0.0
  0
LINE
  8
0
 62
     0
 10
0.310058
 20
0.52436
 30
0.0
 11
0.323188
 21
0.455946
 31
0.0
  0
LINE
  8
0
 62
     0
 10
0.323188
 20
0.455946
 30
0.0
 11
0.318901
 21
0.401801
 31
0.0
  0
LINE
  8
0
 62
     0
 10
0.318901
 20
0.401801
 30
0.0
 11
0.307021
 21
0.355849
 31
0.0
  0
LINE
  8
0
 62
     0
 10
0.307021
 20
0.355849
 30
0.0
 11
0.285156
 21
0.324001
 31
0.0
  0
LINE
  8
0
 62
     0
 10
0.285156
 20
0.324001
 30
0.0
 11
0.251139
 21
0.312067
 31
0.0
  0
LINE
  8
0
 62
     0
 10
0.251139
 20
0.312067
 30
0.0
 11
0.205675
 21
0.324056
 31
0.0
  0
LINE
  8
0
 62
     0
 10
0.205675
 20
0.324056
 30
0.0
 11
0.175564
 21
0.356065
 31
0.0
  0
LINE
  8
0
 62
     0
 10
0.175564
 20
0.356065
 30
0.0
 11
0.15804
 21
0.402561
 31
0.0
  0
LINE
  8
0
 62
     0
 10
0.15804
 20
0.402561
 30
0.0
 11
0.150444
 21
0.457682
 31
0.0
  0
LINE
  8
0
 62
     0
 10
0.150444
 20
0.457682
 30
0.0
 11
5.42535e-05
 21
0.447917
 31
0.0
  0
LINE
  8
0
 62
     0
 10
5.42535e-05
 20
0.447917
 30
0.0
 11
0.0136176
 21
0.353028
 31
0.0
  0
LINE
  8
0
 62
     0
 10
0.0136176
 20
0.353028
 30
0.0
 11
0.0477974
 21
0.270236
 31
0.0
  0
LINE
  8
0
 62
     0
 10
0.0477974
 20
0.270236
 30
0.0
 11
0.106825
 21
0.207519
 31
0.0
  0
LINE
  8
0
 62
     0
 10
0.106825
 20
0.207519
 30
0.0
 11
0.19515
 21
0.172743
 31
0.0
  0
LINE
  8
0
 62
     0
 10
0.19515
 20
0.172743
 30
0.0
 11
0.19515
 21
-0
 31
0.0
  0
LINE
  8
0
 62
     0
 10
0.19515
 20
-0
 30
0.0
 11
0.291288
 21
-0
 31
0.0
  0
LINE
  8
0
 62
     0
 10
0.291288
 20
-0
 30
0.0
 11
0.291288
 21
0.169488
 31
0.0
  0
LINE
  8
0
 62
     0
 10
0.291288
 20
0.169488
 30
0.0
 11
0.383083
 21
0.203125
 31
0.0
  0
LINE
  8
0
 62
     0
 10
0.383083
 20
0.203125
 30
0.0
 11
0.441786
 21
0.268608
 31
0.0
  0
LINE
  8
0
 62
     0
 10
0.441786
 20
0.268608
 30
0.0
 11
0.473199
 21
0.356608
 31
0.0
  0
LINE
  8
0
 62
     0
 10
0.473199
 20
0.356608
 30
0.0
 11
0.483128
 21
0.457682
 31
0.0
  0
LINE
  8
0
 62
     0
 10
0.483128
 20
0.457682
 30
0.0
 11
0.467557
 21
0.556044
 31
0.0
  0
LINE
  8
0
 62
     0
 10
0.467557
 20
0.556044
 30
0.0
 11
0.428168
 21
0.647353
 31
0.0
  0
LINE
  8
0
 62
     0
 10
0.428168
 20
0.647353
 30
0.0
 11
0.375868
 21
0.731879
 31
0.0
  0
LINE
  8
0
 62
     0
 10
0.375868
 20
0.731879
 30
0.0
 11
0.321669
 21
0.809679
 31
0.0
  0
LINE
  8
0
 62
     0
 10
0.321669
 20
0.809679
 30
0.0
 11
0.275608
 21
0.87321
 31
0.0
  0
LINE
  8
0
 62
     0
 10
0.275608
 20
0.87321
 30
0.0
 11
0.23215
 21
0.938639
 31
0.0
  0
LINE
  8
0
 62
     0
 10
0.23215
 20
0.938639
 30
0.0
 11
0.199761
 21
1.00559
 31
0.0
  0
LINE
  8
0
 62
     0
 10
0.199761
 20
1.00559
 30
0.0
 11
0.187121
 21
1.07357
 31
0.0
  0
LINE
  8
0
 62
     0
 10
0.187121
 20
1.07357
 30
0.0
 11
0.191135
 21
1.11947
 31
0.0
  0
LINE
  8
0
 62
     0
 10
0.191135
 20
1.11947
 30
0.0
 11
0.201986
 21
1.15961
 31
0.0
  0
LINE
  8
0
 62
     0
 10
0.201986
 20
1.15961
 30
0.0
 11
0.221843
 21
1.18842
 31
0.0
  0
LINE
  8
0
 62
     0
 10
0.221843
 20
1.18842
 30
0.0
 11
0.252875
 21
1.20009
 31
0.0
  0
LINE
  8
0
 62
     0
 10
0.252875
 20
1.20009
 30
0.0
 11
0.283419
 21
1.19293
 31
0.0
  0
LINE
  8
0
 62
     0
 10
0.283419
 20
1.19293
 30
0.0
 11
0.304417
 21
1.1716
 31
0.0
  0
LINE
  8
0
 62
     0
 10
0.304417
 20
1.1716
 30
0.0
 11
0.317546
 21
1.14019
 31
0.0
  0
LINE
  8
0
 62
     0
 10
0.317546
 20
1.14019
 30
0.0
 11
0.324707
 21
1.10243
 31
0.0
  0
LINE
  8
0
 62
     0
 10
0.324707
 20
1.10243
 30
0.0
 11
0.475097
 21
1.12153
 31
0.0
  0
LINE
  8
0
 62
     0
 10
0.475097
 20
1.12153
 30
0.0
 11
0.468261
 21
1.16173
 31
0.0
  0
LINE
  8
0
 62
     0
 10
0.468261
 20
1.16173
 30
0.0
 11
0.458062
 21
1.19998
 31
0.0
  0
LINE
  8
0
 62
     0
 10
0.458062
 20
1.19998
 30
0.0
 11
0.443901
 21
1.23551
 31
0.0
  0
LINE
  8
0
 62
     0
 10
0.443901
 20
1.23551
 30
0.0
 11
0.425185
 21
1.26742
 31
0.0
  0
LINE
  8
0
 62
     0
 10
0.425185
 20
1.26742
 30
0.0
 11
0.40115
 21
1.29492
 31
0.0
  0
LINE
  8
0
 62
     0
 10
0.40115
 20
1.29492
 30
0.0
 11
0.371257
 21
1.31717
 31
0.0
  0
LINE
  8
0
 62
     0
 10
0.371257
 20
1.31717
 30
0.0
 11
0.334853
 21
1.33328
 31
0.0
  0
LINE
  8
0
 62
     0
 10
0.334853
 20
1.33328
 30
0.0
 11
0.291288
 21
1.34245
 31
0.0
  0
LINE
  8
0
 62
     0
 10
0.291288
 20
1.34245
 30
0.0
 11
0.291288
 21
1.44011
 31
0.0
  0
LINE
  8
0
 62
     0
 10
0.291288
 20
1.44011
 30
0.0
 11
0.19515
 21
1.44011
 31
0.0
  0
ENDSEC
  0
EOF
