  0
SECTION
  2
HEADER
  9
$ACADVER
  1
AC1009
  9
$EXTMIN
 10
0.0
 20
0.0
 30
0.0
  9
$EXTMAX
 10
1000.0
 20
1000.0
 30
0.0
  9
$FILLMODE
 70
 0
  9
$SPLFRAME
 70
 1
  0
ENDSEC
  0
SECTION
  2
TABLES
  0
TABLE
  2
LAYER
 70
1
  0
LAYER
  2
0
 70
     0
 62
     7
  6
CONTINUOUS
  0
ENDTAB
  0
ENDSEC
  0
SECTION
  2
ENTITIES
  0
LINE
  8
0
 62
     0
 10
0.267144
 20
0.326335
 30
0.0
 11
0.267144
 21
0.230469
 31
0.0
  0
LINE
  8
0
 62
     0
 10
0.267144
 20
0.230469
 30
0.0
 11
0.267144
 21
0.226725
 31
0.0
  0
LINE
  8
0
 62
     0
 10
0.267144
 20
0.226725
 30
0.0
 11
0.266656
 21
0.216743
 31
0.0
  0
LINE
  8
0
 62
     0
 10
0.266656
 20
0.216743
 30
0.0
 11
0.264919
 21
0.202582
 31
0.0
  0
LINE
  8
0
 62
     0
 10
0.264919
 20
0.202582
 30
0.0
 11
0.261176
 21
0.186415
 31
0.0
  0
LINE
  8
0
 62
     0
 10
0.261176
 20
0.186415
 30
0.0
 11
0.254503
 21
0.170247
 31
0.0
  0
LINE
  8
0
 62
     0
 10
0.254503
 20
0.170247
 30
0.0
 11
0.244249
 21
0.156088
 31
0.0
  0
LINE
  8
0
 62
     0
 10
0.244249
 20
0.156088
 30
0.0
 11
0.229546
 21
0.146104
 31
0.0
  0
LINE
  8
0
 62
     0
 10
0.229546
 20
0.146104
 30
0.0
 11
0.209636
 21
0.142307
 31
0.0
  0
LINE
  8
0
 62
     0
 10
0.209636
 20
0.142307
 30
0.0
 11
0.175347
 21
0.156088
 31
0.0
  0
LINE
  8
0
 62
     0
 10
0.175347
 20
0.156088
 30
0.0
 11
0.157769
 21
0.186415
 31
0.0
  0
LINE
  8
0
 62
     0
 10
0.157769
 20
0.186415
 30
0.0
 11
0.151312
 21
0.216743
 31
0.0
  0
LINE
  8
0
 62
     0
 10
0.151312
 20
0.216743
 30
0.0
 11
0.15039
 21
0.230469
 31
0.0
  0
LINE
  8
0
 62
     0
 10
0.15039
 20
0.230469
 30
0.0
 11
0.15039
 21
0.42079
 31
0.0
  0
LINE
  8
0
 62
     0
 10
0.15039
 20
0.42079
 30
0.0
 11
0.417535
 21
0.42079
 31
0.0
  0
LINE
  8
0
 62
     0
 10
0.417535
 20
0.42079
 30
0.0
 11
0.417535
 21
0.675131
 31
0.0
  0
LINE
  8
0
 62
     0
 10
0.417535
 20
0.675131
 30
0.0
 11
0.417156
 21
0.684842
 31
0.0
  0
LINE
  8
0
 62
     0
 10
0.417156
 20
0.684842
 30
0.0
 11
0.414497
 21
0.710394
 31
0.0
  0
LINE
  8
0
 62
     0
 10
0.414497
 20
0.710394
 30
0.0
 11
0.40701
 21
0.746582
 31
0.0
  0
LINE
  8
0
 62
     0
 10
0.40701
 20
0.746582
 30
0.0
 11
0.392199
 21
0.787978
 31
0.0
  0
LINE
  8
0
 62
     0
 10
0.392199
 20
0.787978
 30
0.0
 11
0.367512
 21
0.829428
 31
0.0
  0
LINE
  8
0
 62
     0
 10
0.367512
 20
0.829428
 30
0.0
 11
0.330512
 21
0.86556
 31
0.0
  0
LINE
  8
0
 62
     0
 10
0.330512
 20
0.86556
 30
0.0
 11
0.278754
 21
0.891168
 31
0.0
  0
LINE
  8
0
 62
     0
 10
0.278754
 20
0.891168
 30
0.0
 11
0.209636
 21
0.900825
 31
0.0
  0
LINE
  8
0
 62
     0
 10
0.209636
 20
0.900825
 30
0.0
 11
0.140842
 21
0.89095
 31
0.0
  0
LINE
  8
0
 62
     0
 10
0.140842
 20
0.89095
 30
0.0
 11
0.08903
 21
0.864854
 31
0.0
  0
LINE
  8
0
 62
     0
 10
0.08903
 20
0.864854
 30
0.0
 11
0.0518121
 21
0.827908
 31
0.0
  0
LINE
  8
0
 62
     0
 10
0.0518121
 20
0.827908
 30
0.0
 11
0.0267469
 21
0.78559
 31
0.0
  0
LINE
  8
0
 62
     0
 10
0.0267469
 20
0.78559
 30
0.0
 11
0.0114475
 21
0.743326
 31
0.0
  0
LINE
  8
0
 62
     0
 10
0.0114475
 20
0.743326
 30
0.0
 11
0.00347222
 21
0.706381
 31
0.0
  0
LINE
  8
0
 62
     0
 10
0.00347222
 20
0.706381
 30
0.0
 11
0.000434028
 21
0.680285
 31
0.0
  0
LINE
  8
0
 62
     0
 10
0.000434028
 20
0.680285
 30
0.0
 11
0
 21
0.670356
 31
0.0
  0
LINE
  8
0
 62
     0
 10
0
 20
0.670356
 30
0.0
 11
0
 21
0.230469
 31
0.0
  0
LINE
  8
0
 62
     0
 10
0
 20
0.230469
 30
0.0
 11
0.000379775
 21
0.220594
 31
0.0
  0
LINE
  8
0
 62
     0
 10
0.000379775
 20
0.220594
 30
0.0
 11
0.00320096
 21
0.194499
 31
0.0
  0
LINE
  8
0
 62
     0
 10
0.00320096
 20
0.194499
 30
0.0
 11
0.0109592
 21
0.157553
 31
0.0
  0
LINE
  8
0
 62
     0
 10
0.0109592
 20
0.157553
 30
0.0
 11
0.0259874
 21
0.115234
 31
0.0
  0
LINE
  8
0
 62
     0
 10
0.0259874
 20
0.115234
 30
0.0
 11
0.0507269
 21
0.0729167
 31
0.0
  0
LINE
  8
0
 62
     0
 10
0.0507269
 20
0.0729167
 30
0.0
 11
0.0876736
 21
0.03597
 31
0.0
  0
LINE
  8
0
 62
     0
 10
0.0876736
 20
0.03597
 30
0.0
 11
0.139268
 21
0.00987414
 31
0.0
  0
LINE
  8
0
 62
     0
 10
0.139268
 20
0.00987414
 30
0.0
 11
0.2079
 21
-5.42535e-05
 31
0.0
  0
LINE
  8
0
 62
     0
 10
0.2079
 20
-5.42535e-05
 30
0.0
 11
0.277072
 21
0.00965711
 31
0.0
  0
LINE
  8
0
 62
     0
 10
0.277072
 20
0.00965711
 30
0.0
 11
0.329047
 21
0.0352106
 31
0.0
  0
LINE
  8
0
 62
     0
 10
0.329047
 20
0.0352106
 30
0.0
 11
0.366319
 21
0.0713975
 31
0.0
  0
LINE
  8
0
 62
     0
 10
0.366319
 20
0.0713975
 30
0.0
 11
0.391331
 21
0.112793
 31
0.0
  0
LINE
  8
0
 62
     0
 10
0.391331
 20
0.112793
 30
0.0
 11
0.406467
 21
0.154243
 31
0.0
  0
LINE
  8
0
 62
     0
 10
0.406467
 20
0.154243
 30
0.0
 11
0.414225
 21
0.190375
 31
0.0
  0
LINE
  8
0
 62
     0
 10
0.414225
 20
0.190375
 30
0.0
 11
0.4171
 21
0.215983
 31
0.0
  0
LINE
  8
0
 62
     0
 10
0.4171
 20
0.215983
 30
0.0
 11
0.417535
 21
0.22564
 31
0.0
  0
LINE
  8
0
 62
     0
 10
0.417535
 20
0.22564
 30
0.0
 11
0.417535
 21
0.326335
 31
0.0
  0
LINE
  8
0
 62
     0
 10
0.417535
 20
0.326335
 30
0.0
 11
0.267144
 21
0.326335
 31
0.0
  0
LINE
  8
0
 62
     0
 10
0.15039
 20
0.670356
 30
0.0
 11
0.150499
 21
0.674208
 31
0.0
  0
LINE
  8
0
 62
     0
 10
0.150499
 20
0.674208
 30
0.0
 11
0.151312
 21
0.684407
 31
0.0
  0
LINE
  8
0
 62
     0
 10
0.151312
 20
0.684407
 30
0.0
 11
0.153483
 21
0.698731
 31
0.0
  0
LINE
  8
0
 62
     0
 10
0.153483
 20
0.698731
 30
0.0
 11
0.157769
 21
0.715169
 31
0.0
  0
LINE
  8
0
 62
     0
 10
0.157769
 20
0.715169
 30
0.0
 11
0.164822
 21
0.731662
 31
0.0
  0
LINE
  8
0
 62
     0
 10
0.164822
 20
0.731662
 30
0.0
 11
0.175347
 21
0.745985
 31
0.0
  0
LINE
  8
0
 62
     0
 10
0.175347
 20
0.745985
 30
0.0
 11
0.19005
 21
0.756185
 31
0.0
  0
LINE
  8
0
 62
     0
 10
0.19005
 20
0.756185
 30
0.0
 11
0.209636
 21
0.759983
 31
0.0
  0
LINE
  8
0
 62
     0
 10
0.209636
 20
0.759983
 30
0.0
 11
0.229546
 21
0.756185
 31
0.0
  0
LINE
  8
0
 62
     0
 10
0.229546
 20
0.756185
 30
0.0
 11
0.244249
 21
0.745985
 31
0.0
  0
LINE
  8
0
 62
     0
 10
0.244249
 20
0.745985
 30
0.0
 11
0.254503
 21
0.731662
 31
0.0
  0
LINE
  8
0
 62
     0
 10
0.254503
 20
0.731662
 30
0.0
 11
0.261176
 21
0.715169
 31
0.0
  0
LINE
  8
0
 62
     0
 10
0.261176
 20
0.715169
 30
0.0
 11
0.264919
 21
0.698731
 31
0.0
  0
LINE
  8
0
 62
     0
 10
0.264919
 20
0.698731
 30
0.0
 11
0.266656
 21
0.684407
 31
0.0
  0
LINE
  8
0
 62
     0
 10
0.266656
 20
0.684407
 30
0.0
 11
0.267144
 21
0.674208
 31
0.0
  0
LINE
  8
0
 62
     0
 10
0.267144
 20
0.674208
 30
0.0
 11
0.267144
 21
0.670356
 31
0.0
  0
LINE
  8
0
 62
     0
 10
0.267144
 20
0.670356
 30
0.0
 11
0.267144
 21
0.547254
 31
0.0
  0
LINE
  8
0
 62
     0
 10
0.267144
 20
0.547254
 30
0.0
 11
0.15039
 21
0.547254
 31
0.0
  0
LINE
  8
0
 62
     0
 10
0.15039
 20
0.547254
 30
0.0
 11
0.15039
 21
0.670356
 31
0.0
  0
ENDSEC
  0
EOF
