  0
SECTION
  2
HEADER
  9
$ACADVER
  1
AC1009
  9
$EXTMIN
 10
0.0
 20
0.0
 30
0.0
  9
$EXTMAX
 10
1000.0
 20
1000.0
 30
0.0
  9
$FILLMODE
 70
 0
  9
$SPLFRAME
 70
 1
  0
ENDSEC
  0
SECTION
  2
TABLES
  0
TABLE
  2
LAYER
 70
1
  0
LAYER
  2
0
 70
     0
 62
     7
  6
CONTINUOUS
  0
ENDTAB
  0
ENDSEC
  0
SECTION
  2
ENTITIES
  0
LINE
  8
0
 62
     0
 10
0.24311
 20
-0
 30
0.0
 11
0.24311
 21
0.7296
 31
0.0
  0
LINE
  8
0
 62
     0
 10
0.24311
 20
0.7296
 30
0.0
 11
0.324707
 21
0.7296
 31
0.0
  0
LINE
  8
0
 62
     0
 10
0.324707
 20
0.7296
 30
0.0
 11
0.324707
 21
0.875217
 31
0.0
  0
LINE
  8
0
 62
     0
 10
0.324707
 20
0.875217
 30
0.0
 11
0.24311
 21
0.875217
 31
0.0
  0
LINE
  8
0
 62
     0
 10
0.24311
 20
0.875217
 30
0.0
 11
0.24311
 21
0.884765
 31
0.0
  0
LINE
  8
0
 62
     0
 10
0.24311
 20
0.884765
 30
0.0
 11
0.24311
 21
0.897569
 31
0.0
  0
LINE
  8
0
 62
     0
 10
0.24311
 20
0.897569
 30
0.0
 11
0.243056
 21
0.915201
 31
0.0
  0
LINE
  8
0
 62
     0
 10
0.243056
 20
0.915201
 30
0.0
 11
0.243435
 21
0.936524
 31
0.0
  0
LINE
  8
0
 62
     0
 10
0.243435
 20
0.936524
 30
0.0
 11
0.245008
 21
0.959799
 31
0.0
  0
LINE
  8
0
 62
     0
 10
0.245008
 20
0.959799
 30
0.0
 11
0.248372
 21
0.983072
 31
0.0
  0
LINE
  8
0
 62
     0
 10
0.248372
 20
0.983072
 30
0.0
 11
0.254232
 21
1.00445
 31
0.0
  0
LINE
  8
0
 62
     0
 10
0.254232
 20
1.00445
 30
0.0
 11
0.2634
 21
1.02208
 31
0.0
  0
LINE
  8
0
 62
     0
 10
0.2634
 20
1.02208
 30
0.0
 11
0.276531
 21
1.03402
 31
0.0
  0
LINE
  8
0
 62
     0
 10
0.276531
 20
1.03402
 30
0.0
 11
0.294325
 21
1.03841
 31
0.0
  0
LINE
  8
0
 62
     0
 10
0.294325
 20
1.03841
 30
0.0
 11
0.328668
 21
1.03527
 31
0.0
  0
LINE
  8
0
 62
     0
 10
0.328668
 20
1.03527
 30
0.0
 11
0.342503
 21
1.03212
 31
0.0
  0
LINE
  8
0
 62
     0
 10
0.342503
 20
1.03212
 30
0.0
 11
0.342503
 21
1.17122
 31
0.0
  0
LINE
  8
0
 62
     0
 10
0.342503
 20
1.17122
 30
0.0
 11
0.33789
 21
1.17301
 31
0.0
  0
LINE
  8
0
 62
     0
 10
0.33789
 20
1.17301
 30
0.0
 11
0.324056
 21
1.17687
 31
0.0
  0
LINE
  8
0
 62
     0
 10
0.324056
 20
1.17687
 30
0.0
 11
0.300564
 21
1.18077
 31
0.0
  0
LINE
  8
0
 62
     0
 10
0.300564
 20
1.18077
 30
0.0
 11
0.267199
 21
1.18251
 31
0.0
  0
LINE
  8
0
 62
     0
 10
0.267199
 20
1.18251
 30
0.0
 11
0.205946
 21
1.1741
 31
0.0
  0
LINE
  8
0
 62
     0
 10
0.205946
 20
1.1741
 30
0.0
 11
0.159885
 21
1.1511
 31
0.0
  0
LINE
  8
0
 62
     0
 10
0.159885
 20
1.1511
 30
0.0
 11
0.126899
 21
1.11697
 31
0.0
  0
LINE
  8
0
 62
     0
 10
0.126899
 20
1.11697
 30
0.0
 11
0.104818
 21
1.07509
 31
0.0
  0
LINE
  8
0
 62
     0
 10
0.104818
 20
1.07509
 30
0.0
 11
0.0914171
 21
1.02897
 31
0.0
  0
LINE
  8
0
 62
     0
 10
0.0914171
 20
1.02897
 30
0.0
 11
0.0845269
 21
0.982042
 31
0.0
  0
LINE
  8
0
 62
     0
 10
0.0845269
 20
0.982042
 30
0.0
 11
0.0819769
 21
0.937663
 31
0.0
  0
LINE
  8
0
 62
     0
 10
0.0819769
 20
0.937663
 30
0.0
 11
0.0816515
 21
0.899306
 31
0.0
  0
LINE
  8
0
 62
     0
 10
0.0816515
 20
0.899306
 30
0.0
 11
0.0816515
 21
0.888021
 31
0.0
  0
LINE
  8
0
 62
     0
 10
0.0816515
 20
0.888021
 30
0.0
 11
0.0816515
 21
0.875217
 31
0.0
  0
LINE
  8
0
 62
     0
 10
0.0816515
 20
0.875217
 30
0.0
 11
5.42535e-05
 21
0.875217
 31
0.0
  0
LINE
  8
0
 62
     0
 10
5.42535e-05
 20
0.875217
 30
0.0
 11
5.42535e-05
 21
0.7296
 31
0.0
  0
LINE
  8
0
 62
     0
 10
5.42535e-05
 20
0.7296
 30
0.0
 11
0.0816515
 21
0.7296
 31
0.0
  0
LINE
  8
0
 62
     0
 10
0.0816515
 20
0.7296
 30
0.0
 11
0.0816515
 21
-0
 31
0.0
  0
LINE
  8
0
 62
     0
 10
0.0816515
 20
-0
 30
0.0
 11
0.24311
 21
-0
 31
0.0
  0
ENDSEC
  0
EOF
