  0
SECTION
  2
HEADER
  9
$ACADVER
  1
AC1009
  9
$EXTMIN
 10
0.0
 20
0.0
 30
0.0
  9
$EXTMAX
 10
1000.0
 20
1000.0
 30
0.0
  9
$FILLMODE
 70
 0
  9
$SPLFRAME
 70
 1
  0
ENDSEC
  0
SECTION
  2
TABLES
  0
TABLE
  2
LAYER
 70
1
  0
LAYER
  2
0
 70
     0
 62
     7
  6
CONTINUOUS
  0
ENDTAB
  0
ENDSEC
  0
SECTION
  2
ENTITIES
  0
LINE
  8
0
 62
     0
 10
0.449599
 20
0.983942
 30
0.0
 11
0.448568
 21
0.999783
 31
0.0
  0
LINE
  8
0
 62
     0
 10
0.448568
 20
0.999783
 30
0.0
 11
0.441569
 21
1.03841
 31
0.0
  0
LINE
  8
0
 62
     0
 10
0.441569
 20
1.03841
 30
0.0
 11
0.479818
 21
1.05154
 31
0.0
  0
LINE
  8
0
 62
     0
 10
0.479818
 20
1.05154
 30
0.0
 11
0.535969
 21
1.05751
 31
0.0
  0
LINE
  8
0
 62
     0
 10
0.535969
 20
1.05751
 30
0.0
 11
0.535969
 21
1.20161
 31
0.0
  0
LINE
  8
0
 62
     0
 10
0.535969
 20
1.20161
 30
0.0
 11
0.496094
 21
1.19228
 31
0.0
  0
LINE
  8
0
 62
     0
 10
0.496094
 20
1.19228
 30
0.0
 11
0.458171
 21
1.17003
 31
0.0
  0
LINE
  8
0
 62
     0
 10
0.458171
 20
1.17003
 30
0.0
 11
0.42589
 21
1.14361
 31
0.0
  0
LINE
  8
0
 62
     0
 10
0.42589
 20
1.14361
 30
0.0
 11
0.403157
 21
1.12153
 31
0.0
  0
LINE
  8
0
 62
     0
 10
0.403157
 20
1.12153
 30
0.0
 11
0.376574
 21
1.15229
 31
0.0
  0
LINE
  8
0
 62
     0
 10
0.376574
 20
1.15229
 30
0.0
 11
0.341635
 21
1.17779
 31
0.0
  0
LINE
  8
0
 62
     0
 10
0.341635
 20
1.17779
 30
0.0
 11
0.297037
 21
1.1952
 31
0.0
  0
LINE
  8
0
 62
     0
 10
0.297037
 20
1.1952
 30
0.0
 11
0.241699
 21
1.20161
 31
0.0
  0
LINE
  8
0
 62
     0
 10
0.241699
 20
1.20161
 30
0.0
 11
0.174968
 21
1.19206
 31
0.0
  0
LINE
  8
0
 62
     0
 10
0.174968
 20
1.19206
 30
0.0
 11
0.12462
 21
1.16688
 31
0.0
  0
LINE
  8
0
 62
     0
 10
0.12462
 20
1.16688
 30
0.0
 11
0.0882704
 21
1.13124
 31
0.0
  0
LINE
  8
0
 62
     0
 10
0.0882704
 20
1.13124
 30
0.0
 11
0.0636393
 21
1.09039
 31
0.0
  0
LINE
  8
0
 62
     0
 10
0.0636393
 20
1.09039
 30
0.0
 11
0.0484483
 21
1.04959
 31
0.0
  0
LINE
  8
0
 62
     0
 10
0.0484483
 20
1.04959
 30
0.0
 11
0.0404731
 21
1.01394
 31
0.0
  0
LINE
  8
0
 62
     0
 10
0.0404731
 20
1.01394
 30
0.0
 11
0.0373264
 21
0.988769
 31
0.0
  0
LINE
  8
0
 62
     0
 10
0.0373264
 20
0.988769
 30
0.0
 11
0.0368381
 21
0.979167
 31
0.0
  0
LINE
  8
0
 62
     0
 10
0.0368381
 20
0.979167
 30
0.0
 11
0.0368381
 21
0.740886
 31
0.0
  0
LINE
  8
0
 62
     0
 10
0.0368381
 20
0.740886
 30
0.0
 11
0.0370551
 21
0.735243
 31
0.0
  0
LINE
  8
0
 62
     0
 10
0.0370551
 20
0.735243
 30
0.0
 11
0.0384657
 21
0.719672
 31
0.0
  0
LINE
  8
0
 62
     0
 10
0.0384657
 20
0.719672
 30
0.0
 11
0.0421007
 21
0.696669
 31
0.0
  0
LINE
  8
0
 62
     0
 10
0.0421007
 20
0.696669
 30
0.0
 11
0.0489908
 21
0.668403
 31
0.0
  0
LINE
  8
0
 62
     0
 10
0.0489908
 20
0.668403
 30
0.0
 11
0.0601128
 21
0.637369
 31
0.0
  0
LINE
  8
0
 62
     0
 10
0.0601128
 20
0.637369
 30
0.0
 11
0.0765517
 21
0.605794
 31
0.0
  0
LINE
  8
0
 62
     0
 10
0.0765517
 20
0.605794
 30
0.0
 11
0.0993381
 21
0.57601
 31
0.0
  0
LINE
  8
0
 62
     0
 10
0.0993381
 20
0.57601
 30
0.0
 11
0.129503
 21
0.550347
 31
0.0
  0
LINE
  8
0
 62
     0
 10
0.129503
 20
0.550347
 30
0.0
 11
0.0942383
 21
0.526042
 31
0.0
  0
LINE
  8
0
 62
     0
 10
0.0942383
 20
0.526042
 30
0.0
 11
0.0617947
 21
0.493761
 31
0.0
  0
LINE
  8
0
 62
     0
 10
0.0617947
 20
0.493761
 30
0.0
 11
0.0380317
 21
0.457031
 31
0.0
  0
LINE
  8
0
 62
     0
 10
0.0380317
 20
0.457031
 30
0.0
 11
0.0288086
 21
0.419271
 31
0.0
  0
LINE
  8
0
 62
     0
 10
0.0288086
 20
0.419271
 30
0.0
 11
0.0366211
 21
0.374675
 31
0.0
  0
LINE
  8
0
 62
     0
 10
0.0366211
 20
0.374675
 30
0.0
 11
0.05778
 21
0.341038
 31
0.0
  0
LINE
  8
0
 62
     0
 10
0.05778
 20
0.341038
 30
0.0
 11
0.0888672
 21
0.317275
 31
0.0
  0
LINE
  8
0
 62
     0
 10
0.0888672
 20
0.317275
 30
0.0
 11
0.126465
 21
0.3023
 31
0.0
  0
LINE
  8
0
 62
     0
 10
0.126465
 20
0.3023
 30
0.0
 11
0.0810547
 21
0.277832
 31
0.0
  0
LINE
  8
0
 62
     0
 10
0.0810547
 20
0.277832
 30
0.0
 11
0.0404189
 21
0.247396
 31
0.0
  0
LINE
  8
0
 62
     0
 10
0.0404189
 20
0.247396
 30
0.0
 11
0.011122
 21
0.211208
 31
0.0
  0
LINE
  8
0
 62
     0
 10
0.011122
 20
0.211208
 30
0.0
 11
-5.42535e-05
 21
0.169488
 31
0.0
  0
LINE
  8
0
 62
     0
 10
-5.42535e-05
 20
0.169488
 30
0.0
 11
0.0186089
 21
0.08903
 31
0.0
  0
LINE
  8
0
 62
     0
 10
0.0186089
 20
0.08903
 30
0.0
 11
0.0713433
 21
0.0379775
 31
0.0
  0
LINE
  8
0
 62
     0
 10
0.0713433
 20
0.0379775
 30
0.0
 11
0.153157
 21
0.0103082
 31
0.0
  0
LINE
  8
0
 62
     0
 10
0.153157
 20
0.0103082
 30
0.0
 11
0.259278
 21
-0
 31
0.0
  0
LINE
  8
0
 62
     0
 10
0.259278
 20
-0
 30
0.0
 11
0.358507
 21
0.0109592
 31
0.0
  0
LINE
  8
0
 62
     0
 10
0.358507
 20
0.0109592
 30
0.0
 11
0.447428
 21
0.0477974
 31
0.0
  0
LINE
  8
0
 62
     0
 10
0.447428
 20
0.0477974
 30
0.0
 11
0.511393
 21
0.116753
 31
0.0
  0
LINE
  8
0
 62
     0
 10
0.511393
 20
0.116753
 30
0.0
 11
0.535969
 21
0.223958
 31
0.0
  0
LINE
  8
0
 62
     0
 10
0.535969
 20
0.223958
 30
0.0
 11
0.515136
 21
0.317871
 31
0.0
  0
LINE
  8
0
 62
     0
 10
0.515136
 20
0.317871
 30
0.0
 11
0.461751
 21
0.377225
 31
0.0
  0
LINE
  8
0
 62
     0
 10
0.461751
 20
0.377225
 30
0.0
 11
0.389486
 21
0.410699
 31
0.0
  0
LINE
  8
0
 62
     0
 10
0.389486
 20
0.410699
 30
0.0
 11
0.312011
 21
0.427083
 31
0.0
  0
LINE
  8
0
 62
     0
 10
0.312011
 20
0.427083
 30
0.0
 11
0.26774
 21
0.434571
 31
0.0
  0
LINE
  8
0
 62
     0
 10
0.26774
 20
0.434571
 30
0.0
 11
0.228136
 21
0.444228
 31
0.0
  0
LINE
  8
0
 62
     0
 10
0.228136
 20
0.444228
 30
0.0
 11
0.199653
 21
0.458985
 31
0.0
  0
LINE
  8
0
 62
     0
 10
0.199653
 20
0.458985
 30
0.0
 11
0.188747
 21
0.481554
 31
0.0
  0
LINE
  8
0
 62
     0
 10
0.188747
 20
0.481554
 30
0.0
 11
0.195096
 21
0.502169
 31
0.0
  0
LINE
  8
0
 62
     0
 10
0.195096
 20
0.502169
 30
0.0
 11
0.2111
 21
0.521485
 31
0.0
  0
LINE
  8
0
 62
     0
 10
0.2111
 20
0.521485
 30
0.0
 11
0.241699
 21
0.519965
 31
0.0
  0
LINE
  8
0
 62
     0
 10
0.241699
 20
0.519965
 30
0.0
 11
0.308919
 21
0.529297
 31
0.0
  0
LINE
  8
0
 62
     0
 10
0.308919
 20
0.529297
 30
0.0
 11
0.359864
 21
0.553711
 31
0.0
  0
LINE
  8
0
 62
     0
 10
0.359864
 20
0.553711
 30
0.0
 11
0.396701
 21
0.588325
 31
0.0
  0
LINE
  8
0
 62
     0
 10
0.396701
 20
0.588325
 30
0.0
 11
0.421821
 21
0.627929
 31
0.0
  0
LINE
  8
0
 62
     0
 10
0.421821
 20
0.627929
 30
0.0
 11
0.437338
 21
0.667589
 31
0.0
  0
LINE
  8
0
 62
     0
 10
0.437338
 20
0.667589
 30
0.0
 11
0.445637
 21
0.702203
 31
0.0
  0
LINE
  8
0
 62
     0
 10
0.445637
 20
0.702203
 30
0.0
 11
0.448947
 21
0.726617
 31
0.0
  0
LINE
  8
0
 62
     0
 10
0.448947
 20
0.726617
 30
0.0
 11
0.449599
 21
0.735894
 31
0.0
  0
LINE
  8
0
 62
     0
 10
0.449599
 20
0.735894
 30
0.0
 11
0.449599
 21
0.983942
 31
0.0
  0
LINE
  8
0
 62
     0
 10
0.291178
 20
0.972874
 30
0.0
 11
0.291178
 21
0.732856
 31
0.0
  0
LINE
  8
0
 62
     0
 10
0.291178
 20
0.732856
 30
0.0
 11
0.291069
 21
0.720594
 31
0.0
  0
LINE
  8
0
 62
     0
 10
0.291069
 20
0.720594
 30
0.0
 11
0.286783
 21
0.693576
 31
0.0
  0
LINE
  8
0
 62
     0
 10
0.286783
 20
0.693576
 30
0.0
 11
0.272299
 21
0.666613
 31
0.0
  0
LINE
  8
0
 62
     0
 10
0.272299
 20
0.666613
 30
0.0
 11
0.241699
 21
0.654297
 31
0.0
  0
LINE
  8
0
 62
     0
 10
0.241699
 20
0.654297
 30
0.0
 11
0.212836
 21
0.666613
 31
0.0
  0
LINE
  8
0
 62
     0
 10
0.212836
 20
0.666613
 30
0.0
 11
0.199274
 21
0.693576
 31
0.0
  0
LINE
  8
0
 62
     0
 10
0.199274
 20
0.693576
 30
0.0
 11
0.195313
 21
0.720594
 31
0.0
  0
LINE
  8
0
 62
     0
 10
0.195313
 20
0.720594
 30
0.0
 11
0.195258
 21
0.732856
 31
0.0
  0
LINE
  8
0
 62
     0
 10
0.195258
 20
0.732856
 30
0.0
 11
0.195258
 21
0.972874
 31
0.0
  0
LINE
  8
0
 62
     0
 10
0.195258
 20
0.972874
 30
0.0
 11
0.195313
 21
0.985351
 31
0.0
  0
LINE
  8
0
 62
     0
 10
0.195313
 20
0.985351
 30
0.0
 11
0.199274
 21
1.0128
 31
0.0
  0
LINE
  8
0
 62
     0
 10
0.199274
 20
1.0128
 30
0.0
 11
0.212836
 21
1.04026
 31
0.0
  0
LINE
  8
0
 62
     0
 10
0.212836
 20
1.04026
 30
0.0
 11
0.241699
 21
1.05273
 31
0.0
  0
LINE
  8
0
 62
     0
 10
0.241699
 20
1.05273
 30
0.0
 11
0.272299
 21
1.04026
 31
0.0
  0
LINE
  8
0
 62
     0
 10
0.272299
 20
1.04026
 30
0.0
 11
0.286783
 21
1.0128
 31
0.0
  0
LINE
  8
0
 62
     0
 10
0.286783
 20
1.0128
 30
0.0
 11
0.291069
 21
0.985351
 31
0.0
  0
LINE
  8
0
 62
     0
 10
0.291069
 20
0.985351
 30
0.0
 11
0.291178
 21
0.972874
 31
0.0
  0
LINE
  8
0
 62
     0
 10
0.385579
 20
0.195096
 30
0.0
 11
0.373969
 21
0.168403
 31
0.0
  0
LINE
  8
0
 62
     0
 10
0.373969
 20
0.168403
 30
0.0
 11
0.344347
 21
0.150065
 31
0.0
  0
LINE
  8
0
 62
     0
 10
0.344347
 20
0.150065
 30
0.0
 11
0.304525
 21
0.139486
 31
0.0
  0
LINE
  8
0
 62
     0
 10
0.304525
 20
0.139486
 30
0.0
 11
0.262315
 21
0.136068
 31
0.0
  0
LINE
  8
0
 62
     0
 10
0.262315
 20
0.136068
 30
0.0
 11
0.214789
 21
0.140842
 31
0.0
  0
LINE
  8
0
 62
     0
 10
0.214789
 20
0.140842
 30
0.0
 11
0.181967
 21
0.153863
 31
0.0
  0
LINE
  8
0
 62
     0
 10
0.181967
 20
0.153863
 30
0.0
 11
0.162978
 21
0.173178
 31
0.0
  0
LINE
  8
0
 62
     0
 10
0.162978
 20
0.173178
 30
0.0
 11
0.156847
 21
0.196832
 31
0.0
  0
LINE
  8
0
 62
     0
 10
0.156847
 20
0.196832
 30
0.0
 11
0.173828
 21
0.240614
 31
0.0
  0
LINE
  8
0
 62
     0
 10
0.173828
 20
0.240614
 30
0.0
 11
0.216092
 21
0.273654
 31
0.0
  0
LINE
  8
0
 62
     0
 10
0.216092
 20
0.273654
 30
0.0
 11
0.299208
 21
0.257596
 31
0.0
  0
LINE
  8
0
 62
     0
 10
0.299208
 20
0.257596
 30
0.0
 11
0.346462
 21
0.245876
 31
0.0
  0
LINE
  8
0
 62
     0
 10
0.346462
 20
0.245876
 30
0.0
 11
0.372396
 21
0.231825
 31
0.0
  0
LINE
  8
0
 62
     0
 10
0.372396
 20
0.231825
 30
0.0
 11
0.383301
 21
0.215061
 31
0.0
  0
LINE
  8
0
 62
     0
 10
0.383301
 20
0.215061
 30
0.0
 11
0.385579
 21
0.195096
 31
0.0
  0
ENDSEC
  0
EOF
