  0
SECTION
  2
HEADER
  9
$ACADVER
  1
AC1009
  9
$EXTMIN
 10
0.0
 20
0.0
 30
0.0
  9
$EXTMAX
 10
1000.0
 20
1000.0
 30
0.0
  9
$FILLMODE
 70
 0
  9
$SPLFRAME
 70
 1
  0
ENDSEC
  0
SECTION
  2
TABLES
  0
TABLE
  2
LAYER
 70
1
  0
LAYER
  2
0
 70
     0
 62
     7
  6
CONTINUOUS
  0
ENDTAB
  0
ENDSEC
  0
SECTION
  2
ENTITIES
  0
LINE
  8
0
 62
     0
 10
0.460883
 20
0.766493
 30
0.0
 11
0.460883
 21
0.947265
 31
0.0
  0
LINE
  8
0
 62
     0
 10
0.460883
 20
0.947265
 30
0.0
 11
0.460449
 21
0.958225
 31
0.0
  0
LINE
  8
0
 62
     0
 10
0.460449
 20
0.958225
 30
0.0
 11
0.457465
 21
0.987033
 31
0.0
  0
LINE
  8
0
 62
     0
 10
0.457465
 20
0.987033
 30
0.0
 11
0.44911
 21
1.02778
 31
0.0
  0
LINE
  8
0
 62
     0
 10
0.44911
 20
1.02778
 30
0.0
 11
0.432617
 21
1.07444
 31
0.0
  0
LINE
  8
0
 62
     0
 10
0.432617
 20
1.07444
 30
0.0
 11
0.405274
 21
1.12115
 31
0.0
  0
LINE
  8
0
 62
     0
 10
0.405274
 20
1.12115
 30
0.0
 11
0.364258
 21
1.16189
 31
0.0
  0
LINE
  8
0
 62
     0
 10
0.364258
 20
1.16189
 30
0.0
 11
0.306913
 21
1.1907
 31
0.0
  0
LINE
  8
0
 62
     0
 10
0.306913
 20
1.1907
 30
0.0
 11
0.230414
 21
1.20161
 31
0.0
  0
LINE
  8
0
 62
     0
 10
0.230414
 20
1.20161
 30
0.0
 11
0.153863
 21
1.1907
 31
0.0
  0
LINE
  8
0
 62
     0
 10
0.153863
 20
1.1907
 30
0.0
 11
0.0965169
 21
1.16189
 31
0.0
  0
LINE
  8
0
 62
     0
 10
0.0965169
 20
1.16189
 30
0.0
 11
0.0555012
 21
1.12115
 31
0.0
  0
LINE
  8
0
 62
     0
 10
0.0555012
 20
1.12115
 30
0.0
 11
0.0281575
 21
1.07444
 31
0.0
  0
LINE
  8
0
 62
     0
 10
0.0281575
 20
1.07444
 30
0.0
 11
0.0116645
 21
1.02778
 31
0.0
  0
LINE
  8
0
 62
     0
 10
0.0116645
 20
1.02778
 30
0.0
 11
0.00330946
 21
0.987033
 31
0.0
  0
LINE
  8
0
 62
     0
 10
0.00330946
 20
0.987033
 30
0.0
 11
0.000325521
 21
0.958225
 31
0.0
  0
LINE
  8
0
 62
     0
 10
0.000325521
 20
0.958225
 30
0.0
 11
-5.42535e-05
 21
0.947265
 31
0.0
  0
LINE
  8
0
 62
     0
 10
-5.42535e-05
 20
0.947265
 30
0.0
 11
-5.42535e-05
 21
0.25434
 31
0.0
  0
LINE
  8
0
 62
     0
 10
-5.42535e-05
 20
0.25434
 30
0.0
 11
-0.000325521
 21
0.243435
 31
0.0
  0
LINE
  8
0
 62
     0
 10
-0.000325521
 20
0.243435
 30
0.0
 11
0.000868056
 21
0.214626
 31
0.0
  0
LINE
  8
0
 62
     0
 10
0.000868056
 20
0.214626
 30
0.0
 11
0.00645617
 21
0.173882
 31
0.0
  0
LINE
  8
0
 62
     0
 10
0.00645617
 20
0.173882
 30
0.0
 11
0.0194228
 21
0.12717
 31
0.0
  0
LINE
  8
0
 62
     0
 10
0.0194228
 20
0.12717
 30
0.0
 11
0.042589
 21
0.0805122
 31
0.0
  0
LINE
  8
0
 62
     0
 10
0.042589
 20
0.0805122
 30
0.0
 11
0.0790474
 21
0.0397678
 31
0.0
  0
LINE
  8
0
 62
     0
 10
0.0790474
 20
0.0397678
 30
0.0
 11
0.131619
 21
0.0109592
 31
0.0
  0
LINE
  8
0
 62
     0
 10
0.131619
 20
0.0109592
 30
0.0
 11
0.203287
 21
-0
 31
0.0
  0
LINE
  8
0
 62
     0
 10
0.203287
 20
-0
 30
0.0
 11
0.242676
 21
0.00515408
 31
0.0
  0
LINE
  8
0
 62
     0
 10
0.242676
 20
0.00515408
 30
0.0
 11
0.278808
 21
0.0194228
 31
0.0
  0
LINE
  8
0
 62
     0
 10
0.278808
 20
0.0194228
 30
0.0
 11
0.310764
 21
0.0412326
 31
0.0
  0
LINE
  8
0
 62
     0
 10
0.310764
 20
0.0412326
 30
0.0
 11
0.337619
 21
0.0687933
 31
0.0
  0
LINE
  8
0
 62
     0
 10
0.337619
 20
0.0687933
 30
0.0
 11
0.358453
 21
0.0128038
 31
0.0
  0
LINE
  8
0
 62
     0
 10
0.358453
 20
0.0128038
 30
0.0
 11
0.460883
 21
0.0128038
 31
0.0
  0
LINE
  8
0
 62
     0
 10
0.460883
 20
0.0128038
 30
0.0
 11
0.460883
 21
0.598525
 31
0.0
  0
LINE
  8
0
 62
     0
 10
0.460883
 20
0.598525
 30
0.0
 11
0.219129
 21
0.598525
 31
0.0
  0
LINE
  8
0
 62
     0
 10
0.219129
 20
0.598525
 30
0.0
 11
0.219129
 21
0.452908
 31
0.0
  0
LINE
  8
0
 62
     0
 10
0.219129
 20
0.452908
 30
0.0
 11
0.287924
 21
0.452908
 31
0.0
  0
LINE
  8
0
 62
     0
 10
0.287924
 20
0.452908
 30
0.0
 11
0.287924
 21
0.240017
 31
0.0
  0
LINE
  8
0
 62
     0
 10
0.287924
 20
0.240017
 30
0.0
 11
0.287924
 21
0.236328
 31
0.0
  0
LINE
  8
0
 62
     0
 10
0.287924
 20
0.236328
 30
0.0
 11
0.287435
 21
0.226563
 31
0.0
  0
LINE
  8
0
 62
     0
 10
0.287435
 20
0.226563
 30
0.0
 11
0.285699
 21
0.212728
 31
0.0
  0
LINE
  8
0
 62
     0
 10
0.285699
 20
0.212728
 30
0.0
 11
0.281956
 21
0.196832
 31
0.0
  0
LINE
  8
0
 62
     0
 10
0.281956
 20
0.196832
 30
0.0
 11
0.275282
 21
0.180989
 31
0.0
  0
LINE
  8
0
 62
     0
 10
0.275282
 20
0.180989
 30
0.0
 11
0.265028
 21
0.167156
 31
0.0
  0
LINE
  8
0
 62
     0
 10
0.265028
 20
0.167156
 30
0.0
 11
0.250325
 21
0.157389
 31
0.0
  0
LINE
  8
0
 62
     0
 10
0.250325
 20
0.157389
 30
0.0
 11
0.230414
 21
0.153646
 31
0.0
  0
LINE
  8
0
 62
     0
 10
0.230414
 20
0.153646
 30
0.0
 11
0.210449
 21
0.157389
 31
0.0
  0
LINE
  8
0
 62
     0
 10
0.210449
 20
0.157389
 30
0.0
 11
0.195747
 21
0.167156
 31
0.0
  0
LINE
  8
0
 62
     0
 10
0.195747
 20
0.167156
 30
0.0
 11
0.185493
 21
0.180989
 31
0.0
  0
LINE
  8
0
 62
     0
 10
0.185493
 20
0.180989
 30
0.0
 11
0.178874
 21
0.196832
 31
0.0
  0
LINE
  8
0
 62
     0
 10
0.178874
 20
0.196832
 30
0.0
 11
0.175076
 21
0.212728
 31
0.0
  0
LINE
  8
0
 62
     0
 10
0.175076
 20
0.212728
 30
0.0
 11
0.17334
 21
0.226563
 31
0.0
  0
LINE
  8
0
 62
     0
 10
0.17334
 20
0.226563
 30
0.0
 11
0.172851
 21
0.236328
 31
0.0
  0
LINE
  8
0
 62
     0
 10
0.172851
 20
0.236328
 30
0.0
 11
0.172906
 21
0.240017
 31
0.0
  0
LINE
  8
0
 62
     0
 10
0.172906
 20
0.240017
 30
0.0
 11
0.172906
 21
0.947265
 31
0.0
  0
LINE
  8
0
 62
     0
 10
0.172906
 20
0.947265
 30
0.0
 11
0.172851
 21
0.95101
 31
0.0
  0
LINE
  8
0
 62
     0
 10
0.172851
 20
0.95101
 30
0.0
 11
0.17334
 21
0.960775
 31
0.0
  0
LINE
  8
0
 62
     0
 10
0.17334
 20
0.960775
 30
0.0
 11
0.175076
 21
0.97461
 31
0.0
  0
LINE
  8
0
 62
     0
 10
0.175076
 20
0.97461
 30
0.0
 11
0.178874
 21
0.990451
 31
0.0
  0
LINE
  8
0
 62
     0
 10
0.178874
 20
0.990451
 30
0.0
 11
0.185493
 21
1.00635
 31
0.0
  0
LINE
  8
0
 62
     0
 10
0.185493
 20
1.00635
 30
0.0
 11
0.195747
 21
1.02018
 31
0.0
  0
LINE
  8
0
 62
     0
 10
0.195747
 20
1.02018
 30
0.0
 11
0.210449
 21
1.02995
 31
0.0
  0
LINE
  8
0
 62
     0
 10
0.210449
 20
1.02995
 30
0.0
 11
0.230414
 21
1.03364
 31
0.0
  0
LINE
  8
0
 62
     0
 10
0.230414
 20
1.03364
 30
0.0
 11
0.250325
 21
1.02995
 31
0.0
  0
LINE
  8
0
 62
     0
 10
0.250325
 20
1.02995
 30
0.0
 11
0.265028
 21
1.02018
 31
0.0
  0
LINE
  8
0
 62
     0
 10
0.265028
 20
1.02018
 30
0.0
 11
0.275282
 21
1.00635
 31
0.0
  0
LINE
  8
0
 62
     0
 10
0.275282
 20
1.00635
 30
0.0
 11
0.281956
 21
0.990451
 31
0.0
  0
LINE
  8
0
 62
     0
 10
0.281956
 20
0.990451
 30
0.0
 11
0.285699
 21
0.97461
 31
0.0
  0
LINE
  8
0
 62
     0
 10
0.285699
 20
0.97461
 30
0.0
 11
0.287435
 21
0.960775
 31
0.0
  0
LINE
  8
0
 62
     0
 10
0.287435
 20
0.960775
 30
0.0
 11
0.287924
 21
0.95101
 31
0.0
  0
LINE
  8
0
 62
     0
 10
0.287924
 20
0.95101
 30
0.0
 11
0.287924
 21
0.947265
 31
0.0
  0
LINE
  8
0
 62
     0
 10
0.287924
 20
0.947265
 30
0.0
 11
0.287924
 21
0.766493
 31
0.0
  0
LINE
  8
0
 62
     0
 10
0.287924
 20
0.766493
 30
0.0
 11
0.460883
 21
0.766493
 31
0.0
  0
ENDSEC
  0
EOF
