  0
SECTION
  2
HEADER
  9
$ACADVER
  1
AC1009
  9
$EXTMIN
 10
0.0
 20
0.0
 30
0.0
  9
$EXTMAX
 10
1000.0
 20
1000.0
 30
0.0
  9
$FILLMODE
 70
 0
  9
$SPLFRAME
 70
 1
  0
ENDSEC
  0
SECTION
  2
TABLES
  0
TABLE
  2
LAYER
 70
1
  0
LAYER
  2
0
 70
     0
 62
     7
  6
CONTINUOUS
  0
ENDTAB
  0
ENDSEC
  0
SECTION
  2
ENTITIES
  0
LINE
  8
0
 62
     0
 10
0.478299
 20
0.731119
 30
0.0
 11
0.491808
 21
0.729872
 31
0.0
  0
LINE
  8
0
 62
     0
 10
0.491808
 20
0.729872
 30
0.0
 11
0.506022
 21
0.724556
 31
0.0
  0
LINE
  8
0
 62
     0
 10
0.506022
 20
0.724556
 30
0.0
 11
0.517144
 21
0.712999
 31
0.0
  0
LINE
  8
0
 62
     0
 10
0.517144
 20
0.712999
 30
0.0
 11
0.521701
 21
0.692925
 31
0.0
  0
LINE
  8
0
 62
     0
 10
0.521701
 20
0.692925
 30
0.0
 11
0.521701
 21
-0
 31
0.0
  0
LINE
  8
0
 62
     0
 10
0.521701
 20
-0
 30
0.0
 11
0.673611
 21
-0
 31
0.0
  0
LINE
  8
0
 62
     0
 10
0.673611
 20
-0
 30
0.0
 11
0.673611
 21
0.716797
 31
0.0
  0
LINE
  8
0
 62
     0
 10
0.673611
 20
0.716797
 30
0.0
 11
0.671929
 21
0.744846
 31
0.0
  0
LINE
  8
0
 62
     0
 10
0.671929
 20
0.744846
 30
0.0
 11
0.666721
 21
0.773981
 31
0.0
  0
LINE
  8
0
 62
     0
 10
0.666721
 20
0.773981
 30
0.0
 11
0.657932
 21
0.802681
 31
0.0
  0
LINE
  8
0
 62
     0
 10
0.657932
 20
0.802681
 30
0.0
 11
0.645236
 21
0.829428
 31
0.0
  0
LINE
  8
0
 62
     0
 10
0.645236
 20
0.829428
 30
0.0
 11
0.628472
 21
0.852864
 31
0.0
  0
LINE
  8
0
 62
     0
 10
0.628472
 20
0.852864
 30
0.0
 11
0.607476
 21
0.871419
 31
0.0
  0
LINE
  8
0
 62
     0
 10
0.607476
 20
0.871419
 30
0.0
 11
0.582086
 21
0.883626
 31
0.0
  0
LINE
  8
0
 62
     0
 10
0.582086
 20
0.883626
 30
0.0
 11
0.552083
 21
0.888021
 31
0.0
  0
LINE
  8
0
 62
     0
 10
0.552083
 20
0.888021
 30
0.0
 11
0.509006
 21
0.875489
 31
0.0
  0
LINE
  8
0
 62
     0
 10
0.509006
 20
0.875489
 30
0.0
 11
0.467014
 21
0.846463
 31
0.0
  0
LINE
  8
0
 62
     0
 10
0.467014
 20
0.846463
 30
0.0
 11
0.430664
 21
0.813803
 31
0.0
  0
LINE
  8
0
 62
     0
 10
0.430664
 20
0.813803
 30
0.0
 11
0.404731
 21
0.790364
 31
0.0
  0
LINE
  8
0
 62
     0
 10
0.404731
 20
0.790364
 30
0.0
 11
0.389106
 21
0.827257
 31
0.0
  0
LINE
  8
0
 62
     0
 10
0.389106
 20
0.827257
 30
0.0
 11
0.365994
 21
0.858399
 31
0.0
  0
LINE
  8
0
 62
     0
 10
0.365994
 20
0.858399
 30
0.0
 11
0.335015
 21
0.879992
 31
0.0
  0
LINE
  8
0
 62
     0
 10
0.335015
 20
0.879992
 30
0.0
 11
0.296007
 21
0.888021
 31
0.0
  0
LINE
  8
0
 62
     0
 10
0.296007
 20
0.888021
 30
0.0
 11
0.253147
 21
0.875706
 31
0.0
  0
LINE
  8
0
 62
     0
 10
0.253147
 20
0.875706
 30
0.0
 11
0.212619
 21
0.847874
 31
0.0
  0
LINE
  8
0
 62
     0
 10
0.212619
 20
0.847874
 30
0.0
 11
0.180176
 21
0.818576
 31
0.0
  0
LINE
  8
0
 62
     0
 10
0.180176
 20
0.818576
 30
0.0
 11
0.161675
 21
0.80165
 31
0.0
  0
LINE
  8
0
 62
     0
 10
0.161675
 20
0.80165
 30
0.0
 11
0.161675
 21
0.875217
 31
0.0
  0
LINE
  8
0
 62
     0
 10
0.161675
 20
0.875217
 30
0.0
 11
0
 21
0.875217
 31
0.0
  0
LINE
  8
0
 62
     0
 10
0
 20
0.875217
 30
0.0
 11
0
 21
-0
 31
0.0
  0
LINE
  8
0
 62
     0
 10
0
 20
-0
 30
0.0
 11
0.161675
 21
-0
 31
0.0
  0
LINE
  8
0
 62
     0
 10
0.161675
 20
-0
 30
0.0
 11
0.161675
 21
0.689669
 31
0.0
  0
LINE
  8
0
 62
     0
 10
0.161675
 20
0.689669
 30
0.0
 11
0.166613
 21
0.696181
 31
0.0
  0
LINE
  8
0
 62
     0
 10
0.166613
 20
0.696181
 30
0.0
 11
0.180013
 21
0.710394
 31
0.0
  0
LINE
  8
0
 62
     0
 10
0.180013
 20
0.710394
 30
0.0
 11
0.199382
 21
0.724664
 31
0.0
  0
LINE
  8
0
 62
     0
 10
0.199382
 20
0.724664
 30
0.0
 11
0.222439
 21
0.731119
 31
0.0
  0
LINE
  8
0
 62
     0
 10
0.222439
 20
0.731119
 30
0.0
 11
0.23584
 21
0.729872
 31
0.0
  0
LINE
  8
0
 62
     0
 10
0.23584
 20
0.729872
 30
0.0
 11
0.249946
 21
0.724556
 31
0.0
  0
LINE
  8
0
 62
     0
 10
0.249946
 20
0.724556
 30
0.0
 11
0.261068
 21
0.712999
 31
0.0
  0
LINE
  8
0
 62
     0
 10
0.261068
 20
0.712999
 30
0.0
 11
0.265625
 21
0.692925
 31
0.0
  0
LINE
  8
0
 62
     0
 10
0.265625
 20
0.692925
 30
0.0
 11
0.265625
 21
-0
 31
0.0
  0
LINE
  8
0
 62
     0
 10
0.265625
 20
-0
 30
0.0
 11
0.417535
 21
-0
 31
0.0
  0
LINE
  8
0
 62
     0
 10
0.417535
 20
-0
 30
0.0
 11
0.417535
 21
0.689669
 31
0.0
  0
LINE
  8
0
 62
     0
 10
0.417535
 20
0.689669
 30
0.0
 11
0.422526
 21
0.696181
 31
0.0
  0
LINE
  8
0
 62
     0
 10
0.422526
 20
0.696181
 30
0.0
 11
0.435926
 21
0.710394
 31
0.0
  0
LINE
  8
0
 62
     0
 10
0.435926
 20
0.710394
 30
0.0
 11
0.455294
 21
0.724664
 31
0.0
  0
LINE
  8
0
 62
     0
 10
0.455294
 20
0.724664
 30
0.0
 11
0.478299
 21
0.731119
 31
0.0
  0
ENDSEC
  0
EOF
