  0
SECTION
  2
HEADER
  9
$ACADVER
  1
AC1009
  9
$EXTMIN
 10
0.0
 20
0.0
 30
0.0
  9
$EXTMAX
 10
1000.0
 20
1000.0
 30
0.0
  9
$FILLMODE
 70
 0
  9
$SPLFRAME
 70
 1
  0
ENDSEC
  0
SECTION
  2
TABLES
  0
TABLE
  2
LAYER
 70
1
  0
LAYER
  2
0
 70
     0
 62
     7
  6
CONTINUOUS
  0
ENDTAB
  0
ENDSEC
  0
SECTION
  2
ENTITIES
  0
LINE
  8
0
 62
     0
 10
0.21441
 20
0.731119
 30
0.0
 11
0.228461
 21
0.729872
 31
0.0
  0
LINE
  8
0
 62
     0
 10
0.228461
 20
0.729872
 30
0.0
 11
0.240776
 21
0.724556
 31
0.0
  0
LINE
  8
0
 62
     0
 10
0.240776
 20
0.724556
 30
0.0
 11
0.249457
 21
0.712999
 31
0.0
  0
LINE
  8
0
 62
     0
 10
0.249457
 20
0.712999
 30
0.0
 11
0.252821
 21
0.692925
 31
0.0
  0
LINE
  8
0
 62
     0
 10
0.252821
 20
0.692925
 30
0.0
 11
0.252821
 21
-0
 31
0.0
  0
LINE
  8
0
 62
     0
 10
0.252821
 20
-0
 30
0.0
 11
0.414497
 21
-0
 31
0.0
  0
LINE
  8
0
 62
     0
 10
0.414497
 20
-0
 30
0.0
 11
0.414497
 21
0.716797
 31
0.0
  0
LINE
  8
0
 62
     0
 10
0.414497
 20
0.716797
 30
0.0
 11
0.412761
 21
0.744846
 31
0.0
  0
LINE
  8
0
 62
     0
 10
0.412761
 20
0.744846
 30
0.0
 11
0.407607
 21
0.773981
 31
0.0
  0
LINE
  8
0
 62
     0
 10
0.407607
 20
0.773981
 30
0.0
 11
0.398708
 21
0.802681
 31
0.0
  0
LINE
  8
0
 62
     0
 10
0.398708
 20
0.802681
 30
0.0
 11
0.386014
 21
0.829428
 31
0.0
  0
LINE
  8
0
 62
     0
 10
0.386014
 20
0.829428
 30
0.0
 11
0.369194
 21
0.852864
 31
0.0
  0
LINE
  8
0
 62
     0
 10
0.369194
 20
0.852864
 30
0.0
 11
0.348199
 21
0.871419
 31
0.0
  0
LINE
  8
0
 62
     0
 10
0.348199
 20
0.871419
 30
0.0
 11
0.322754
 21
0.883626
 31
0.0
  0
LINE
  8
0
 62
     0
 10
0.322754
 20
0.883626
 30
0.0
 11
0.292751
 21
0.888021
 31
0.0
  0
LINE
  8
0
 62
     0
 10
0.292751
 20
0.888021
 30
0.0
 11
0.250433
 21
0.875706
 31
0.0
  0
LINE
  8
0
 62
     0
 10
0.250433
 20
0.875706
 30
0.0
 11
0.210992
 21
0.847874
 31
0.0
  0
LINE
  8
0
 62
     0
 10
0.210992
 20
0.847874
 30
0.0
 11
0.179633
 21
0.818576
 31
0.0
  0
LINE
  8
0
 62
     0
 10
0.179633
 20
0.818576
 30
0.0
 11
0.161675
 21
0.80165
 31
0.0
  0
LINE
  8
0
 62
     0
 10
0.161675
 20
0.80165
 30
0.0
 11
0.161675
 21
0.875217
 31
0.0
  0
LINE
  8
0
 62
     0
 10
0.161675
 20
0.875217
 30
0.0
 11
0
 21
0.875217
 31
0.0
  0
LINE
  8
0
 62
     0
 10
0
 20
0.875217
 30
0.0
 11
0
 21
-0
 31
0.0
  0
LINE
  8
0
 62
     0
 10
0
 20
-0
 30
0.0
 11
0.161675
 21
-0
 31
0.0
  0
LINE
  8
0
 62
     0
 10
0.161675
 20
-0
 30
0.0
 11
0.161675
 21
0.0617404
 31
0.0
  0
LINE
  8
0
 62
     0
 10
0.161675
 20
0.0617404
 30
0.0
 11
0.161675
 21
0.115017
 31
0.0
  0
LINE
  8
0
 62
     0
 10
0.161675
 20
0.115017
 30
0.0
 11
0.161675
 21
0.167643
 31
0.0
  0
LINE
  8
0
 62
     0
 10
0.161675
 20
0.167643
 30
0.0
 11
0.161675
 21
0.227268
 31
0.0
  0
LINE
  8
0
 62
     0
 10
0.161675
 20
0.227268
 30
0.0
 11
0.161675
 21
0.301594
 31
0.0
  0
LINE
  8
0
 62
     0
 10
0.161675
 20
0.301594
 30
0.0
 11
0.161675
 21
0.398329
 31
0.0
  0
LINE
  8
0
 62
     0
 10
0.161675
 20
0.398329
 30
0.0
 11
0.161675
 21
0.525119
 31
0.0
  0
LINE
  8
0
 62
     0
 10
0.161675
 20
0.525119
 30
0.0
 11
0.161675
 21
0.689669
 31
0.0
  0
LINE
  8
0
 62
     0
 10
0.161675
 20
0.689669
 30
0.0
 11
0.165364
 21
0.696181
 31
0.0
  0
LINE
  8
0
 62
     0
 10
0.165364
 20
0.696181
 30
0.0
 11
0.175999
 21
0.710394
 31
0.0
  0
LINE
  8
0
 62
     0
 10
0.175999
 20
0.710394
 30
0.0
 11
0.1926
 21
0.724664
 31
0.0
  0
LINE
  8
0
 62
     0
 10
0.1926
 20
0.724664
 30
0.0
 11
0.21441
 21
0.731119
 31
0.0
  0
ENDSEC
  0
EOF
