  0
SECTION
  2
HEADER
  9
$ACADVER
  1
AC1009
  9
$EXTMIN
 10
0.0
 20
0.0
 30
0.0
  9
$EXTMAX
 10
1000.0
 20
1000.0
 30
0.0
  9
$FILLMODE
 70
 0
  9
$SPLFRAME
 70
 1
  0
ENDSEC
  0
SECTION
  2
TABLES
  0
TABLE
  2
LAYER
 70
1
  0
LAYER
  2
0
 70
     0
 62
     7
  6
CONTINUOUS
  0
ENDTAB
  0
ENDSEC
  0
SECTION
  2
ENTITIES
  0
LINE
  8
0
 62
     0
 10
0.350478
 20
-0
 30
0.0
 11
0.357042
 21
-0
 31
0.0
  0
LINE
  8
0
 62
     0
 10
0.357042
 20
-0
 30
0.0
 11
0.374403
 21
-0
 31
0.0
  0
LINE
  8
0
 62
     0
 10
0.374403
 20
-0
 30
0.0
 11
0.398981
 21
-0
 31
0.0
  0
LINE
  8
0
 62
     0
 10
0.398981
 20
-0
 30
0.0
 11
0.427192
 21
-0
 31
0.0
  0
LINE
  8
0
 62
     0
 10
0.427192
 20
-0
 30
0.0
 11
0.45535
 21
-0
 31
0.0
  0
LINE
  8
0
 62
     0
 10
0.45535
 20
-0
 30
0.0
 11
0.479926
 21
-0
 31
0.0
  0
LINE
  8
0
 62
     0
 10
0.479926
 20
-0
 30
0.0
 11
0.497287
 21
-0
 31
0.0
  0
LINE
  8
0
 62
     0
 10
0.497287
 20
-0
 30
0.0
 11
0.503906
 21
-0
 31
0.0
  0
LINE
  8
0
 62
     0
 10
0.503906
 20
-0
 30
0.0
 11
0.503906
 21
0.0505642
 31
0.0
  0
LINE
  8
0
 62
     0
 10
0.503906
 20
0.0505642
 30
0.0
 11
0.503906
 21
0.183757
 31
0.0
  0
LINE
  8
0
 62
     0
 10
0.503906
 20
0.183757
 30
0.0
 11
0.503906
 21
0.372125
 31
0.0
  0
LINE
  8
0
 62
     0
 10
0.503906
 20
0.372125
 30
0.0
 11
0.503906
 21
0.587999
 31
0.0
  0
LINE
  8
0
 62
     0
 10
0.503906
 20
0.587999
 30
0.0
 11
0.503906
 21
0.803928
 31
0.0
  0
LINE
  8
0
 62
     0
 10
0.503906
 20
0.803928
 30
0.0
 11
0.503906
 21
0.992296
 31
0.0
  0
LINE
  8
0
 62
     0
 10
0.503906
 20
0.992296
 30
0.0
 11
0.503906
 21
1.12549
 31
0.0
  0
LINE
  8
0
 62
     0
 10
0.503906
 20
1.12549
 30
0.0
 11
0.503906
 21
1.176
 31
0.0
  0
LINE
  8
0
 62
     0
 10
0.503906
 20
1.176
 30
0.0
 11
0.345486
 21
1.176
 31
0.0
  0
LINE
  8
0
 62
     0
 10
0.345486
 20
1.176
 30
0.0
 11
0.345486
 21
0.563151
 31
0.0
  0
LINE
  8
0
 62
     0
 10
0.345486
 20
0.563151
 30
0.0
 11
0.345486
 21
0.508897
 31
0.0
  0
LINE
  8
0
 62
     0
 10
0.345486
 20
0.508897
 30
0.0
 11
0.335938
 21
0.508897
 31
0.0
  0
LINE
  8
0
 62
     0
 10
0.335938
 20
0.508897
 30
0.0
 11
0.321614
 21
0.563151
 31
0.0
  0
LINE
  8
0
 62
     0
 10
0.321614
 20
0.563151
 30
0.0
 11
0.314344
 21
0.589518
 31
0.0
  0
LINE
  8
0
 62
     0
 10
0.314344
 20
0.589518
 30
0.0
 11
0.295356
 21
0.658908
 31
0.0
  0
LINE
  8
0
 62
     0
 10
0.295356
 20
0.658908
 30
0.0
 11
0.268446
 21
0.757107
 31
0.0
  0
LINE
  8
0
 62
     0
 10
0.268446
 20
0.757107
 30
0.0
 11
0.237631
 21
0.869575
 31
0.0
  0
LINE
  8
0
 62
     0
 10
0.237631
 20
0.869575
 30
0.0
 11
0.20676
 21
0.982096
 31
0.0
  0
LINE
  8
0
 62
     0
 10
0.20676
 20
0.982096
 30
0.0
 11
0.17985
 21
1.08024
 31
0.0
  0
LINE
  8
0
 62
     0
 10
0.17985
 20
1.08024
 30
0.0
 11
0.160861
 21
1.14968
 31
0.0
  0
LINE
  8
0
 62
     0
 10
0.160861
 20
1.14968
 30
0.0
 11
0.153646
 21
1.176
 31
0.0
  0
LINE
  8
0
 62
     0
 10
0.153646
 20
1.176
 30
0.0
 11
0.147026
 21
1.176
 31
0.0
  0
LINE
  8
0
 62
     0
 10
0.147026
 20
1.176
 30
0.0
 11
0.129612
 21
1.176
 31
0.0
  0
LINE
  8
0
 62
     0
 10
0.129612
 20
1.176
 30
0.0
 11
0.10498
 21
1.176
 31
0.0
  0
LINE
  8
0
 62
     0
 10
0.10498
 20
1.176
 30
0.0
 11
0.0768229
 21
1.176
 31
0.0
  0
LINE
  8
0
 62
     0
 10
0.0768229
 20
1.176
 30
0.0
 11
0.0486111
 21
1.176
 31
0.0
  0
LINE
  8
0
 62
     0
 10
0.0486111
 20
1.176
 30
0.0
 11
0.02398
 21
1.176
 31
0.0
  0
LINE
  8
0
 62
     0
 10
0.02398
 20
1.176
 30
0.0
 11
0.00656467
 21
1.176
 31
0.0
  0
LINE
  8
0
 62
     0
 10
0.00656467
 20
1.176
 30
0.0
 11
0
 21
1.176
 31
0.0
  0
LINE
  8
0
 62
     0
 10
0
 20
1.176
 30
0.0
 11
0
 21
1.12549
 31
0.0
  0
LINE
  8
0
 62
     0
 10
0
 20
1.12549
 30
0.0
 11
0
 21
0.992296
 31
0.0
  0
LINE
  8
0
 62
     0
 10
0
 20
0.992296
 30
0.0
 11
0
 21
0.803928
 31
0.0
  0
LINE
  8
0
 62
     0
 10
0
 20
0.803928
 30
0.0
 11
0
 21
0.587999
 31
0.0
  0
LINE
  8
0
 62
     0
 10
0
 20
0.587999
 30
0.0
 11
0
 21
0.372125
 31
0.0
  0
LINE
  8
0
 62
     0
 10
0
 20
0.372125
 30
0.0
 11
0
 21
0.183757
 31
0.0
  0
LINE
  8
0
 62
     0
 10
0
 20
0.183757
 30
0.0
 11
0
 21
0.0505642
 31
0.0
  0
LINE
  8
0
 62
     0
 10
0
 20
0.0505642
 30
0.0
 11
0
 21
-0
 31
0.0
  0
LINE
  8
0
 62
     0
 10
0
 20
-0
 30
0.0
 11
0.158419
 21
-0
 31
0.0
  0
LINE
  8
0
 62
     0
 10
0.158419
 20
-0
 30
0.0
 11
0.158419
 21
0.612847
 31
0.0
  0
LINE
  8
0
 62
     0
 10
0.158419
 20
0.612847
 30
0.0
 11
0.158419
 21
0.667318
 31
0.0
  0
LINE
  8
0
 62
     0
 10
0.158419
 20
0.667318
 30
0.0
 11
0.167969
 21
0.667318
 31
0.0
  0
LINE
  8
0
 62
     0
 10
0.167969
 20
0.667318
 30
0.0
 11
0.182292
 21
0.612847
 31
0.0
  0
LINE
  8
0
 62
     0
 10
0.182292
 20
0.612847
 30
0.0
 11
0.350478
 21
-0
 31
0.0
  0
ENDSEC
  0
EOF
