  0
SECTION
  2
HEADER
  9
$ACADVER
  1
AC1009
  9
$EXTMIN
 10
0.0
 20
0.0
 30
0.0
  9
$EXTMAX
 10
1000.0
 20
1000.0
 30
0.0
  9
$FILLMODE
 70
 0
  9
$SPLFRAME
 70
 1
  0
ENDSEC
  0
SECTION
  2
TABLES
  0
TABLE
  2
LAYER
 70
1
  0
LAYER
  2
0
 70
     0
 62
     7
  6
CONTINUOUS
  0
ENDTAB
  0
ENDSEC
  0
SECTION
  2
ENTITIES
  0
LINE
  8
0
 62
     0
 10
0.414387
 20
0.675131
 30
0.0
 11
0.414008
 21
0.684842
 31
0.0
  0
LINE
  8
0
 62
     0
 10
0.414008
 20
0.684842
 30
0.0
 11
0.41135
 21
0.710394
 31
0.0
  0
LINE
  8
0
 62
     0
 10
0.41135
 20
0.710394
 30
0.0
 11
0.403863
 21
0.746582
 31
0.0
  0
LINE
  8
0
 62
     0
 10
0.403863
 20
0.746582
 30
0.0
 11
0.389051
 21
0.787978
 31
0.0
  0
LINE
  8
0
 62
     0
 10
0.389051
 20
0.787978
 30
0.0
 11
0.364367
 21
0.829428
 31
0.0
  0
LINE
  8
0
 62
     0
 10
0.364367
 20
0.829428
 30
0.0
 11
0.327365
 21
0.86556
 31
0.0
  0
LINE
  8
0
 62
     0
 10
0.327365
 20
0.86556
 30
0.0
 11
0.275608
 21
0.891168
 31
0.0
  0
LINE
  8
0
 62
     0
 10
0.275608
 20
0.891168
 30
0.0
 11
0.206489
 21
0.900825
 31
0.0
  0
LINE
  8
0
 62
     0
 10
0.206489
 20
0.900825
 30
0.0
 11
0.137858
 21
0.89095
 31
0.0
  0
LINE
  8
0
 62
     0
 10
0.137858
 20
0.89095
 30
0.0
 11
0.0864258
 21
0.864854
 31
0.0
  0
LINE
  8
0
 62
     0
 10
0.0864258
 20
0.864854
 30
0.0
 11
0.0496961
 21
0.827908
 31
0.0
  0
LINE
  8
0
 62
     0
 10
0.0496961
 20
0.827908
 30
0.0
 11
0.0252279
 21
0.78559
 31
0.0
  0
LINE
  8
0
 62
     0
 10
0.0252279
 20
0.78559
 30
0.0
 11
0.0105252
 21
0.743326
 31
0.0
  0
LINE
  8
0
 62
     0
 10
0.0105252
 20
0.743326
 30
0.0
 11
0.00303819
 21
0.706381
 31
0.0
  0
LINE
  8
0
 62
     0
 10
0.00303819
 20
0.706381
 30
0.0
 11
0.000434028
 21
0.680285
 31
0.0
  0
LINE
  8
0
 62
     0
 10
0.000434028
 20
0.680285
 30
0.0
 11
0.000108507
 21
0.670356
 31
0.0
  0
LINE
  8
0
 62
     0
 10
0.000108507
 20
0.670356
 30
0.0
 11
0.000108507
 21
0.230469
 31
0.0
  0
LINE
  8
0
 62
     0
 10
0.000108507
 20
0.230469
 30
0.0
 11
0.000434028
 21
0.220594
 31
0.0
  0
LINE
  8
0
 62
     0
 10
0.000434028
 20
0.220594
 30
0.0
 11
0.00303819
 21
0.194499
 31
0.0
  0
LINE
  8
0
 62
     0
 10
0.00303819
 20
0.194499
 30
0.0
 11
0.0105252
 21
0.157553
 31
0.0
  0
LINE
  8
0
 62
     0
 10
0.0105252
 20
0.157553
 30
0.0
 11
0.0252279
 21
0.115234
 31
0.0
  0
LINE
  8
0
 62
     0
 10
0.0252279
 20
0.115234
 30
0.0
 11
0.0496961
 21
0.0729167
 31
0.0
  0
LINE
  8
0
 62
     0
 10
0.0496961
 20
0.0729167
 30
0.0
 11
0.0864258
 21
0.03597
 31
0.0
  0
LINE
  8
0
 62
     0
 10
0.0864258
 20
0.03597
 30
0.0
 11
0.137858
 21
0.00987414
 31
0.0
  0
LINE
  8
0
 62
     0
 10
0.137858
 20
0.00987414
 30
0.0
 11
0.206489
 21
-5.42535e-05
 31
0.0
  0
LINE
  8
0
 62
     0
 10
0.206489
 20
-5.42535e-05
 30
0.0
 11
0.275608
 21
0.00965711
 31
0.0
  0
LINE
  8
0
 62
     0
 10
0.275608
 20
0.00965711
 30
0.0
 11
0.327365
 21
0.0352106
 31
0.0
  0
LINE
  8
0
 62
     0
 10
0.327365
 20
0.0352106
 30
0.0
 11
0.364367
 21
0.0713975
 31
0.0
  0
LINE
  8
0
 62
     0
 10
0.364367
 20
0.0713975
 30
0.0
 11
0.389051
 21
0.112793
 31
0.0
  0
LINE
  8
0
 62
     0
 10
0.389051
 20
0.112793
 30
0.0
 11
0.403863
 21
0.154243
 31
0.0
  0
LINE
  8
0
 62
     0
 10
0.403863
 20
0.154243
 30
0.0
 11
0.41135
 21
0.190375
 31
0.0
  0
LINE
  8
0
 62
     0
 10
0.41135
 20
0.190375
 30
0.0
 11
0.414008
 21
0.215983
 31
0.0
  0
LINE
  8
0
 62
     0
 10
0.414008
 20
0.215983
 30
0.0
 11
0.414387
 21
0.22564
 31
0.0
  0
LINE
  8
0
 62
     0
 10
0.414387
 20
0.22564
 30
0.0
 11
0.414387
 21
0.675131
 31
0.0
  0
LINE
  8
0
 62
     0
 10
0.262478
 20
0.670356
 30
0.0
 11
0.262478
 21
0.230469
 31
0.0
  0
LINE
  8
0
 62
     0
 10
0.262478
 20
0.230469
 30
0.0
 11
0.262532
 21
0.226725
 31
0.0
  0
LINE
  8
0
 62
     0
 10
0.262532
 20
0.226725
 30
0.0
 11
0.262261
 21
0.216743
 31
0.0
  0
LINE
  8
0
 62
     0
 10
0.262261
 20
0.216743
 30
0.0
 11
0.260742
 21
0.202582
 31
0.0
  0
LINE
  8
0
 62
     0
 10
0.260742
 20
0.202582
 30
0.0
 11
0.257269
 21
0.186415
 31
0.0
  0
LINE
  8
0
 62
     0
 10
0.257269
 20
0.186415
 30
0.0
 11
0.250868
 21
0.170247
 31
0.0
  0
LINE
  8
0
 62
     0
 10
0.250868
 20
0.170247
 30
0.0
 11
0.240831
 21
0.156088
 31
0.0
  0
LINE
  8
0
 62
     0
 10
0.240831
 20
0.156088
 30
0.0
 11
0.226292
 21
0.146104
 31
0.0
  0
LINE
  8
0
 62
     0
 10
0.226292
 20
0.146104
 30
0.0
 11
0.206489
 21
0.142307
 31
0.0
  0
LINE
  8
0
 62
     0
 10
0.206489
 20
0.142307
 30
0.0
 11
0.187121
 21
0.146104
 31
0.0
  0
LINE
  8
0
 62
     0
 10
0.187121
 20
0.146104
 30
0.0
 11
0.17296
 21
0.156088
 31
0.0
  0
LINE
  8
0
 62
     0
 10
0.17296
 20
0.156088
 30
0.0
 11
0.163194
 21
0.170247
 31
0.0
  0
LINE
  8
0
 62
     0
 10
0.163194
 20
0.170247
 30
0.0
 11
0.15701
 21
0.186415
 31
0.0
  0
LINE
  8
0
 62
     0
 10
0.15701
 20
0.186415
 30
0.0
 11
0.153592
 21
0.202582
 31
0.0
  0
LINE
  8
0
 62
     0
 10
0.153592
 20
0.202582
 30
0.0
 11
0.152181
 21
0.216743
 31
0.0
  0
LINE
  8
0
 62
     0
 10
0.152181
 20
0.216743
 30
0.0
 11
0.15191
 21
0.226725
 31
0.0
  0
LINE
  8
0
 62
     0
 10
0.15191
 20
0.226725
 30
0.0
 11
0.152018
 21
0.230469
 31
0.0
  0
LINE
  8
0
 62
     0
 10
0.152018
 20
0.230469
 30
0.0
 11
0.152018
 21
0.670356
 31
0.0
  0
LINE
  8
0
 62
     0
 10
0.152018
 20
0.670356
 30
0.0
 11
0.15191
 21
0.674208
 31
0.0
  0
LINE
  8
0
 62
     0
 10
0.15191
 20
0.674208
 30
0.0
 11
0.152181
 21
0.684407
 31
0.0
  0
LINE
  8
0
 62
     0
 10
0.152181
 20
0.684407
 30
0.0
 11
0.153592
 21
0.698731
 31
0.0
  0
LINE
  8
0
 62
     0
 10
0.153592
 20
0.698731
 30
0.0
 11
0.15701
 21
0.715169
 31
0.0
  0
LINE
  8
0
 62
     0
 10
0.15701
 20
0.715169
 30
0.0
 11
0.163194
 21
0.731662
 31
0.0
  0
LINE
  8
0
 62
     0
 10
0.163194
 20
0.731662
 30
0.0
 11
0.17296
 21
0.745985
 31
0.0
  0
LINE
  8
0
 62
     0
 10
0.17296
 20
0.745985
 30
0.0
 11
0.187121
 21
0.756185
 31
0.0
  0
LINE
  8
0
 62
     0
 10
0.187121
 20
0.756185
 30
0.0
 11
0.206489
 21
0.759983
 31
0.0
  0
LINE
  8
0
 62
     0
 10
0.206489
 20
0.759983
 30
0.0
 11
0.226292
 21
0.756185
 31
0.0
  0
LINE
  8
0
 62
     0
 10
0.226292
 20
0.756185
 30
0.0
 11
0.240831
 21
0.745985
 31
0.0
  0
LINE
  8
0
 62
     0
 10
0.240831
 20
0.745985
 30
0.0
 11
0.250868
 21
0.731662
 31
0.0
  0
LINE
  8
0
 62
     0
 10
0.250868
 20
0.731662
 30
0.0
 11
0.257269
 21
0.715169
 31
0.0
  0
LINE
  8
0
 62
     0
 10
0.257269
 20
0.715169
 30
0.0
 11
0.260742
 21
0.698731
 31
0.0
  0
LINE
  8
0
 62
     0
 10
0.260742
 20
0.698731
 30
0.0
 11
0.262261
 21
0.684407
 31
0.0
  0
LINE
  8
0
 62
     0
 10
0.262261
 20
0.684407
 30
0.0
 11
0.262532
 21
0.674208
 31
0.0
  0
LINE
  8
0
 62
     0
 10
0.262532
 20
0.674208
 30
0.0
 11
0.262478
 21
0.670356
 31
0.0
  0
ENDSEC
  0
EOF
