  0
SECTION
  2
HEADER
  9
$ACADVER
  1
AC1009
  9
$EXTMIN
 10
0.0
 20
0.0
 30
0.0
  9
$EXTMAX
 10
1000.0
 20
1000.0
 30
0.0
  9
$FILLMODE
 70
 0
  9
$SPLFRAME
 70
 1
  0
ENDSEC
  0
SECTION
  2
TABLES
  0
TABLE
  2
LAYER
 70
1
  0
LAYER
  2
0
 70
     0
 62
     7
  6
CONTINUOUS
  0
ENDTAB
  0
ENDSEC
  0
SECTION
  2
ENTITIES
  0
LINE
  8
0
 62
     0
 10
0.228733
 20
1.47353
 30
0.0
 11
0.218858
 21
1.45828
 31
0.0
  0
LINE
  8
0
 62
     0
 10
0.218858
 20
1.45828
 30
0.0
 11
0.192979
 21
1.41456
 31
0.0
  0
LINE
  8
0
 62
     0
 10
0.192979
 20
1.41456
 30
0.0
 11
0.156358
 21
1.34565
 31
0.0
  0
LINE
  8
0
 62
     0
 10
0.156358
 20
1.34565
 30
0.0
 11
0.114366
 21
1.25478
 31
0.0
  0
LINE
  8
0
 62
     0
 10
0.114366
 20
1.25478
 30
0.0
 11
0.0723199
 21
1.14518
 31
0.0
  0
LINE
  8
0
 62
     0
 10
0.0723199
 20
1.14518
 30
0.0
 11
0.0356988
 21
1.02002
 31
0.0
  0
LINE
  8
0
 62
     0
 10
0.0356988
 20
1.02002
 30
0.0
 11
0.00981988
 21
0.882488
 31
0.0
  0
LINE
  8
0
 62
     0
 10
0.00981988
 20
0.882488
 30
0.0
 11
0
 21
0.735894
 31
0.0
  0
LINE
  8
0
 62
     0
 10
0
 20
0.735894
 30
0.0
 11
0.00981988
 21
0.589464
 31
0.0
  0
LINE
  8
0
 62
     0
 10
0.00981988
 20
0.589464
 30
0.0
 11
0.0356988
 21
0.452203
 31
0.0
  0
LINE
  8
0
 62
     0
 10
0.0356988
 20
0.452203
 30
0.0
 11
0.0723199
 21
0.327311
 31
0.0
  0
LINE
  8
0
 62
     0
 10
0.0723199
 20
0.327311
 30
0.0
 11
0.114366
 21
0.21799
 31
0.0
  0
LINE
  8
0
 62
     0
 10
0.114366
 20
0.21799
 30
0.0
 11
0.156358
 21
0.127441
 31
0.0
  0
LINE
  8
0
 62
     0
 10
0.156358
 20
0.127441
 30
0.0
 11
0.192979
 21
0.0588108
 31
0.0
  0
LINE
  8
0
 62
     0
 10
0.192979
 20
0.0588108
 30
0.0
 11
0.218858
 21
0.0152994
 31
0.0
  0
LINE
  8
0
 62
     0
 10
0.218858
 20
0.0152994
 30
0.0
 11
0.228733
 21
5.42535e-05
 31
0.0
  0
LINE
  8
0
 62
     0
 10
0.228733
 20
5.42535e-05
 30
0.0
 11
0.355251
 21
0.0655382
 31
0.0
  0
LINE
  8
0
 62
     0
 10
0.355251
 20
0.0655382
 30
0.0
 11
0.346571
 21
0.078125
 31
0.0
  0
LINE
  8
0
 62
     0
 10
0.346571
 20
0.078125
 30
0.0
 11
0.323731
 21
0.114529
 31
0.0
  0
LINE
  8
0
 62
     0
 10
0.323731
 20
0.114529
 30
0.0
 11
0.29145
 21
0.173068
 31
0.0
  0
LINE
  8
0
 62
     0
 10
0.29145
 20
0.173068
 30
0.0
 11
0.254449
 21
0.251953
 31
0.0
  0
LINE
  8
0
 62
     0
 10
0.254449
 20
0.251953
 30
0.0
 11
0.217393
 21
0.349501
 31
0.0
  0
LINE
  8
0
 62
     0
 10
0.217393
 20
0.349501
 30
0.0
 11
0.185113
 21
0.463813
 31
0.0
  0
LINE
  8
0
 62
     0
 10
0.185113
 20
0.463813
 30
0.0
 11
0.162272
 21
0.593207
 31
0.0
  0
LINE
  8
0
 62
     0
 10
0.162272
 20
0.593207
 30
0.0
 11
0.153646
 21
0.735894
 31
0.0
  0
LINE
  8
0
 62
     0
 10
0.153646
 20
0.735894
 30
0.0
 11
0.162272
 21
0.878743
 31
0.0
  0
LINE
  8
0
 62
     0
 10
0.162272
 20
0.878743
 30
0.0
 11
0.185113
 21
1.00841
 31
0.0
  0
LINE
  8
0
 62
     0
 10
0.185113
 20
1.00841
 30
0.0
 11
0.217393
 21
1.12299
 31
0.0
  0
LINE
  8
0
 62
     0
 10
0.217393
 20
1.12299
 30
0.0
 11
0.254449
 21
1.22081
 31
0.0
  0
LINE
  8
0
 62
     0
 10
0.254449
 20
1.22081
 30
0.0
 11
0.29145
 21
1.30008
 31
0.0
  0
LINE
  8
0
 62
     0
 10
0.29145
 20
1.30008
 30
0.0
 11
0.323731
 21
1.35889
 31
0.0
  0
LINE
  8
0
 62
     0
 10
0.323731
 20
1.35889
 30
0.0
 11
0.346571
 21
1.39546
 31
0.0
  0
LINE
  8
0
 62
     0
 10
0.346571
 20
1.39546
 30
0.0
 11
0.355251
 21
1.40804
 31
0.0
  0
LINE
  8
0
 62
     0
 10
0.355251
 20
1.40804
 30
0.0
 11
0.228733
 21
1.47353
 31
0.0
  0
ENDSEC
  0
EOF
