  0
SECTION
  2
HEADER
  9
$ACADVER
  1
AC1009
  9
$EXTMIN
 10
0.0
 20
0.0
 30
0.0
  9
$EXTMAX
 10
1000.0
 20
1000.0
 30
0.0
  9
$FILLMODE
 70
 0
  9
$SPLFRAME
 70
 1
  0
ENDSEC
  0
SECTION
  2
TABLES
  0
TABLE
  2
LAYER
 70
1
  0
LAYER
  2
0
 70
     0
 62
     7
  6
CONTINUOUS
  0
ENDTAB
  0
ENDSEC
  0
SECTION
  2
ENTITIES
  0
LINE
  8
0
 62
     0
 10
0
 20
-0
 30
0.0
 11
0.161675
 21
-0
 31
0.0
  0
LINE
  8
0
 62
     0
 10
0.161675
 20
-0
 30
0.0
 11
0.161675
 21
0.35829
 31
0.0
  0
LINE
  8
0
 62
     0
 10
0.161675
 20
0.35829
 30
0.0
 11
0.17334
 21
0.347331
 31
0.0
  0
LINE
  8
0
 62
     0
 10
0.17334
 20
0.347331
 30
0.0
 11
0.20345
 21
0.323133
 31
0.0
  0
LINE
  8
0
 62
     0
 10
0.20345
 20
0.323133
 30
0.0
 11
0.244575
 21
0.29899
 31
0.0
  0
LINE
  8
0
 62
     0
 10
0.244575
 20
0.29899
 30
0.0
 11
0.289497
 21
0.287978
 31
0.0
  0
LINE
  8
0
 62
     0
 10
0.289497
 20
0.287978
 30
0.0
 11
0.32015
 21
0.292426
 31
0.0
  0
LINE
  8
0
 62
     0
 10
0.32015
 20
0.292426
 30
0.0
 11
0.346192
 21
0.304633
 31
0.0
  0
LINE
  8
0
 62
     0
 10
0.346192
 20
0.304633
 30
0.0
 11
0.367731
 21
0.323188
 31
0.0
  0
LINE
  8
0
 62
     0
 10
0.367731
 20
0.323188
 30
0.0
 11
0.385038
 21
0.346571
 31
0.0
  0
LINE
  8
0
 62
     0
 10
0.385038
 20
0.346571
 30
0.0
 11
0.398167
 21
0.373372
 31
0.0
  0
LINE
  8
0
 62
     0
 10
0.398167
 20
0.373372
 30
0.0
 11
0.407335
 21
0.402072
 31
0.0
  0
LINE
  8
0
 62
     0
 10
0.407335
 20
0.402072
 30
0.0
 11
0.412706
 21
0.431207
 31
0.0
  0
LINE
  8
0
 62
     0
 10
0.412706
 20
0.431207
 30
0.0
 11
0.414497
 21
0.459201
 31
0.0
  0
LINE
  8
0
 62
     0
 10
0.414497
 20
0.459201
 30
0.0
 11
0.414497
 21
1.01758
 31
0.0
  0
LINE
  8
0
 62
     0
 10
0.414497
 20
1.01758
 30
0.0
 11
0.412706
 21
1.04563
 31
0.0
  0
LINE
  8
0
 62
     0
 10
0.412706
 20
1.04563
 30
0.0
 11
0.407335
 21
1.07476
 31
0.0
  0
LINE
  8
0
 62
     0
 10
0.407335
 20
1.07476
 30
0.0
 11
0.398167
 21
1.10346
 31
0.0
  0
LINE
  8
0
 62
     0
 10
0.398167
 20
1.10346
 30
0.0
 11
0.385038
 21
1.13021
 31
0.0
  0
LINE
  8
0
 62
     0
 10
0.385038
 20
1.13021
 30
0.0
 11
0.367731
 21
1.15365
 31
0.0
  0
LINE
  8
0
 62
     0
 10
0.367731
 20
1.15365
 30
0.0
 11
0.346192
 21
1.1722
 31
0.0
  0
LINE
  8
0
 62
     0
 10
0.346192
 20
1.1722
 30
0.0
 11
0.32015
 21
1.18441
 31
0.0
  0
LINE
  8
0
 62
     0
 10
0.32015
 20
1.18441
 30
0.0
 11
0.289497
 21
1.1888
 31
0.0
  0
LINE
  8
0
 62
     0
 10
0.289497
 20
1.1888
 30
0.0
 11
0.244575
 21
1.17784
 31
0.0
  0
LINE
  8
0
 62
     0
 10
0.244575
 20
1.17784
 30
0.0
 11
0.20345
 21
1.15365
 31
0.0
  0
LINE
  8
0
 62
     0
 10
0.20345
 20
1.15365
 30
0.0
 11
0.17334
 21
1.1295
 31
0.0
  0
LINE
  8
0
 62
     0
 10
0.17334
 20
1.1295
 30
0.0
 11
0.161675
 21
1.11849
 31
0.0
  0
LINE
  8
0
 62
     0
 10
0.161675
 20
1.11849
 30
0.0
 11
0.161675
 21
1.176
 31
0.0
  0
LINE
  8
0
 62
     0
 10
0.161675
 20
1.176
 30
0.0
 11
0
 21
1.176
 31
0.0
  0
LINE
  8
0
 62
     0
 10
0
 20
1.176
 30
0.0
 11
0
 21
-0
 31
0.0
  0
LINE
  8
0
 62
     0
 10
0.161675
 20
0.983942
 30
0.0
 11
0.166015
 21
1.00505
 31
0.0
  0
LINE
  8
0
 62
     0
 10
0.166015
 20
1.00505
 30
0.0
 11
0.177246
 21
1.02181
 31
0.0
  0
LINE
  8
0
 62
     0
 10
0.177246
 20
1.02181
 30
0.0
 11
0.192708
 21
1.03293
 31
0.0
  0
LINE
  8
0
 62
     0
 10
0.192708
 20
1.03293
 30
0.0
 11
0.209636
 21
1.03689
 31
0.0
  0
LINE
  8
0
 62
     0
 10
0.209636
 20
1.03689
 30
0.0
 11
0.226454
 21
1.03293
 31
0.0
  0
LINE
  8
0
 62
     0
 10
0.226454
 20
1.03293
 30
0.0
 11
0.240181
 21
1.02181
 31
0.0
  0
LINE
  8
0
 62
     0
 10
0.240181
 20
1.02181
 30
0.0
 11
0.249403
 21
1.00505
 31
0.0
  0
LINE
  8
0
 62
     0
 10
0.249403
 20
1.00505
 30
0.0
 11
0.252821
 21
0.983942
 31
0.0
  0
LINE
  8
0
 62
     0
 10
0.252821
 20
0.983942
 30
0.0
 11
0.252821
 21
0.492839
 31
0.0
  0
LINE
  8
0
 62
     0
 10
0.252821
 20
0.492839
 30
0.0
 11
0.249403
 21
0.471789
 31
0.0
  0
LINE
  8
0
 62
     0
 10
0.249403
 20
0.471789
 30
0.0
 11
0.240181
 21
0.454969
 31
0.0
  0
LINE
  8
0
 62
     0
 10
0.240181
 20
0.454969
 30
0.0
 11
0.226454
 21
0.443901
 31
0.0
  0
LINE
  8
0
 62
     0
 10
0.226454
 20
0.443901
 30
0.0
 11
0.209636
 21
0.439888
 31
0.0
  0
LINE
  8
0
 62
     0
 10
0.209636
 20
0.439888
 30
0.0
 11
0.191949
 21
0.444607
 31
0.0
  0
LINE
  8
0
 62
     0
 10
0.191949
 20
0.444607
 30
0.0
 11
0.176594
 21
0.45676
 31
0.0
  0
LINE
  8
0
 62
     0
 10
0.176594
 20
0.45676
 30
0.0
 11
0.165744
 21
0.473796
 31
0.0
  0
LINE
  8
0
 62
     0
 10
0.165744
 20
0.473796
 30
0.0
 11
0.161675
 21
0.492839
 31
0.0
  0
LINE
  8
0
 62
     0
 10
0.161675
 20
0.492839
 30
0.0
 11
0.161675
 21
0.726997
 31
0.0
  0
LINE
  8
0
 62
     0
 10
0.161675
 20
0.726997
 30
0.0
 11
0.161675
 21
0.983942
 31
0.0
  0
ENDSEC
  0
EOF
