  0
SECTION
  2
HEADER
  9
$ACADVER
  1
AC1009
  9
$EXTMIN
 10
0.0
 20
0.0
 30
0.0
  9
$EXTMAX
 10
1000.0
 20
1000.0
 30
0.0
  9
$FILLMODE
 70
 0
  9
$SPLFRAME
 70
 1
  0
ENDSEC
  0
SECTION
  2
TABLES
  0
TABLE
  2
LAYER
 70
1
  0
LAYER
  2
0
 70
     0
 62
     7
  6
CONTINUOUS
  0
ENDTAB
  0
ENDSEC
  0
SECTION
  2
ENTITIES
  0
LINE
  8
0
 62
     0
 10
0
 20
-0
 30
0.0
 11
0.172743
 21
-0
 31
0.0
  0
LINE
  8
0
 62
     0
 10
0.172743
 20
-0
 30
0.0
 11
0.172743
 21
0.470486
 31
0.0
  0
LINE
  8
0
 62
     0
 10
0.172743
 20
0.470486
 30
0.0
 11
0.22895
 21
0.47461
 31
0.0
  0
LINE
  8
0
 62
     0
 10
0.22895
 20
0.47461
 30
0.0
 11
0.283692
 21
0.487739
 31
0.0
  0
LINE
  8
0
 62
     0
 10
0.283692
 20
0.487739
 30
0.0
 11
0.335015
 21
0.511068
 31
0.0
  0
LINE
  8
0
 62
     0
 10
0.335015
 20
0.511068
 30
0.0
 11
0.381131
 21
0.545844
 31
0.0
  0
LINE
  8
0
 62
     0
 10
0.381131
 20
0.545844
 30
0.0
 11
0.420193
 21
0.593371
 31
0.0
  0
LINE
  8
0
 62
     0
 10
0.420193
 20
0.593371
 30
0.0
 11
0.450412
 21
0.654731
 31
0.0
  0
LINE
  8
0
 62
     0
 10
0.450412
 20
0.654731
 30
0.0
 11
0.469835
 21
0.731228
 31
0.0
  0
LINE
  8
0
 62
     0
 10
0.469835
 20
0.731228
 30
0.0
 11
0.476779
 21
0.824001
 31
0.0
  0
LINE
  8
0
 62
     0
 10
0.476779
 20
0.824001
 30
0.0
 11
0.469835
 21
0.916775
 31
0.0
  0
LINE
  8
0
 62
     0
 10
0.469835
 20
0.916775
 30
0.0
 11
0.450412
 21
0.99311
 31
0.0
  0
LINE
  8
0
 62
     0
 10
0.450412
 20
0.99311
 30
0.0
 11
0.420193
 21
1.05425
 31
0.0
  0
LINE
  8
0
 62
     0
 10
0.420193
 20
1.05425
 30
0.0
 11
0.381131
 21
1.1014
 31
0.0
  0
LINE
  8
0
 62
     0
 10
0.381131
 20
1.1014
 30
0.0
 11
0.335015
 21
1.13596
 31
0.0
  0
LINE
  8
0
 62
     0
 10
0.335015
 20
1.13596
 30
0.0
 11
0.283692
 21
1.15907
 31
0.0
  0
LINE
  8
0
 62
     0
 10
0.283692
 20
1.15907
 30
0.0
 11
0.22895
 21
1.17198
 31
0.0
  0
LINE
  8
0
 62
     0
 10
0.22895
 20
1.17198
 30
0.0
 11
0.172743
 21
1.176
 31
0.0
  0
LINE
  8
0
 62
     0
 10
0.172743
 20
1.176
 30
0.0
 11
0.162978
 21
1.176
 31
0.0
  0
LINE
  8
0
 62
     0
 10
0.162978
 20
1.176
 30
0.0
 11
0.142361
 21
1.176
 31
0.0
  0
LINE
  8
0
 62
     0
 10
0.142361
 20
1.176
 30
0.0
 11
0.114529
 21
1.176
 31
0.0
  0
LINE
  8
0
 62
     0
 10
0.114529
 20
1.176
 30
0.0
 11
0.0833333
 21
1.176
 31
0.0
  0
LINE
  8
0
 62
     0
 10
0.0833333
 20
1.176
 30
0.0
 11
0.0525174
 21
1.176
 31
0.0
  0
LINE
  8
0
 62
     0
 10
0.0525174
 20
1.176
 30
0.0
 11
0.0258247
 21
1.176
 31
0.0
  0
LINE
  8
0
 62
     0
 10
0.0258247
 20
1.176
 30
0.0
 11
0.00705294
 21
1.176
 31
0.0
  0
LINE
  8
0
 62
     0
 10
0.00705294
 20
1.176
 30
0.0
 11
0
 21
1.176
 31
0.0
  0
LINE
  8
0
 62
     0
 10
0
 20
1.176
 30
0.0
 11
0
 21
-0
 31
0.0
  0
LINE
  8
0
 62
     0
 10
0.172743
 20
1
 30
0.0
 11
0.209581
 21
0.997558
 31
0.0
  0
LINE
  8
0
 62
     0
 10
0.209581
 20
0.997558
 30
0.0
 11
0.238932
 21
0.989962
 31
0.0
  0
LINE
  8
0
 62
     0
 10
0.238932
 20
0.989962
 30
0.0
 11
0.26161
 21
0.976887
 31
0.0
  0
LINE
  8
0
 62
     0
 10
0.26161
 20
0.976887
 30
0.0
 11
0.278375
 21
0.958008
 31
0.0
  0
LINE
  8
0
 62
     0
 10
0.278375
 20
0.958008
 30
0.0
 11
0.289985
 21
0.932997
 31
0.0
  0
LINE
  8
0
 62
     0
 10
0.289985
 20
0.932997
 30
0.0
 11
0.297364
 21
0.901531
 31
0.0
  0
LINE
  8
0
 62
     0
 10
0.297364
 20
0.901531
 30
0.0
 11
0.301161
 21
0.863226
 31
0.0
  0
LINE
  8
0
 62
     0
 10
0.301161
 20
0.863226
 30
0.0
 11
0.3023
 21
0.817708
 31
0.0
  0
LINE
  8
0
 62
     0
 10
0.3023
 20
0.817708
 30
0.0
 11
0.301161
 21
0.772678
 31
0.0
  0
LINE
  8
0
 62
     0
 10
0.301161
 20
0.772678
 30
0.0
 11
0.297364
 21
0.735568
 31
0.0
  0
LINE
  8
0
 62
     0
 10
0.297364
 20
0.735568
 30
0.0
 11
0.289985
 21
0.705838
 31
0.0
  0
LINE
  8
0
 62
     0
 10
0.289985
 20
0.705838
 30
0.0
 11
0.278375
 21
0.682889
 31
0.0
  0
LINE
  8
0
 62
     0
 10
0.278375
 20
0.682889
 30
0.0
 11
0.26161
 21
0.666069
 31
0.0
  0
LINE
  8
0
 62
     0
 10
0.26161
 20
0.666069
 30
0.0
 11
0.238932
 21
0.654785
 31
0.0
  0
LINE
  8
0
 62
     0
 10
0.238932
 20
0.654785
 30
0.0
 11
0.209581
 21
0.648492
 31
0.0
  0
LINE
  8
0
 62
     0
 10
0.209581
 20
0.648492
 30
0.0
 11
0.172743
 21
0.646485
 31
0.0
  0
LINE
  8
0
 62
     0
 10
0.172743
 20
0.646485
 30
0.0
 11
0.172743
 21
1
 31
0.0
  0
ENDSEC
  0
EOF
