  0
SECTION
  2
HEADER
  9
$ACADVER
  1
AC1009
  9
$EXTMIN
 10
0.0
 20
0.0
 30
0.0
  9
$EXTMAX
 10
1000.0
 20
1000.0
 30
0.0
  9
$FILLMODE
 70
 0
  9
$SPLFRAME
 70
 1
  0
ENDSEC
  0
SECTION
  2
TABLES
  0
TABLE
  2
LAYER
 70
1
  0
LAYER
  2
0
 70
     0
 62
     7
  6
CONTINUOUS
  0
ENDTAB
  0
ENDSEC
  0
SECTION
  2
ENTITIES
  0
LINE
  8
0
 62
     0
 10
0.187283
 20
0.0128038
 30
0.0
 11
0.614367
 21
1.1888
 31
0.0
  0
LINE
  8
0
 62
     0
 10
0.614367
 20
1.1888
 30
0.0
 11
0.511936
 21
1.1888
 31
0.0
  0
LINE
  8
0
 62
     0
 10
0.511936
 20
1.1888
 30
0.0
 11
0.0800781
 21
0.0128038
 31
0.0
  0
LINE
  8
0
 62
     0
 10
0.0800781
 20
0.0128038
 30
0.0
 11
0.187283
 21
0.0128038
 31
0.0
  0
LINE
  8
0
 62
     0
 10
0.152126
 20
1.06554
 30
0.0
 11
0.152126
 21
0.724826
 31
0.0
  0
LINE
  8
0
 62
     0
 10
0.152126
 20
0.724826
 30
0.0
 11
0.15191
 21
0.718099
 31
0.0
  0
LINE
  8
0
 62
     0
 10
0.15191
 20
0.718099
 30
0.0
 11
0.149251
 21
0.703233
 31
0.0
  0
LINE
  8
0
 62
     0
 10
0.149251
 20
0.703233
 30
0.0
 11
0.141222
 21
0.688422
 31
0.0
  0
LINE
  8
0
 62
     0
 10
0.141222
 20
0.688422
 30
0.0
 11
0.124783
 21
0.68164
 31
0.0
  0
LINE
  8
0
 62
     0
 10
0.124783
 20
0.68164
 30
0.0
 11
0.106771
 21
0.688422
 31
0.0
  0
LINE
  8
0
 62
     0
 10
0.106771
 20
0.688422
 30
0.0
 11
0.0983615
 21
0.703233
 31
0.0
  0
LINE
  8
0
 62
     0
 10
0.0983615
 20
0.703233
 30
0.0
 11
0.0959201
 21
0.718099
 31
0.0
  0
LINE
  8
0
 62
     0
 10
0.0959201
 20
0.718099
 30
0.0
 11
0.0959201
 21
0.724826
 31
0.0
  0
LINE
  8
0
 62
     0
 10
0.0959201
 20
0.724826
 30
0.0
 11
0.0959201
 21
1.06554
 31
0.0
  0
LINE
  8
0
 62
     0
 10
0.0959201
 20
1.06554
 30
0.0
 11
0.0959201
 21
1.07232
 31
0.0
  0
LINE
  8
0
 62
     0
 10
0.0959201
 20
1.07232
 30
0.0
 11
0.0983615
 21
1.08724
 31
0.0
  0
LINE
  8
0
 62
     0
 10
0.0983615
 20
1.08724
 30
0.0
 11
0.106771
 21
1.10216
 31
0.0
  0
LINE
  8
0
 62
     0
 10
0.106771
 20
1.10216
 30
0.0
 11
0.124783
 21
1.10894
 31
0.0
  0
LINE
  8
0
 62
     0
 10
0.124783
 20
1.10894
 30
0.0
 11
0.141222
 21
1.10216
 31
0.0
  0
LINE
  8
0
 62
     0
 10
0.141222
 20
1.10216
 30
0.0
 11
0.149251
 21
1.08724
 31
0.0
  0
LINE
  8
0
 62
     0
 10
0.149251
 20
1.08724
 30
0.0
 11
0.15191
 21
1.07232
 31
0.0
  0
LINE
  8
0
 62
     0
 10
0.15191
 20
1.07232
 30
0.0
 11
0.152126
 21
1.06554
 31
0.0
  0
LINE
  8
0
 62
     0
 10
0.601563
 20
0.476779
 30
0.0
 11
0.601563
 21
0.136068
 31
0.0
  0
LINE
  8
0
 62
     0
 10
0.601563
 20
0.136068
 30
0.0
 11
0.601346
 21
0.129069
 31
0.0
  0
LINE
  8
0
 62
     0
 10
0.601346
 20
0.129069
 30
0.0
 11
0.598796
 21
0.113607
 31
0.0
  0
LINE
  8
0
 62
     0
 10
0.598796
 20
0.113607
 30
0.0
 11
0.590821
 21
0.0981988
 31
0.0
  0
LINE
  8
0
 62
     0
 10
0.590821
 20
0.0981988
 30
0.0
 11
0.574436
 21
0.0911458
 31
0.0
  0
LINE
  8
0
 62
     0
 10
0.574436
 20
0.0911458
 30
0.0
 11
0.556424
 21
0.0981988
 31
0.0
  0
LINE
  8
0
 62
     0
 10
0.556424
 20
0.0981988
 30
0.0
 11
0.548014
 21
0.113607
 31
0.0
  0
LINE
  8
0
 62
     0
 10
0.548014
 20
0.113607
 30
0.0
 11
0.545572
 21
0.129069
 31
0.0
  0
LINE
  8
0
 62
     0
 10
0.545572
 20
0.129069
 30
0.0
 11
0.545572
 21
0.136068
 31
0.0
  0
LINE
  8
0
 62
     0
 10
0.545572
 20
0.136068
 30
0.0
 11
0.545572
 21
0.476779
 31
0.0
  0
LINE
  8
0
 62
     0
 10
0.545572
 20
0.476779
 30
0.0
 11
0.545572
 21
0.483561
 31
0.0
  0
LINE
  8
0
 62
     0
 10
0.545572
 20
0.483561
 30
0.0
 11
0.548014
 21
0.498372
 31
0.0
  0
LINE
  8
0
 62
     0
 10
0.548014
 20
0.498372
 30
0.0
 11
0.556424
 21
0.513237
 31
0.0
  0
LINE
  8
0
 62
     0
 10
0.556424
 20
0.513237
 30
0.0
 11
0.574436
 21
0.519965
 31
0.0
  0
LINE
  8
0
 62
     0
 10
0.574436
 20
0.519965
 30
0.0
 11
0.590821
 21
0.513237
 31
0.0
  0
LINE
  8
0
 62
     0
 10
0.590821
 20
0.513237
 30
0.0
 11
0.598796
 21
0.498372
 31
0.0
  0
LINE
  8
0
 62
     0
 10
0.598796
 20
0.498372
 30
0.0
 11
0.601346
 21
0.483561
 31
0.0
  0
LINE
  8
0
 62
     0
 10
0.601346
 20
0.483561
 30
0.0
 11
0.601563
 21
0.476779
 31
0.0
  0
LINE
  8
0
 62
     0
 10
0.248047
 20
0.724826
 30
0.0
 11
0.248047
 21
1.06554
 31
0.0
  0
LINE
  8
0
 62
     0
 10
0.248047
 20
1.06554
 30
0.0
 11
0.247775
 21
1.0714
 31
0.0
  0
LINE
  8
0
 62
     0
 10
0.247775
 20
1.0714
 30
0.0
 11
0.246094
 21
1.08681
 31
0.0
  0
LINE
  8
0
 62
     0
 10
0.246094
 20
1.08681
 30
0.0
 11
0.241536
 21
1.10862
 31
0.0
  0
LINE
  8
0
 62
     0
 10
0.241536
 20
1.10862
 30
0.0
 11
0.232639
 21
1.13357
 31
0.0
  0
LINE
  8
0
 62
     0
 10
0.232639
 20
1.13357
 30
0.0
 11
0.217936
 21
1.15858
 31
0.0
  0
LINE
  8
0
 62
     0
 10
0.217936
 20
1.15858
 30
0.0
 11
0.196018
 21
1.18039
 31
0.0
  0
LINE
  8
0
 62
     0
 10
0.196018
 20
1.18039
 30
0.0
 11
0.165419
 21
1.1958
 31
0.0
  0
LINE
  8
0
 62
     0
 10
0.165419
 20
1.1958
 30
0.0
 11
0.124783
 21
1.20161
 31
0.0
  0
LINE
  8
0
 62
     0
 10
0.124783
 20
1.20161
 30
0.0
 11
0.0831164
 21
1.1958
 31
0.0
  0
LINE
  8
0
 62
     0
 10
0.0831164
 20
1.1958
 30
0.0
 11
0.0519749
 21
1.18039
 31
0.0
  0
LINE
  8
0
 62
     0
 10
0.0519749
 20
1.18039
 30
0.0
 11
0.0297851
 21
1.15858
 31
0.0
  0
LINE
  8
0
 62
     0
 10
0.0297851
 20
1.15858
 30
0.0
 11
0.0150282
 21
1.13357
 31
0.0
  0
LINE
  8
0
 62
     0
 10
0.0150282
 20
1.13357
 30
0.0
 11
0.00613064
 21
1.10862
 31
0.0
  0
LINE
  8
0
 62
     0
 10
0.00613064
 20
1.10862
 30
0.0
 11
0.00173611
 21
1.08681
 31
0.0
  0
LINE
  8
0
 62
     0
 10
0.00173611
 20
1.08681
 30
0.0
 11
0.000162761
 21
1.0714
 31
0.0
  0
LINE
  8
0
 62
     0
 10
0.000162761
 20
1.0714
 30
0.0
 11
0
 21
1.06554
 31
0.0
  0
LINE
  8
0
 62
     0
 10
0
 20
1.06554
 30
0.0
 11
0
 21
0.724826
 31
0.0
  0
LINE
  8
0
 62
     0
 10
0
 20
0.724826
 30
0.0
 11
0.000162761
 21
0.718967
 31
0.0
  0
LINE
  8
0
 62
     0
 10
0.000162761
 20
0.718967
 30
0.0
 11
0.00173611
 21
0.703342
 31
0.0
  0
LINE
  8
0
 62
     0
 10
0.00173611
 20
0.703342
 30
0.0
 11
0.00613064
 21
0.681315
 31
0.0
  0
LINE
  8
0
 62
     0
 10
0.00613064
 20
0.681315
 30
0.0
 11
0.0150282
 21
0.656033
 31
0.0
  0
LINE
  8
0
 62
     0
 10
0.0150282
 20
0.656033
 30
0.0
 11
0.0297851
 21
0.630806
 31
0.0
  0
LINE
  8
0
 62
     0
 10
0.0297851
 20
0.630806
 30
0.0
 11
0.0519749
 21
0.608778
 31
0.0
  0
LINE
  8
0
 62
     0
 10
0.0519749
 20
0.608778
 30
0.0
 11
0.0831164
 21
0.593153
 31
0.0
  0
LINE
  8
0
 62
     0
 10
0.0831164
 20
0.593153
 30
0.0
 11
0.124783
 21
0.587239
 31
0.0
  0
LINE
  8
0
 62
     0
 10
0.124783
 20
0.587239
 30
0.0
 11
0.165419
 21
0.593153
 31
0.0
  0
LINE
  8
0
 62
     0
 10
0.165419
 20
0.593153
 30
0.0
 11
0.196018
 21
0.608778
 31
0.0
  0
LINE
  8
0
 62
     0
 10
0.196018
 20
0.608778
 30
0.0
 11
0.217936
 21
0.630806
 31
0.0
  0
LINE
  8
0
 62
     0
 10
0.217936
 20
0.630806
 30
0.0
 11
0.232639
 21
0.656033
 31
0.0
  0
LINE
  8
0
 62
     0
 10
0.232639
 20
0.656033
 30
0.0
 11
0.241536
 21
0.681315
 31
0.0
  0
LINE
  8
0
 62
     0
 10
0.241536
 20
0.681315
 30
0.0
 11
0.246094
 21
0.703342
 31
0.0
  0
LINE
  8
0
 62
     0
 10
0.246094
 20
0.703342
 30
0.0
 11
0.247775
 21
0.718967
 31
0.0
  0
LINE
  8
0
 62
     0
 10
0.247775
 20
0.718967
 30
0.0
 11
0.248047
 21
0.724826
 31
0.0
  0
LINE
  8
0
 62
     0
 10
0.6977
 20
0.136068
 30
0.0
 11
0.6977
 21
0.476779
 31
0.0
  0
LINE
  8
0
 62
     0
 10
0.6977
 20
0.476779
 30
0.0
 11
0.697428
 21
0.482693
 31
0.0
  0
LINE
  8
0
 62
     0
 10
0.697428
 20
0.482693
 30
0.0
 11
0.695747
 21
0.498318
 31
0.0
  0
LINE
  8
0
 62
     0
 10
0.695747
 20
0.498318
 30
0.0
 11
0.691189
 21
0.520344
 31
0.0
  0
LINE
  8
0
 62
     0
 10
0.691189
 20
0.520344
 30
0.0
 11
0.682292
 21
0.545572
 31
0.0
  0
LINE
  8
0
 62
     0
 10
0.682292
 20
0.545572
 30
0.0
 11
0.667589
 21
0.570856
 31
0.0
  0
LINE
  8
0
 62
     0
 10
0.667589
 20
0.570856
 30
0.0
 11
0.645671
 21
0.592882
 31
0.0
  0
LINE
  8
0
 62
     0
 10
0.645671
 20
0.592882
 30
0.0
 11
0.615072
 21
0.608507
 31
0.0
  0
LINE
  8
0
 62
     0
 10
0.615072
 20
0.608507
 30
0.0
 11
0.574436
 21
0.614367
 31
0.0
  0
LINE
  8
0
 62
     0
 10
0.574436
 20
0.614367
 30
0.0
 11
0.532769
 21
0.608507
 31
0.0
  0
LINE
  8
0
 62
     0
 10
0.532769
 20
0.608507
 30
0.0
 11
0.501628
 21
0.592882
 31
0.0
  0
LINE
  8
0
 62
     0
 10
0.501628
 20
0.592882
 30
0.0
 11
0.479438
 21
0.570856
 31
0.0
  0
LINE
  8
0
 62
     0
 10
0.479438
 20
0.570856
 30
0.0
 11
0.464681
 21
0.545572
 31
0.0
  0
LINE
  8
0
 62
     0
 10
0.464681
 20
0.545572
 30
0.0
 11
0.455783
 21
0.520344
 31
0.0
  0
LINE
  8
0
 62
     0
 10
0.455783
 20
0.520344
 30
0.0
 11
0.451389
 21
0.498318
 31
0.0
  0
LINE
  8
0
 62
     0
 10
0.451389
 20
0.498318
 30
0.0
 11
0.449815
 21
0.482693
 31
0.0
  0
LINE
  8
0
 62
     0
 10
0.449815
 20
0.482693
 30
0.0
 11
0.449653
 21
0.476779
 31
0.0
  0
LINE
  8
0
 62
     0
 10
0.449653
 20
0.476779
 30
0.0
 11
0.449653
 21
0.136068
 31
0.0
  0
LINE
  8
0
 62
     0
 10
0.449653
 20
0.136068
 30
0.0
 11
0.449815
 21
0.130263
 31
0.0
  0
LINE
  8
0
 62
     0
 10
0.449815
 20
0.130263
 30
0.0
 11
0.451389
 21
0.114855
 31
0.0
  0
LINE
  8
0
 62
     0
 10
0.451389
 20
0.114855
 30
0.0
 11
0.455783
 21
0.0930447
 31
0.0
  0
LINE
  8
0
 62
     0
 10
0.455783
 20
0.0930447
 30
0.0
 11
0.464681
 21
0.0680339
 31
0.0
  0
LINE
  8
0
 62
     0
 10
0.464681
 20
0.0680339
 30
0.0
 11
0.479438
 21
0.0430772
 31
0.0
  0
LINE
  8
0
 62
     0
 10
0.479438
 20
0.0430772
 30
0.0
 11
0.501628
 21
0.0212674
 31
0.0
  0
LINE
  8
0
 62
     0
 10
0.501628
 20
0.0212674
 30
0.0
 11
0.532769
 21
0.00585938
 31
0.0
  0
LINE
  8
0
 62
     0
 10
0.532769
 20
0.00585938
 30
0.0
 11
0.574436
 21
-0
 31
0.0
  0
LINE
  8
0
 62
     0
 10
0.574436
 20
-0
 30
0.0
 11
0.615072
 21
0.00585938
 31
0.0
  0
LINE
  8
0
 62
     0
 10
0.615072
 20
0.00585938
 30
0.0
 11
0.645671
 21
0.0212674
 31
0.0
  0
LINE
  8
0
 62
     0
 10
0.645671
 20
0.0212674
 30
0.0
 11
0.667589
 21
0.0430772
 31
0.0
  0
LINE
  8
0
 62
     0
 10
0.667589
 20
0.0430772
 30
0.0
 11
0.682292
 21
0.0680339
 31
0.0
  0
LINE
  8
0
 62
     0
 10
0.682292
 20
0.0680339
 30
0.0
 11
0.691189
 21
0.0930447
 31
0.0
  0
LINE
  8
0
 62
     0
 10
0.691189
 20
0.0930447
 30
0.0
 11
0.695747
 21
0.114855
 31
0.0
  0
LINE
  8
0
 62
     0
 10
0.695747
 20
0.114855
 30
0.0
 11
0.697428
 21
0.130263
 31
0.0
  0
LINE
  8
0
 62
     0
 10
0.697428
 20
0.130263
 30
0.0
 11
0.6977
 21
0.136068
 31
0.0
  0
ENDSEC
  0
EOF
