  0
SECTION
  2
HEADER
  9
$ACADVER
  1
AC1009
  9
$EXTMIN
 10
0.0
 20
0.0
 30
0.0
  9
$EXTMAX
 10
1000.0
 20
1000.0
 30
0.0
  9
$FILLMODE
 70
 0
  9
$SPLFRAME
 70
 1
  0
ENDSEC
  0
SECTION
  2
TABLES
  0
TABLE
  2
LAYER
 70
1
  0
LAYER
  2
0
 70
     0
 62
     7
  6
CONTINUOUS
  0
ENDTAB
  0
ENDSEC
  0
SECTION
  2
ENTITIES
  0
LINE
  8
0
 62
     0
 10
0.460883
 20
0.331164
 30
0.0
 11
0.460883
 21
1.02403
 31
0.0
  0
LINE
  8
0
 62
     0
 10
0.460883
 20
1.02403
 30
0.0
 11
0.460449
 21
1.03499
 31
0.0
  0
LINE
  8
0
 62
     0
 10
0.460449
 20
1.03499
 30
0.0
 11
0.457465
 21
1.0638
 31
0.0
  0
LINE
  8
0
 62
     0
 10
0.457465
 20
1.0638
 30
0.0
 11
0.44911
 21
1.10455
 31
0.0
  0
LINE
  8
0
 62
     0
 10
0.44911
 20
1.10455
 30
0.0
 11
0.432617
 21
1.15126
 31
0.0
  0
LINE
  8
0
 62
     0
 10
0.432617
 20
1.15126
 30
0.0
 11
0.405274
 21
1.19797
 31
0.0
  0
LINE
  8
0
 62
     0
 10
0.405274
 20
1.19797
 30
0.0
 11
0.364258
 21
1.23872
 31
0.0
  0
LINE
  8
0
 62
     0
 10
0.364258
 20
1.23872
 30
0.0
 11
0.306913
 21
1.26752
 31
0.0
  0
LINE
  8
0
 62
     0
 10
0.306913
 20
1.26752
 30
0.0
 11
0.230414
 21
1.27843
 31
0.0
  0
LINE
  8
0
 62
     0
 10
0.230414
 20
1.27843
 30
0.0
 11
0.153863
 21
1.26752
 31
0.0
  0
LINE
  8
0
 62
     0
 10
0.153863
 20
1.26752
 30
0.0
 11
0.0965169
 21
1.23872
 31
0.0
  0
LINE
  8
0
 62
     0
 10
0.0965169
 20
1.23872
 30
0.0
 11
0.0555012
 21
1.19797
 31
0.0
  0
LINE
  8
0
 62
     0
 10
0.0555012
 20
1.19797
 30
0.0
 11
0.0281575
 21
1.15126
 31
0.0
  0
LINE
  8
0
 62
     0
 10
0.0281575
 20
1.15126
 30
0.0
 11
0.0116645
 21
1.10455
 31
0.0
  0
LINE
  8
0
 62
     0
 10
0.0116645
 20
1.10455
 30
0.0
 11
0.00330946
 21
1.0638
 31
0.0
  0
LINE
  8
0
 62
     0
 10
0.00330946
 20
1.0638
 30
0.0
 11
0.000325521
 21
1.03499
 31
0.0
  0
LINE
  8
0
 62
     0
 10
0.000325521
 20
1.03499
 30
0.0
 11
-5.42535e-05
 21
1.02403
 31
0.0
  0
LINE
  8
0
 62
     0
 10
-5.42535e-05
 20
1.02403
 30
0.0
 11
-5.42535e-05
 21
0.331164
 31
0.0
  0
LINE
  8
0
 62
     0
 10
-5.42535e-05
 20
0.331164
 30
0.0
 11
0.000325521
 21
0.320258
 31
0.0
  0
LINE
  8
0
 62
     0
 10
0.000325521
 20
0.320258
 30
0.0
 11
0.00330946
 21
0.29145
 31
0.0
  0
LINE
  8
0
 62
     0
 10
0.00330946
 20
0.29145
 30
0.0
 11
0.0116645
 21
0.250706
 31
0.0
  0
LINE
  8
0
 62
     0
 10
0.0116645
 20
0.250706
 30
0.0
 11
0.0281575
 21
0.203993
 31
0.0
  0
LINE
  8
0
 62
     0
 10
0.0281575
 20
0.203993
 30
0.0
 11
0.0555012
 21
0.157281
 31
0.0
  0
LINE
  8
0
 62
     0
 10
0.0555012
 20
0.157281
 30
0.0
 11
0.0965169
 21
0.116536
 31
0.0
  0
LINE
  8
0
 62
     0
 10
0.0965169
 20
0.116536
 30
0.0
 11
0.153863
 21
0.0877279
 31
0.0
  0
LINE
  8
0
 62
     0
 10
0.153863
 20
0.0877279
 30
0.0
 11
0.230414
 21
0.0767686
 31
0.0
  0
LINE
  8
0
 62
     0
 10
0.230414
 20
0.0767686
 30
0.0
 11
0.277235
 21
0.0810004
 31
0.0
  0
LINE
  8
0
 62
     0
 10
0.277235
 20
0.0810004
 30
0.0
 11
0.316786
 21
0.0910915
 31
0.0
  0
LINE
  8
0
 62
     0
 10
0.316786
 20
0.0910915
 30
0.0
 11
0.34299
 21
0.0559896
 31
0.0
  0
LINE
  8
0
 62
     0
 10
0.34299
 20
0.0559896
 30
0.0
 11
0.379829
 21
0.026964
 31
0.0
  0
LINE
  8
0
 62
     0
 10
0.379829
 20
0.026964
 30
0.0
 11
0.429579
 21
0.00726997
 31
0.0
  0
LINE
  8
0
 62
     0
 10
0.429579
 20
0.00726997
 30
0.0
 11
0.494521
 21
-5.42535e-05
 31
0.0
  0
LINE
  8
0
 62
     0
 10
0.494521
 20
-5.42535e-05
 30
0.0
 11
0.494521
 21
0.147136
 31
0.0
  0
LINE
  8
0
 62
     0
 10
0.494521
 20
0.147136
 30
0.0
 11
0.452854
 21
0.163249
 31
0.0
  0
LINE
  8
0
 62
     0
 10
0.452854
 20
0.163249
 30
0.0
 11
0.425726
 21
0.188803
 31
0.0
  0
LINE
  8
0
 62
     0
 10
0.425726
 20
0.188803
 30
0.0
 11
0.446018
 21
0.240072
 31
0.0
  0
LINE
  8
0
 62
     0
 10
0.446018
 20
0.240072
 30
0.0
 11
0.456489
 21
0.285807
 31
0.0
  0
LINE
  8
0
 62
     0
 10
0.456489
 20
0.285807
 30
0.0
 11
0.460286
 21
0.318631
 31
0.0
  0
LINE
  8
0
 62
     0
 10
0.460286
 20
0.318631
 30
0.0
 11
0.460883
 21
0.331164
 31
0.0
  0
LINE
  8
0
 62
     0
 10
0.287924
 20
1.02403
 30
0.0
 11
0.287924
 21
0.331164
 31
0.0
  0
LINE
  8
0
 62
     0
 10
0.287924
 20
0.331164
 30
0.0
 11
0.287924
 21
0.327474
 31
0.0
  0
LINE
  8
0
 62
     0
 10
0.287924
 20
0.327474
 30
0.0
 11
0.287435
 21
0.317708
 31
0.0
  0
LINE
  8
0
 62
     0
 10
0.287435
 20
0.317708
 30
0.0
 11
0.285699
 21
0.303819
 31
0.0
  0
LINE
  8
0
 62
     0
 10
0.285699
 20
0.303819
 30
0.0
 11
0.281956
 21
0.287978
 31
0.0
  0
LINE
  8
0
 62
     0
 10
0.281956
 20
0.287978
 30
0.0
 11
0.275282
 21
0.272136
 31
0.0
  0
LINE
  8
0
 62
     0
 10
0.275282
 20
0.272136
 30
0.0
 11
0.265028
 21
0.258247
 31
0.0
  0
LINE
  8
0
 62
     0
 10
0.265028
 20
0.258247
 30
0.0
 11
0.250325
 21
0.248481
 31
0.0
  0
LINE
  8
0
 62
     0
 10
0.250325
 20
0.248481
 30
0.0
 11
0.230414
 21
0.244737
 31
0.0
  0
LINE
  8
0
 62
     0
 10
0.230414
 20
0.244737
 30
0.0
 11
0.210449
 21
0.248481
 31
0.0
  0
LINE
  8
0
 62
     0
 10
0.210449
 20
0.248481
 30
0.0
 11
0.195747
 21
0.258247
 31
0.0
  0
LINE
  8
0
 62
     0
 10
0.195747
 20
0.258247
 30
0.0
 11
0.185493
 21
0.272136
 31
0.0
  0
LINE
  8
0
 62
     0
 10
0.185493
 20
0.272136
 30
0.0
 11
0.178874
 21
0.287978
 31
0.0
  0
LINE
  8
0
 62
     0
 10
0.178874
 20
0.287978
 30
0.0
 11
0.175076
 21
0.303819
 31
0.0
  0
LINE
  8
0
 62
     0
 10
0.175076
 20
0.303819
 30
0.0
 11
0.17334
 21
0.317708
 31
0.0
  0
LINE
  8
0
 62
     0
 10
0.17334
 20
0.317708
 30
0.0
 11
0.172851
 21
0.327474
 31
0.0
  0
LINE
  8
0
 62
     0
 10
0.172851
 20
0.327474
 30
0.0
 11
0.172906
 21
0.331164
 31
0.0
  0
LINE
  8
0
 62
     0
 10
0.172906
 20
0.331164
 30
0.0
 11
0.172906
 21
1.02403
 31
0.0
  0
LINE
  8
0
 62
     0
 10
0.172906
 20
1.02403
 30
0.0
 11
0.172851
 21
1.02778
 31
0.0
  0
LINE
  8
0
 62
     0
 10
0.172851
 20
1.02778
 30
0.0
 11
0.17334
 21
1.03754
 31
0.0
  0
LINE
  8
0
 62
     0
 10
0.17334
 20
1.03754
 30
0.0
 11
0.175076
 21
1.05138
 31
0.0
  0
LINE
  8
0
 62
     0
 10
0.175076
 20
1.05138
 30
0.0
 11
0.178874
 21
1.06722
 31
0.0
  0
LINE
  8
0
 62
     0
 10
0.178874
 20
1.06722
 30
0.0
 11
0.185493
 21
1.08312
 31
0.0
  0
LINE
  8
0
 62
     0
 10
0.185493
 20
1.08312
 30
0.0
 11
0.195747
 21
1.09695
 31
0.0
  0
LINE
  8
0
 62
     0
 10
0.195747
 20
1.09695
 30
0.0
 11
0.210449
 21
1.10672
 31
0.0
  0
LINE
  8
0
 62
     0
 10
0.210449
 20
1.10672
 30
0.0
 11
0.230414
 21
1.11041
 31
0.0
  0
LINE
  8
0
 62
     0
 10
0.230414
 20
1.11041
 30
0.0
 11
0.250325
 21
1.10672
 31
0.0
  0
LINE
  8
0
 62
     0
 10
0.250325
 20
1.10672
 30
0.0
 11
0.265028
 21
1.09695
 31
0.0
  0
LINE
  8
0
 62
     0
 10
0.265028
 20
1.09695
 30
0.0
 11
0.275282
 21
1.08312
 31
0.0
  0
LINE
  8
0
 62
     0
 10
0.275282
 20
1.08312
 30
0.0
 11
0.281956
 21
1.06722
 31
0.0
  0
LINE
  8
0
 62
     0
 10
0.281956
 20
1.06722
 30
0.0
 11
0.285699
 21
1.05138
 31
0.0
  0
LINE
  8
0
 62
     0
 10
0.285699
 20
1.05138
 30
0.0
 11
0.287435
 21
1.03754
 31
0.0
  0
LINE
  8
0
 62
     0
 10
0.287435
 20
1.03754
 30
0.0
 11
0.287924
 21
1.02778
 31
0.0
  0
LINE
  8
0
 62
     0
 10
0.287924
 20
1.02778
 30
0.0
 11
0.287924
 21
1.02403
 31
0.0
  0
ENDSEC
  0
EOF
