  0
SECTION
  2
HEADER
  9
$ACADVER
  1
AC1009
  9
$EXTMIN
 10
0.0
 20
0.0
 30
0.0
  9
$EXTMAX
 10
1000.0
 20
1000.0
 30
0.0
  9
$FILLMODE
 70
 0
  9
$SPLFRAME
 70
 1
  0
ENDSEC
  0
SECTION
  2
TABLES
  0
TABLE
  2
LAYER
 70
1
  0
LAYER
  2
0
 70
     0
 62
     7
  6
CONTINUOUS
  0
ENDTAB
  0
ENDSEC
  0
SECTION
  2
ENTITIES
  0
LINE
  8
0
 62
     0
 10
0.135959
 20
0.177517
 30
0.0
 11
0.303928
 21
0.177517
 31
0.0
  0
LINE
  8
0
 62
     0
 10
0.303928
 20
0.177517
 30
0.0
 11
0.303928
 21
-0
 31
0.0
  0
LINE
  8
0
 62
     0
 10
0.303928
 20
-0
 30
0.0
 11
0.135959
 21
-0
 31
0.0
  0
LINE
  8
0
 62
     0
 10
0.135959
 20
-0
 30
0.0
 11
0.135959
 21
0.177517
 31
0.0
  0
LINE
  8
0
 62
     0
 10
0.294379
 20
0.31684
 30
0.0
 11
0.294379
 21
0.51671
 31
0.0
  0
LINE
  8
0
 62
     0
 10
0.294379
 20
0.51671
 30
0.0
 11
0.303982
 21
0.600857
 31
0.0
  0
LINE
  8
0
 62
     0
 10
0.303982
 20
0.600857
 30
0.0
 11
0.328017
 21
0.673611
 31
0.0
  0
LINE
  8
0
 62
     0
 10
0.328017
 20
0.673611
 30
0.0
 11
0.359158
 21
0.735568
 31
0.0
  0
LINE
  8
0
 62
     0
 10
0.359158
 20
0.735568
 30
0.0
 11
0.3903
 21
0.787326
 31
0.0
  0
LINE
  8
0
 62
     0
 10
0.3903
 20
0.787326
 30
0.0
 11
0.414225
 21
0.829101
 31
0.0
  0
LINE
  8
0
 62
     0
 10
0.414225
 20
0.829101
 30
0.0
 11
0.434136
 21
0.869846
 31
0.0
  0
LINE
  8
0
 62
     0
 10
0.434136
 20
0.869846
 30
0.0
 11
0.447754
 21
0.912056
 31
0.0
  0
LINE
  8
0
 62
     0
 10
0.447754
 20
0.912056
 30
0.0
 11
0.4528
 21
0.958333
 31
0.0
  0
LINE
  8
0
 62
     0
 10
0.4528
 20
0.958333
 30
0.0
 11
0.451281
 21
0.985786
 31
0.0
  0
LINE
  8
0
 62
     0
 10
0.451281
 20
0.985786
 30
0.0
 11
0.445692
 21
1.01931
 31
0.0
  0
LINE
  8
0
 62
     0
 10
0.445692
 20
1.01931
 30
0.0
 11
0.434679
 21
1.05588
 31
0.0
  0
LINE
  8
0
 62
     0
 10
0.434679
 20
1.05588
 30
0.0
 11
0.416612
 21
1.09267
 31
0.0
  0
LINE
  8
0
 62
     0
 10
0.416612
 20
1.09267
 30
0.0
 11
0.390082
 21
1.12663
 31
0.0
  0
LINE
  8
0
 62
     0
 10
0.390082
 20
1.12663
 30
0.0
 11
0.353624
 21
1.15495
 31
0.0
  0
LINE
  8
0
 62
     0
 10
0.353624
 20
1.15495
 30
0.0
 11
0.305718
 21
1.17453
 31
0.0
  0
LINE
  8
0
 62
     0
 10
0.305718
 20
1.17453
 30
0.0
 11
0.2449
 21
1.18251
 31
0.0
  0
LINE
  8
0
 62
     0
 10
0.2449
 20
1.18251
 30
0.0
 11
0.147136
 21
1.15978
 31
0.0
  0
LINE
  8
0
 62
     0
 10
0.147136
 20
1.15978
 30
0.0
 11
0.0743815
 21
1.10303
 31
0.0
  0
LINE
  8
0
 62
     0
 10
0.0743815
 20
1.10303
 30
0.0
 11
0.0255533
 21
1.0364
 31
0.0
  0
LINE
  8
0
 62
     0
 10
0.0255533
 20
1.0364
 30
0.0
 11
-0.000108507
 21
0.983942
 31
0.0
  0
LINE
  8
0
 62
     0
 10
-0.000108507
 20
0.983942
 30
0.0
 11
0.139214
 21
0.918403
 31
0.0
  0
LINE
  8
0
 62
     0
 10
0.139214
 20
0.918403
 30
0.0
 11
0.151096
 21
0.949978
 31
0.0
  0
LINE
  8
0
 62
     0
 10
0.151096
 20
0.949978
 30
0.0
 11
0.172364
 21
0.987901
 31
0.0
  0
LINE
  8
0
 62
     0
 10
0.172364
 20
0.987901
 30
0.0
 11
0.202582
 21
1.01953
 31
0.0
  0
LINE
  8
0
 62
     0
 10
0.202582
 20
1.01953
 30
0.0
 11
0.241644
 21
1.03212
 31
0.0
  0
LINE
  8
0
 62
     0
 10
0.241644
 20
1.03212
 30
0.0
 11
0.270128
 21
1.02355
 31
0.0
  0
LINE
  8
0
 62
     0
 10
0.270128
 20
1.02355
 30
0.0
 11
0.287218
 21
1.00304
 31
0.0
  0
LINE
  8
0
 62
     0
 10
0.287218
 20
1.00304
 30
0.0
 11
0.29465
 21
0.978678
 31
0.0
  0
LINE
  8
0
 62
     0
 10
0.29465
 20
0.978678
 30
0.0
 11
0.294379
 21
0.958333
 31
0.0
  0
LINE
  8
0
 62
     0
 10
0.294379
 20
0.958333
 30
0.0
 11
0.280219
 21
0.92041
 31
0.0
  0
LINE
  8
0
 62
     0
 10
0.280219
 20
0.92041
 30
0.0
 11
0.252712
 21
0.870443
 31
0.0
  0
LINE
  8
0
 62
     0
 10
0.252712
 20
0.870443
 30
0.0
 11
0.215711
 21
0.805501
 31
0.0
  0
LINE
  8
0
 62
     0
 10
0.215711
 20
0.805501
 30
0.0
 11
0.181099
 21
0.727756
 31
0.0
  0
LINE
  8
0
 62
     0
 10
0.181099
 20
0.727756
 30
0.0
 11
0.15549
 21
0.632975
 31
0.0
  0
LINE
  8
0
 62
     0
 10
0.15549
 20
0.632975
 30
0.0
 11
0.145508
 21
0.51671
 31
0.0
  0
LINE
  8
0
 62
     0
 10
0.145508
 20
0.51671
 30
0.0
 11
0.145508
 21
0.31684
 31
0.0
  0
LINE
  8
0
 62
     0
 10
0.145508
 20
0.31684
 30
0.0
 11
0.294379
 21
0.31684
 31
0.0
  0
ENDSEC
  0
EOF
