  0
SECTION
  2
HEADER
  9
$ACADVER
  1
AC1009
  9
$EXTMIN
 10
0.0
 20
0.0
 30
0.0
  9
$EXTMAX
 10
1000.0
 20
1000.0
 30
0.0
  9
$FILLMODE
 70
 0
  9
$SPLFRAME
 70
 1
  0
ENDSEC
  0
SECTION
  2
TABLES
  0
TABLE
  2
LAYER
 70
1
  0
LAYER
  2
0
 70
     0
 62
     7
  6
CONTINUOUS
  0
ENDTAB
  0
ENDSEC
  0
SECTION
  2
ENTITIES
  0
LINE
  8
0
 62
     0
 10
0.481554
 20
-0
 30
0.0
 11
0.371094
 21
0.569661
 31
0.0
  0
LINE
  8
0
 62
     0
 10
0.371094
 20
0.569661
 30
0.0
 11
0.413846
 21
0.613878
 31
0.0
  0
LINE
  8
0
 62
     0
 10
0.413846
 20
0.613878
 30
0.0
 11
0.443793
 21
0.676215
 31
0.0
  0
LINE
  8
0
 62
     0
 10
0.443793
 20
0.676215
 30
0.0
 11
0.461426
 21
0.752115
 31
0.0
  0
LINE
  8
0
 62
     0
 10
0.461426
 20
0.752115
 30
0.0
 11
0.467231
 21
0.836806
 31
0.0
  0
LINE
  8
0
 62
     0
 10
0.467231
 20
0.836806
 30
0.0
 11
0.449978
 21
0.983018
 31
0.0
  0
LINE
  8
0
 62
     0
 10
0.449978
 20
0.983018
 30
0.0
 11
0.39681
 21
1.08925
 31
0.0
  0
LINE
  8
0
 62
     0
 10
0.39681
 20
1.08925
 30
0.0
 11
0.305176
 21
1.15408
 31
0.0
  0
LINE
  8
0
 62
     0
 10
0.305176
 20
1.15408
 30
0.0
 11
0.172743
 21
1.176
 31
0.0
  0
LINE
  8
0
 62
     0
 10
0.172743
 20
1.176
 30
0.0
 11
0
 21
1.176
 31
0.0
  0
LINE
  8
0
 62
     0
 10
0
 20
1.176
 30
0.0
 11
0
 21
-0
 31
0.0
  0
LINE
  8
0
 62
     0
 10
0
 20
-0
 30
0.0
 11
0.172743
 21
-0
 31
0.0
  0
LINE
  8
0
 62
     0
 10
0.172743
 20
-0
 30
0.0
 11
0.172743
 21
0.496094
 31
0.0
  0
LINE
  8
0
 62
     0
 10
0.172743
 20
0.496094
 30
0.0
 11
0.219183
 21
0.496094
 31
0.0
  0
LINE
  8
0
 62
     0
 10
0.219183
 20
0.496094
 30
0.0
 11
0.308811
 21
-0
 31
0.0
  0
LINE
  8
0
 62
     0
 10
0.308811
 20
-0
 30
0.0
 11
0.481554
 21
-0
 31
0.0
  0
LINE
  8
0
 62
     0
 10
0.300781
 20
0.830513
 30
0.0
 11
0.2972
 21
0.774739
 31
0.0
  0
LINE
  8
0
 62
     0
 10
0.2972
 20
0.774739
 30
0.0
 11
0.287489
 21
0.732314
 31
0.0
  0
LINE
  8
0
 62
     0
 10
0.287489
 20
0.732314
 30
0.0
 11
0.272894
 21
0.701443
 31
0.0
  0
LINE
  8
0
 62
     0
 10
0.272894
 20
0.701443
 30
0.0
 11
0.254719
 21
0.680231
 31
0.0
  0
LINE
  8
0
 62
     0
 10
0.254719
 20
0.680231
 30
0.0
 11
0.234321
 21
0.666938
 31
0.0
  0
LINE
  8
0
 62
     0
 10
0.234321
 20
0.666938
 30
0.0
 11
0.212944
 21
0.659668
 31
0.0
  0
LINE
  8
0
 62
     0
 10
0.212944
 20
0.659668
 30
0.0
 11
0.192003
 21
0.656683
 31
0.0
  0
LINE
  8
0
 62
     0
 10
0.192003
 20
0.656683
 30
0.0
 11
0.172743
 21
0.656033
 31
0.0
  0
LINE
  8
0
 62
     0
 10
0.172743
 20
0.656033
 30
0.0
 11
0.172743
 21
1.00478
 31
0.0
  0
LINE
  8
0
 62
     0
 10
0.172743
 20
1.00478
 30
0.0
 11
0.192003
 21
1.00418
 31
0.0
  0
LINE
  8
0
 62
     0
 10
0.192003
 20
1.00418
 30
0.0
 11
0.212944
 21
1.00119
 31
0.0
  0
LINE
  8
0
 62
     0
 10
0.212944
 20
1.00119
 30
0.0
 11
0.234321
 21
0.993978
 31
0.0
  0
LINE
  8
0
 62
     0
 10
0.234321
 20
0.993978
 30
0.0
 11
0.254719
 21
0.980632
 31
0.0
  0
LINE
  8
0
 62
     0
 10
0.254719
 20
0.980632
 30
0.0
 11
0.272894
 21
0.959472
 31
0.0
  0
LINE
  8
0
 62
     0
 10
0.272894
 20
0.959472
 30
0.0
 11
0.287489
 21
0.928603
 31
0.0
  0
LINE
  8
0
 62
     0
 10
0.287489
 20
0.928603
 30
0.0
 11
0.2972
 21
0.886231
 31
0.0
  0
LINE
  8
0
 62
     0
 10
0.2972
 20
0.886231
 30
0.0
 11
0.300781
 21
0.830513
 31
0.0
  0
ENDSEC
  0
EOF
