  0
SECTION
  2
HEADER
  9
$ACADVER
  1
AC1009
  9
$EXTMIN
 10
0.0
 20
0.0
 30
0.0
  9
$EXTMAX
 10
1000.0
 20
1000.0
 30
0.0
  9
$FILLMODE
 70
 0
  9
$SPLFRAME
 70
 1
  0
ENDSEC
  0
SECTION
  2
TABLES
  0
TABLE
  2
LAYER
 70
1
  0
LAYER
  2
0
 70
     0
 62
     7
  6
CONTINUOUS
  0
ENDTAB
  0
ENDSEC
  0
SECTION
  2
ENTITIES
  0
LINE
  8
0
 62
     0
 10
0.027181
 20
0.664063
 30
0.0
 11
0.0405817
 21
0.578831
 31
0.0
  0
LINE
  8
0
 62
     0
 10
0.0405817
 20
0.578831
 30
0.0
 11
0.0757378
 21
0.509169
 31
0.0
  0
LINE
  8
0
 62
     0
 10
0.0757378
 20
0.509169
 30
0.0
 11
0.125
 21
0.449815
 31
0.0
  0
LINE
  8
0
 62
     0
 10
0.125
 20
0.449815
 30
0.0
 11
0.180826
 21
0.395128
 31
0.0
  0
LINE
  8
0
 62
     0
 10
0.180826
 20
0.395128
 30
0.0
 11
0.217393
 21
0.358072
 31
0.0
  0
LINE
  8
0
 62
     0
 10
0.217393
 20
0.358072
 30
0.0
 11
0.249729
 21
0.319336
 31
0.0
  0
LINE
  8
0
 62
     0
 10
0.249729
 20
0.319336
 30
0.0
 11
0.272732
 21
0.279731
 31
0.0
  0
LINE
  8
0
 62
     0
 10
0.272732
 20
0.279731
 30
0.0
 11
0.281521
 21
0.239963
 31
0.0
  0
LINE
  8
0
 62
     0
 10
0.281521
 20
0.239963
 30
0.0
 11
0.279297
 21
0.201878
 31
0.0
  0
LINE
  8
0
 62
     0
 10
0.279297
 20
0.201878
 30
0.0
 11
0.270942
 21
0.167969
 31
0.0
  0
LINE
  8
0
 62
     0
 10
0.270942
 20
0.167969
 30
0.0
 11
0.253851
 21
0.143664
 31
0.0
  0
LINE
  8
0
 62
     0
 10
0.253851
 20
0.143664
 30
0.0
 11
0.225532
 21
0.134332
 31
0.0
  0
LINE
  8
0
 62
     0
 10
0.225532
 20
0.134332
 30
0.0
 11
0.185493
 21
0.1486
 31
0.0
  0
LINE
  8
0
 62
     0
 10
0.185493
 20
0.1486
 30
0.0
 11
0.162815
 21
0.183322
 31
0.0
  0
LINE
  8
0
 62
     0
 10
0.162815
 20
0.183322
 30
0.0
 11
0.152724
 21
0.226833
 31
0.0
  0
LINE
  8
0
 62
     0
 10
0.152724
 20
0.226833
 30
0.0
 11
0.150444
 21
0.267144
 31
0.0
  0
LINE
  8
0
 62
     0
 10
0.150444
 20
0.267144
 30
0.0
 11
5.42535e-05
 21
0.267144
 31
0.0
  0
LINE
  8
0
 62
     0
 10
5.42535e-05
 20
0.267144
 30
0.0
 11
0.00162761
 21
0.228569
 31
0.0
  0
LINE
  8
0
 62
     0
 10
0.00162761
 20
0.228569
 30
0.0
 11
0.00759549
 21
0.185601
 31
0.0
  0
LINE
  8
0
 62
     0
 10
0.00759549
 20
0.185601
 30
0.0
 11
0.0194769
 21
0.141168
 31
0.0
  0
LINE
  8
0
 62
     0
 10
0.0194769
 20
0.141168
 30
0.0
 11
0.038954
 21
0.0981446
 31
0.0
  0
LINE
  8
0
 62
     0
 10
0.038954
 20
0.0981446
 30
0.0
 11
0.067654
 21
0.0596246
 31
0.0
  0
LINE
  8
0
 62
     0
 10
0.067654
 20
0.0596246
 30
0.0
 11
0.107259
 21
0.0284289
 31
0.0
  0
LINE
  8
0
 62
     0
 10
0.107259
 20
0.0284289
 30
0.0
 11
0.159289
 21
0.00759549
 31
0.0
  0
LINE
  8
0
 62
     0
 10
0.159289
 20
0.00759549
 30
0.0
 11
0.225532
 21
-5.42535e-05
 31
0.0
  0
LINE
  8
0
 62
     0
 10
0.225532
 20
-5.42535e-05
 30
0.0
 11
0.322592
 21
0.0221897
 31
0.0
  0
LINE
  8
0
 62
     0
 10
0.322592
 20
0.0221897
 30
0.0
 11
0.386339
 21
0.07921
 31
0.0
  0
LINE
  8
0
 62
     0
 10
0.386339
 20
0.07921
 30
0.0
 11
0.421224
 21
0.156629
 31
0.0
  0
LINE
  8
0
 62
     0
 10
0.421224
 20
0.156629
 30
0.0
 11
0.431913
 21
0.239963
 31
0.0
  0
LINE
  8
0
 62
     0
 10
0.431913
 20
0.239963
 30
0.0
 11
0.418565
 21
0.320204
 31
0.0
  0
LINE
  8
0
 62
     0
 10
0.418565
 20
0.320204
 30
0.0
 11
0.383951
 21
0.391004
 31
0.0
  0
LINE
  8
0
 62
     0
 10
0.383951
 20
0.391004
 30
0.0
 11
0.3361
 21
0.453125
 31
0.0
  0
LINE
  8
0
 62
     0
 10
0.3361
 20
0.453125
 30
0.0
 11
0.283257
 21
0.507161
 31
0.0
  0
LINE
  8
0
 62
     0
 10
0.283257
 20
0.507161
 30
0.0
 11
0.245768
 21
0.544054
 31
0.0
  0
LINE
  8
0
 62
     0
 10
0.245768
 20
0.544054
 30
0.0
 11
0.211751
 21
0.582628
 31
0.0
  0
LINE
  8
0
 62
     0
 10
0.211751
 20
0.582628
 30
0.0
 11
0.187067
 21
0.622667
 31
0.0
  0
LINE
  8
0
 62
     0
 10
0.187067
 20
0.622667
 30
0.0
 11
0.177572
 21
0.664063
 31
0.0
  0
LINE
  8
0
 62
     0
 10
0.177572
 20
0.664063
 30
0.0
 11
0.179253
 21
0.698676
 31
0.0
  0
LINE
  8
0
 62
     0
 10
0.179253
 20
0.698676
 30
0.0
 11
0.186197
 21
0.731392
 31
0.0
  0
LINE
  8
0
 62
     0
 10
0.186197
 20
0.731392
 30
0.0
 11
0.201281
 21
0.756076
 31
0.0
  0
LINE
  8
0
 62
     0
 10
0.201281
 20
0.756076
 30
0.0
 11
0.227268
 21
0.766493
 31
0.0
  0
LINE
  8
0
 62
     0
 10
0.227268
 20
0.766493
 30
0.0
 11
0.257107
 21
0.756347
 31
0.0
  0
LINE
  8
0
 62
     0
 10
0.257107
 20
0.756347
 30
0.0
 11
0.27284
 21
0.730903
 31
0.0
  0
LINE
  8
0
 62
     0
 10
0.27284
 20
0.730903
 30
0.0
 11
0.278917
 21
0.697646
 31
0.0
  0
LINE
  8
0
 62
     0
 10
0.278917
 20
0.697646
 30
0.0
 11
0.280003
 21
0.664063
 31
0.0
  0
LINE
  8
0
 62
     0
 10
0.280003
 20
0.664063
 30
0.0
 11
0.430393
 21
0.664063
 31
0.0
  0
LINE
  8
0
 62
     0
 10
0.430393
 20
0.664063
 30
0.0
 11
0.429253
 21
0.702854
 31
0.0
  0
LINE
  8
0
 62
     0
 10
0.429253
 20
0.702854
 30
0.0
 11
0.424696
 21
0.743381
 31
0.0
  0
LINE
  8
0
 62
     0
 10
0.424696
 20
0.743381
 30
0.0
 11
0.414822
 21
0.783419
 31
0.0
  0
LINE
  8
0
 62
     0
 10
0.414822
 20
0.783419
 30
0.0
 11
0.398003
 21
0.820856
 31
0.0
  0
LINE
  8
0
 62
     0
 10
0.398003
 20
0.820856
 30
0.0
 11
0.372233
 21
0.853515
 31
0.0
  0
LINE
  8
0
 62
     0
 10
0.372233
 20
0.853515
 30
0.0
 11
0.335883
 21
0.879178
 31
0.0
  0
LINE
  8
0
 62
     0
 10
0.335883
 20
0.879178
 30
0.0
 11
0.287056
 21
0.895671
 31
0.0
  0
LINE
  8
0
 62
     0
 10
0.287056
 20
0.895671
 30
0.0
 11
0.224013
 21
0.900825
 31
0.0
  0
LINE
  8
0
 62
     0
 10
0.224013
 20
0.900825
 30
0.0
 11
0.127767
 21
0.877061
 31
0.0
  0
LINE
  8
0
 62
     0
 10
0.127767
 20
0.877061
 30
0.0
 11
0.0673828
 21
0.820204
 31
0.0
  0
LINE
  8
0
 62
     0
 10
0.0673828
 20
0.820204
 30
0.0
 11
0.0360786
 21
0.744467
 31
0.0
  0
LINE
  8
0
 62
     0
 10
0.0360786
 20
0.744467
 30
0.0
 11
0.027181
 21
0.664063
 31
0.0
  0
ENDSEC
  0
EOF
