  0
SECTION
  2
HEADER
  9
$ACADVER
  1
AC1009
  9
$EXTMIN
 10
0.0
 20
0.0
 30
0.0
  9
$EXTMAX
 10
1000.0
 20
1000.0
 30
0.0
  9
$FILLMODE
 70
 0
  9
$SPLFRAME
 70
 1
  0
ENDSEC
  0
SECTION
  2
TABLES
  0
TABLE
  2
LAYER
 70
1
  0
LAYER
  2
0
 70
     0
 62
     7
  6
CONTINUOUS
  0
ENDTAB
  0
ENDSEC
  0
SECTION
  2
ENTITIES
  0
LINE
  8
0
 62
     0
 10
0.0239258
 20
0.926432
 30
0.0
 11
0.0371636
 21
0.83279
 31
0.0
  0
LINE
  8
0
 62
     0
 10
0.0371636
 20
0.83279
 30
0.0
 11
0.0725369
 21
0.74094
 31
0.0
  0
LINE
  8
0
 62
     0
 10
0.0725369
 20
0.74094
 30
0.0
 11
0.123155
 21
0.650228
 31
0.0
  0
LINE
  8
0
 62
     0
 10
0.123155
 20
0.650228
 30
0.0
 11
0.182346
 21
0.560112
 31
0.0
  0
LINE
  8
0
 62
     0
 10
0.182346
 20
0.560112
 30
0.0
 11
0.231825
 21
0.486708
 31
0.0
  0
LINE
  8
0
 62
     0
 10
0.231825
 20
0.486708
 30
0.0
 11
0.276639
 21
0.416178
 31
0.0
  0
LINE
  8
0
 62
     0
 10
0.276639
 20
0.416178
 30
0.0
 11
0.309136
 21
0.34961
 31
0.0
  0
LINE
  8
0
 62
     0
 10
0.309136
 20
0.34961
 30
0.0
 11
0.321669
 21
0.287978
 31
0.0
  0
LINE
  8
0
 62
     0
 10
0.321669
 20
0.287978
 30
0.0
 11
0.317817
 21
0.236708
 31
0.0
  0
LINE
  8
0
 62
     0
 10
0.317817
 20
0.236708
 30
0.0
 11
0.30561
 21
0.195638
 31
0.0
  0
LINE
  8
0
 62
     0
 10
0.30561
 20
0.195638
 30
0.0
 11
0.283746
 21
0.168349
 31
0.0
  0
LINE
  8
0
 62
     0
 10
0.283746
 20
0.168349
 30
0.0
 11
0.251139
 21
0.158419
 31
0.0
  0
LINE
  8
0
 62
     0
 10
0.251139
 20
0.158419
 30
0.0
 11
0.226942
 21
0.163032
 31
0.0
  0
LINE
  8
0
 62
     0
 10
0.226942
 20
0.163032
 30
0.0
 11
0.207954
 21
0.175999
 31
0.0
  0
LINE
  8
0
 62
     0
 10
0.207954
 20
0.175999
 30
0.0
 11
0.193631
 21
0.196018
 31
0.0
  0
LINE
  8
0
 62
     0
 10
0.193631
 20
0.196018
 30
0.0
 11
0.183322
 21
0.221843
 31
0.0
  0
LINE
  8
0
 62
     0
 10
0.183322
 20
0.221843
 30
0.0
 11
0.176324
 21
0.252333
 31
0.0
  0
LINE
  8
0
 62
     0
 10
0.176324
 20
0.252333
 30
0.0
 11
0.172146
 21
0.286079
 31
0.0
  0
LINE
  8
0
 62
     0
 10
0.172146
 20
0.286079
 30
0.0
 11
0.170085
 21
0.321886
 31
0.0
  0
LINE
  8
0
 62
     0
 10
0.170085
 20
0.321886
 30
0.0
 11
0.169542
 21
0.358507
 31
0.0
  0
LINE
  8
0
 62
     0
 10
0.169542
 20
0.358507
 30
0.0
 11
5.42535e-05
 21
0.342447
 31
0.0
  0
LINE
  8
0
 62
     0
 10
5.42535e-05
 20
0.342447
 30
0.0
 11
0.00168186
 21
0.277669
 31
0.0
  0
LINE
  8
0
 62
     0
 10
0.00168186
 20
0.277669
 30
0.0
 11
0.00797526
 21
0.215332
 31
0.0
  0
LINE
  8
0
 62
     0
 10
0.00797526
 20
0.215332
 30
0.0
 11
0.0208333
 21
0.157443
 31
0.0
  0
LINE
  8
0
 62
     0
 10
0.0208333
 20
0.157443
 30
0.0
 11
0.042155
 21
0.105794
 31
0.0
  0
LINE
  8
0
 62
     0
 10
0.042155
 20
0.105794
 30
0.0
 11
0.0738932
 21
0.0623915
 31
0.0
  0
LINE
  8
0
 62
     0
 10
0.0738932
 20
0.0623915
 30
0.0
 11
0.118056
 21
0.0289714
 31
0.0
  0
LINE
  8
0
 62
     0
 10
0.118056
 20
0.0289714
 30
0.0
 11
0.176432
 21
0.00759549
 31
0.0
  0
LINE
  8
0
 62
     0
 10
0.176432
 20
0.00759549
 30
0.0
 11
0.251139
 21
-0
 31
0.0
  0
LINE
  8
0
 62
     0
 10
0.251139
 20
-0
 30
0.0
 11
0.368272
 21
0.0241971
 31
0.0
  0
LINE
  8
0
 62
     0
 10
0.368272
 20
0.0241971
 30
0.0
 11
0.441949
 21
0.0891928
 31
0.0
  0
LINE
  8
0
 62
     0
 10
0.441949
 20
0.0891928
 30
0.0
 11
0.480197
 21
0.183594
 31
0.0
  0
LINE
  8
0
 62
     0
 10
0.480197
 20
0.183594
 30
0.0
 11
0.491157
 21
0.296007
 31
0.0
  0
LINE
  8
0
 62
     0
 10
0.491157
 20
0.296007
 30
0.0
 11
0.47716
 21
0.389214
 31
0.0
  0
LINE
  8
0
 62
     0
 10
0.47716
 20
0.389214
 30
0.0
 11
0.440375
 21
0.480035
 31
0.0
  0
LINE
  8
0
 62
     0
 10
0.440375
 20
0.480035
 30
0.0
 11
0.388618
 21
0.569661
 31
0.0
  0
LINE
  8
0
 62
     0
 10
0.388618
 20
0.569661
 30
0.0
 11
0.329699
 21
0.659289
 31
0.0
  0
LINE
  8
0
 62
     0
 10
0.329699
 20
0.659289
 30
0.0
 11
0.280057
 21
0.730903
 31
0.0
  0
LINE
  8
0
 62
     0
 10
0.280057
 20
0.730903
 30
0.0
 11
0.236436
 21
0.799371
 31
0.0
  0
LINE
  8
0
 62
     0
 10
0.236436
 20
0.799371
 30
0.0
 11
0.205404
 21
0.864637
 31
0.0
  0
LINE
  8
0
 62
     0
 10
0.205404
 20
0.864637
 30
0.0
 11
0.193631
 21
0.926432
 31
0.0
  0
LINE
  8
0
 62
     0
 10
0.193631
 20
0.926432
 30
0.0
 11
0.19656
 21
0.972874
 31
0.0
  0
LINE
  8
0
 62
     0
 10
0.19656
 20
0.972874
 30
0.0
 11
0.206381
 21
1.00949
 31
0.0
  0
LINE
  8
0
 62
     0
 10
0.206381
 20
1.00949
 30
0.0
 11
0.224664
 21
1.0338
 31
0.0
  0
LINE
  8
0
 62
     0
 10
0.224664
 20
1.0338
 30
0.0
 11
0.252875
 21
1.04319
 31
0.0
  0
LINE
  8
0
 62
     0
 10
0.252875
 20
1.04319
 30
0.0
 11
0.287869
 21
1.02772
 31
0.0
  0
LINE
  8
0
 62
     0
 10
0.287869
 20
1.02772
 30
0.0
 11
0.308811
 21
0.987847
 31
0.0
  0
LINE
  8
0
 62
     0
 10
0.308811
 20
0.987847
 30
0.0
 11
0.318956
 21
0.933268
 31
0.0
  0
LINE
  8
0
 62
     0
 10
0.318956
 20
0.933268
 30
0.0
 11
0.321669
 21
0.873697
 31
0.0
  0
LINE
  8
0
 62
     0
 10
0.321669
 20
0.873697
 30
0.0
 11
0.491157
 21
0.88954
 31
0.0
  0
LINE
  8
0
 62
     0
 10
0.491157
 20
0.88954
 30
0.0
 11
0.489258
 21
0.940864
 31
0.0
  0
LINE
  8
0
 62
     0
 10
0.489258
 20
0.940864
 30
0.0
 11
0.482639
 21
0.994413
 31
0.0
  0
LINE
  8
0
 62
     0
 10
0.482639
 20
0.994413
 30
0.0
 11
0.46951
 21
1.04725
 31
0.0
  0
LINE
  8
0
 62
     0
 10
0.46951
 20
1.04725
 30
0.0
 11
0.44835
 21
1.09663
 31
0.0
  0
LINE
  8
0
 62
     0
 10
0.44835
 20
1.09663
 30
0.0
 11
0.417372
 21
1.13959
 31
0.0
  0
LINE
  8
0
 62
     0
 10
0.417372
 20
1.13959
 30
0.0
 11
0.375054
 21
1.17334
 31
0.0
  0
LINE
  8
0
 62
     0
 10
0.375054
 20
1.17334
 30
0.0
 11
0.319661
 21
1.19499
 31
0.0
  0
LINE
  8
0
 62
     0
 10
0.319661
 20
1.19499
 30
0.0
 11
0.249621
 21
1.20161
 31
0.0
  0
LINE
  8
0
 62
     0
 10
0.249621
 20
1.20161
 30
0.0
 11
0.145508
 21
1.17529
 31
0.0
  0
LINE
  8
0
 62
     0
 10
0.145508
 20
1.17529
 30
0.0
 11
0.0755751
 21
1.11084
 31
0.0
  0
LINE
  8
0
 62
     0
 10
0.0755751
 20
1.11084
 30
0.0
 11
0.0362414
 21
1.023
 31
0.0
  0
LINE
  8
0
 62
     0
 10
0.0362414
 20
1.023
 30
0.0
 11
0.0239258
 21
0.926432
 31
0.0
  0
ENDSEC
  0
EOF
