  0
SECTION
  2
HEADER
  9
$ACADVER
  1
AC1009
  9
$EXTMIN
 10
0.0
 20
0.0
 30
0.0
  9
$EXTMAX
 10
1000.0
 20
1000.0
 30
0.0
  9
$FILLMODE
 70
 0
  9
$SPLFRAME
 70
 1
  0
ENDSEC
  0
SECTION
  2
TABLES
  0
TABLE
  2
LAYER
 70
1
  0
LAYER
  2
0
 70
     0
 62
     7
  6
CONTINUOUS
  0
ENDTAB
  0
ENDSEC
  0
SECTION
  2
ENTITIES
  0
LINE
  8
0
 62
     0
 10
0.0816515
 20
1.10395
 30
0.0
 11
0.0816515
 21
0.888021
 31
0.0
  0
LINE
  8
0
 62
     0
 10
0.0816515
 20
0.888021
 30
0.0
 11
5.42535e-05
 21
0.888021
 31
0.0
  0
LINE
  8
0
 62
     0
 10
5.42535e-05
 20
0.888021
 30
0.0
 11
5.42535e-05
 21
0.742404
 31
0.0
  0
LINE
  8
0
 62
     0
 10
5.42535e-05
 20
0.742404
 30
0.0
 11
0.0816515
 21
0.742404
 31
0.0
  0
LINE
  8
0
 62
     0
 10
0.0816515
 20
0.742404
 30
0.0
 11
0.0816515
 21
0.294488
 31
0.0
  0
LINE
  8
0
 62
     0
 10
0.0816515
 20
0.294488
 30
0.0
 11
0.0819769
 21
0.252442
 31
0.0
  0
LINE
  8
0
 62
     0
 10
0.0819769
 20
0.252442
 30
0.0
 11
0.0845269
 21
0.205294
 31
0.0
  0
LINE
  8
0
 62
     0
 10
0.0845269
 20
0.205294
 30
0.0
 11
0.0914171
 21
0.156304
 31
0.0
  0
LINE
  8
0
 62
     0
 10
0.0914171
 20
0.156304
 30
0.0
 11
0.104818
 21
0.108832
 31
0.0
  0
LINE
  8
0
 62
     0
 10
0.104818
 20
0.108832
 30
0.0
 11
0.126899
 21
0.0661892
 31
0.0
  0
LINE
  8
0
 62
     0
 10
0.126899
 20
0.0661892
 30
0.0
 11
0.159885
 21
0.0316297
 31
0.0
  0
LINE
  8
0
 62
     0
 10
0.159885
 20
0.0316297
 30
0.0
 11
0.205946
 21
0.00846354
 31
0.0
  0
LINE
  8
0
 62
     0
 10
0.205946
 20
0.00846354
 30
0.0
 11
0.267199
 21
-0
 31
0.0
  0
LINE
  8
0
 62
     0
 10
0.267199
 20
-0
 30
0.0
 11
0.3023
 21
0.00179036
 31
0.0
  0
LINE
  8
0
 62
     0
 10
0.3023
 20
0.00179036
 30
0.0
 11
0.32959
 21
0.00564236
 31
0.0
  0
LINE
  8
0
 62
     0
 10
0.32959
 20
0.00564236
 30
0.0
 11
0.347276
 21
0.00954861
 31
0.0
  0
LINE
  8
0
 62
     0
 10
0.347276
 20
0.00954861
 30
0.0
 11
0.353569
 21
0.0112847
 31
0.0
  0
LINE
  8
0
 62
     0
 10
0.353569
 20
0.0112847
 30
0.0
 11
0.353569
 21
0.169706
 31
0.0
  0
LINE
  8
0
 62
     0
 10
0.353569
 20
0.169706
 30
0.0
 11
0.348144
 21
0.168728
 31
0.0
  0
LINE
  8
0
 62
     0
 10
0.348144
 20
0.168728
 30
0.0
 11
0.334201
 21
0.16645
 31
0.0
  0
LINE
  8
0
 62
     0
 10
0.334201
 20
0.16645
 30
0.0
 11
0.315104
 21
0.164225
 31
0.0
  0
LINE
  8
0
 62
     0
 10
0.315104
 20
0.164225
 30
0.0
 11
0.294325
 21
0.163194
 31
0.0
  0
LINE
  8
0
 62
     0
 10
0.294325
 20
0.163194
 30
0.0
 11
0.264703
 21
0.17806
 31
0.0
  0
LINE
  8
0
 62
     0
 10
0.264703
 20
0.17806
 30
0.0
 11
0.249511
 21
0.214844
 31
0.0
  0
LINE
  8
0
 62
     0
 10
0.249511
 20
0.214844
 30
0.0
 11
0.243869
 21
0.261828
 31
0.0
  0
LINE
  8
0
 62
     0
 10
0.243869
 20
0.261828
 30
0.0
 11
0.24311
 21
0.307292
 31
0.0
  0
LINE
  8
0
 62
     0
 10
0.24311
 20
0.307292
 30
0.0
 11
0.24311
 21
0.742404
 31
0.0
  0
LINE
  8
0
 62
     0
 10
0.24311
 20
0.742404
 30
0.0
 11
0.353569
 21
0.742404
 31
0.0
  0
LINE
  8
0
 62
     0
 10
0.353569
 20
0.742404
 30
0.0
 11
0.353569
 21
0.888021
 31
0.0
  0
LINE
  8
0
 62
     0
 10
0.353569
 20
0.888021
 30
0.0
 11
0.24311
 21
0.888021
 31
0.0
  0
LINE
  8
0
 62
     0
 10
0.24311
 20
0.888021
 30
0.0
 11
0.24311
 21
1.10395
 31
0.0
  0
LINE
  8
0
 62
     0
 10
0.24311
 20
1.10395
 30
0.0
 11
0.0816515
 21
1.10395
 31
0.0
  0
ENDSEC
  0
EOF
