  0
SECTION
  2
HEADER
  9
$ACADVER
  1
AC1009
  9
$EXTMIN
 10
0.0
 20
0.0
 30
0.0
  9
$EXTMAX
 10
1000.0
 20
1000.0
 30
0.0
  9
$FILLMODE
 70
 0
  9
$SPLFRAME
 70
 1
  0
ENDSEC
  0
SECTION
  2
TABLES
  0
TABLE
  2
LAYER
 70
1
  0
LAYER
  2
0
 70
     0
 62
     7
  6
CONTINUOUS
  0
ENDTAB
  0
ENDSEC
  0
SECTION
  2
ENTITIES
  0
LINE
  8
0
 62
     0
 10
0.200032
 20
0.156901
 30
0.0
 11
0.185872
 21
0.158203
 31
0.0
  0
LINE
  8
0
 62
     0
 10
0.185872
 20
0.158203
 30
0.0
 11
0.173557
 21
0.163519
 31
0.0
  0
LINE
  8
0
 62
     0
 10
0.173557
 20
0.163519
 30
0.0
 11
0.164876
 21
0.175131
 31
0.0
  0
LINE
  8
0
 62
     0
 10
0.164876
 20
0.175131
 30
0.0
 11
0.161621
 21
0.195313
 31
0.0
  0
LINE
  8
0
 62
     0
 10
0.161621
 20
0.195313
 30
0.0
 11
0.161621
 21
0.888021
 31
0.0
  0
LINE
  8
0
 62
     0
 10
0.161621
 20
0.888021
 30
0.0
 11
-5.42535e-05
 21
0.888021
 31
0.0
  0
LINE
  8
0
 62
     0
 10
-5.42535e-05
 20
0.888021
 30
0.0
 11
-5.42535e-05
 21
0.171224
 31
0.0
  0
LINE
  8
0
 62
     0
 10
-5.42535e-05
 20
0.171224
 30
0.0
 11
0.00157335
 21
0.143229
 31
0.0
  0
LINE
  8
0
 62
     0
 10
0.00157335
 20
0.143229
 30
0.0
 11
0.00678168
 21
0.114095
 31
0.0
  0
LINE
  8
0
 62
     0
 10
0.00678168
 20
0.114095
 30
0.0
 11
0.015625
 21
0.085395
 31
0.0
  0
LINE
  8
0
 62
     0
 10
0.015625
 20
0.085395
 30
0.0
 11
0.0283203
 21
0.0585938
 31
0.0
  0
LINE
  8
0
 62
     0
 10
0.0283203
 20
0.0585938
 30
0.0
 11
0.0450846
 21
0.0352106
 31
0.0
  0
LINE
  8
0
 62
     0
 10
0.0450846
 20
0.0352106
 30
0.0
 11
0.066135
 21
0.0166558
 31
0.0
  0
LINE
  8
0
 62
     0
 10
0.066135
 20
0.0166558
 30
0.0
 11
0.0915799
 21
0.00444878
 31
0.0
  0
LINE
  8
0
 62
     0
 10
0.0915799
 20
0.00444878
 30
0.0
 11
0.121691
 21
-0
 31
0.0
  0
LINE
  8
0
 62
     0
 10
0.121691
 20
-0
 30
0.0
 11
0.163954
 21
0.0123698
 31
0.0
  0
LINE
  8
0
 62
     0
 10
0.163954
 20
0.0123698
 30
0.0
 11
0.203396
 21
0.0402018
 31
0.0
  0
LINE
  8
0
 62
     0
 10
0.203396
 20
0.0402018
 30
0.0
 11
0.234754
 21
0.0694988
 31
0.0
  0
LINE
  8
0
 62
     0
 10
0.234754
 20
0.0694988
 30
0.0
 11
0.252767
 21
0.0863715
 31
0.0
  0
LINE
  8
0
 62
     0
 10
0.252767
 20
0.0863715
 30
0.0
 11
0.252767
 21
0.0128038
 31
0.0
  0
LINE
  8
0
 62
     0
 10
0.252767
 20
0.0128038
 30
0.0
 11
0.414442
 21
0.0128038
 31
0.0
  0
LINE
  8
0
 62
     0
 10
0.414442
 20
0.0128038
 30
0.0
 11
0.414442
 21
0.888021
 31
0.0
  0
LINE
  8
0
 62
     0
 10
0.414442
 20
0.888021
 30
0.0
 11
0.252767
 21
0.888021
 31
0.0
  0
LINE
  8
0
 62
     0
 10
0.252767
 20
0.888021
 30
0.0
 11
0.252767
 21
0.826443
 31
0.0
  0
LINE
  8
0
 62
     0
 10
0.252767
 20
0.826443
 30
0.0
 11
0.252767
 21
0.773167
 31
0.0
  0
LINE
  8
0
 62
     0
 10
0.252767
 20
0.773167
 30
0.0
 11
0.252767
 21
0.72054
 31
0.0
  0
LINE
  8
0
 62
     0
 10
0.252767
 20
0.72054
 30
0.0
 11
0.252767
 21
0.660861
 31
0.0
  0
LINE
  8
0
 62
     0
 10
0.252767
 20
0.660861
 30
0.0
 11
0.252767
 21
0.586535
 31
0.0
  0
LINE
  8
0
 62
     0
 10
0.252767
 20
0.586535
 30
0.0
 11
0.252767
 21
0.4898
 31
0.0
  0
LINE
  8
0
 62
     0
 10
0.252767
 20
0.4898
 30
0.0
 11
0.252767
 21
0.362956
 31
0.0
  0
LINE
  8
0
 62
     0
 10
0.252767
 20
0.362956
 30
0.0
 11
0.252767
 21
0.19835
 31
0.0
  0
LINE
  8
0
 62
     0
 10
0.252767
 20
0.19835
 30
0.0
 11
0.248969
 21
0.191894
 31
0.0
  0
LINE
  8
0
 62
     0
 10
0.248969
 20
0.191894
 30
0.0
 11
0.238336
 21
0.177626
 31
0.0
  0
LINE
  8
0
 62
     0
 10
0.238336
 20
0.177626
 30
0.0
 11
0.221679
 21
0.163411
 31
0.0
  0
LINE
  8
0
 62
     0
 10
0.221679
 20
0.163411
 30
0.0
 11
0.200032
 21
0.156901
 31
0.0
  0
ENDSEC
  0
EOF
