  0
SECTION
  2
HEADER
  9
$ACADVER
  1
AC1009
  9
$EXTMIN
 10
0.0
 20
0.0
 30
0.0
  9
$EXTMAX
 10
1000.0
 20
1000.0
 30
0.0
  9
$FILLMODE
 70
 0
  9
$SPLFRAME
 70
 1
  0
ENDSEC
  0
SECTION
  2
TABLES
  0
TABLE
  2
LAYER
 70
1
  0
LAYER
  2
0
 70
     0
 62
     7
  6
CONTINUOUS
  0
ENDTAB
  0
ENDSEC
  0
SECTION
  2
ENTITIES
  0
LINE
  8
0
 62
     0
 10
0.288086
 20
1.1888
 30
0.0
 11
0.288086
 21
0.25434
 31
0.0
  0
LINE
  8
0
 62
     0
 10
0.288086
 20
0.25434
 30
0.0
 11
0.288086
 21
0.250651
 31
0.0
  0
LINE
  8
0
 62
     0
 10
0.288086
 20
0.250651
 30
0.0
 11
0.287597
 21
0.240886
 31
0.0
  0
LINE
  8
0
 62
     0
 10
0.287597
 20
0.240886
 30
0.0
 11
0.285807
 21
0.227051
 31
0.0
  0
LINE
  8
0
 62
     0
 10
0.285807
 20
0.227051
 30
0.0
 11
0.28201
 21
0.211154
 31
0.0
  0
LINE
  8
0
 62
     0
 10
0.28201
 20
0.211154
 30
0.0
 11
0.275282
 21
0.195313
 31
0.0
  0
LINE
  8
0
 62
     0
 10
0.275282
 20
0.195313
 30
0.0
 11
0.264974
 21
0.181478
 31
0.0
  0
LINE
  8
0
 62
     0
 10
0.264974
 20
0.181478
 30
0.0
 11
0.250271
 21
0.171713
 31
0.0
  0
LINE
  8
0
 62
     0
 10
0.250271
 20
0.171713
 30
0.0
 11
0.23036
 21
0.167969
 31
0.0
  0
LINE
  8
0
 62
     0
 10
0.23036
 20
0.167969
 30
0.0
 11
0.210394
 21
0.171713
 31
0.0
  0
LINE
  8
0
 62
     0
 10
0.210394
 20
0.171713
 30
0.0
 11
0.195692
 21
0.181478
 31
0.0
  0
LINE
  8
0
 62
     0
 10
0.195692
 20
0.181478
 30
0.0
 11
0.185439
 21
0.195313
 31
0.0
  0
LINE
  8
0
 62
     0
 10
0.185439
 20
0.195313
 30
0.0
 11
0.178819
 21
0.211154
 31
0.0
  0
LINE
  8
0
 62
     0
 10
0.178819
 20
0.211154
 30
0.0
 11
0.175022
 21
0.227051
 31
0.0
  0
LINE
  8
0
 62
     0
 10
0.175022
 20
0.227051
 30
0.0
 11
0.173286
 21
0.240886
 31
0.0
  0
LINE
  8
0
 62
     0
 10
0.173286
 20
0.240886
 30
0.0
 11
0.172797
 21
0.250651
 31
0.0
  0
LINE
  8
0
 62
     0
 10
0.172797
 20
0.250651
 30
0.0
 11
0.172851
 21
0.25434
 31
0.0
  0
LINE
  8
0
 62
     0
 10
0.172851
 20
0.25434
 30
0.0
 11
0.172851
 21
1.1888
 31
0.0
  0
LINE
  8
0
 62
     0
 10
0.172851
 20
1.1888
 30
0.0
 11
0.000108507
 21
1.1888
 31
0.0
  0
LINE
  8
0
 62
     0
 10
0.000108507
 20
1.1888
 30
0.0
 11
0.000108507
 21
0.25434
 31
0.0
  0
LINE
  8
0
 62
     0
 10
0.000108507
 20
0.25434
 30
0.0
 11
0.000434028
 21
0.243435
 31
0.0
  0
LINE
  8
0
 62
     0
 10
0.000434028
 20
0.243435
 30
0.0
 11
0.00341797
 21
0.214626
 31
0.0
  0
LINE
  8
0
 62
     0
 10
0.00341797
 20
0.214626
 30
0.0
 11
0.011773
 21
0.173882
 31
0.0
  0
LINE
  8
0
 62
     0
 10
0.011773
 20
0.173882
 30
0.0
 11
0.0282118
 21
0.12717
 31
0.0
  0
LINE
  8
0
 62
     0
 10
0.0282118
 20
0.12717
 30
0.0
 11
0.0555556
 21
0.0805122
 31
0.0
  0
LINE
  8
0
 62
     0
 10
0.0555556
 20
0.0805122
 30
0.0
 11
0.0964626
 21
0.0397678
 31
0.0
  0
LINE
  8
0
 62
     0
 10
0.0964626
 20
0.0397678
 30
0.0
 11
0.153808
 21
0.0109592
 31
0.0
  0
LINE
  8
0
 62
     0
 10
0.153808
 20
0.0109592
 30
0.0
 11
0.23036
 21
-0
 31
0.0
  0
LINE
  8
0
 62
     0
 10
0.23036
 20
-0
 30
0.0
 11
0.306858
 21
0.0109592
 31
0.0
  0
LINE
  8
0
 62
     0
 10
0.306858
 20
0.0109592
 30
0.0
 11
0.364204
 21
0.0397678
 31
0.0
  0
LINE
  8
0
 62
     0
 10
0.364204
 20
0.0397678
 30
0.0
 11
0.405219
 21
0.0805122
 31
0.0
  0
LINE
  8
0
 62
     0
 10
0.405219
 20
0.0805122
 30
0.0
 11
0.432563
 21
0.12717
 31
0.0
  0
LINE
  8
0
 62
     0
 10
0.432563
 20
0.12717
 30
0.0
 11
0.449056
 21
0.173882
 31
0.0
  0
LINE
  8
0
 62
     0
 10
0.449056
 20
0.173882
 30
0.0
 11
0.457411
 21
0.214626
 31
0.0
  0
LINE
  8
0
 62
     0
 10
0.457411
 20
0.214626
 30
0.0
 11
0.460394
 21
0.243435
 31
0.0
  0
LINE
  8
0
 62
     0
 10
0.460394
 20
0.243435
 30
0.0
 11
0.460829
 21
0.25434
 31
0.0
  0
LINE
  8
0
 62
     0
 10
0.460829
 20
0.25434
 30
0.0
 11
0.460829
 21
1.1888
 31
0.0
  0
LINE
  8
0
 62
     0
 10
0.460829
 20
1.1888
 30
0.0
 11
0.288086
 21
1.1888
 31
0.0
  0
ENDSEC
  0
EOF
